<?xml version="1.0" encoding="UTF-8"?>
<svg xmlns="http://www.w3.org/2000/svg" xmlns:xlink="http://www.w3.org/1999/xlink" width="500pt" height="500pt" viewBox="0 0 500 500" version="1.1">
<g id="surface11976">
<path style=" stroke:none;fill-rule:nonzero;fill:rgb(9.019608%,9.019608%,9.411765%);fill-opacity:1;" d="M 411.457031 447.917969 L 317.707031 447.917969 C 303.324219 447.917969 291.667969 436.261719 291.667969 421.875 L 291.667969 328.125 C 291.667969 316.613281 282.34375 307.292969 270.832031 307.292969 L 229.167969 307.292969 C 217.65625 307.292969 208.332031 316.613281 208.332031 328.125 L 208.332031 421.875 C 208.332031 436.261719 196.675781 447.917969 182.292969 447.917969 L 88.542969 447.917969 C 74.15625 447.917969 62.5 436.261719 62.5 421.875 L 62.5 223.050781 C 62.5 199.105469 73.480469 176.480469 92.28125 161.667969 L 240.324219 45.011719 C 246 40.550781 254 40.550781 259.667969 45.011719 L 407.730469 161.667969 C 426.53125 176.480469 437.5 199.09375 437.5 223.03125 L 437.5 421.875 C 437.5 436.261719 425.84375 447.917969 411.457031 447.917969 Z M 411.457031 447.917969 "/>
</g>
</svg>
