<?xml version="1.0" encoding="UTF-8"?>
<svg xmlns="http://www.w3.org/2000/svg" xmlns:xlink="http://www.w3.org/1999/xlink" width="500pt" height="500pt" viewBox="0 0 500 500" version="1.1">
<g id="surface12026">
<path style=" stroke:none;fill-rule:nonzero;fill:rgb(9.019608%,9.019608%,9.411765%);fill-opacity:1;" d="M 249.492188 41.667969 C 246.160156 41.78125 242.953125 42.957031 240.335938 45.023438 L 92.285156 161.660156 C 73.496094 176.46875 62.5 199.097656 62.5 223.023438 L 62.5 421.875 C 62.5 436.078125 74.335938 447.917969 88.542969 447.917969 L 192.707031 447.917969 C 206.914062 447.917969 218.75 436.078125 218.75 421.875 L 218.75 317.707031 C 218.75 314.636719 220.886719 312.5 223.957031 312.5 L 276.042969 312.5 C 279.113281 312.5 281.25 314.636719 281.25 317.707031 L 281.25 421.875 C 281.25 436.078125 293.085938 447.917969 307.292969 447.917969 L 411.457031 447.917969 C 425.664062 447.917969 437.5 436.078125 437.5 421.875 L 437.5 223.023438 C 437.5 199.097656 426.503906 176.46875 407.714844 161.660156 L 259.664062 45.023438 C 256.773438 42.742188 253.171875 41.550781 249.492188 41.667969 Z M 250 77.1875 L 388.386719 186.21875 C 399.679688 195.117188 406.25 208.652344 406.25 223.023438 L 406.25 416.667969 L 312.5 416.667969 L 312.5 317.707031 C 312.5 297.761719 295.988281 281.25 276.042969 281.25 L 223.957031 281.25 C 204.011719 281.25 187.5 297.761719 187.5 317.707031 L 187.5 416.667969 L 93.75 416.667969 L 93.75 223.023438 C 93.75 208.652344 100.320312 195.117188 111.613281 186.21875 Z M 250 77.1875 "/>
</g>
</svg>
