<?xml version="1.0" encoding="UTF-8"?>
<svg xmlns="http://www.w3.org/2000/svg" xmlns:xlink="http://www.w3.org/1999/xlink" width="500pt" height="500pt" viewBox="0 0 500 500" version="1.1">
<g id="surface11971">
<path style=" stroke:none;fill-rule:nonzero;fill:rgb(9.019608%,9.019608%,9.411765%);fill-opacity:1;" d="M 249.753906 31.027344 C 241.132812 31.160156 234.25 38.253906 234.375 46.875 L 234.375 62.5 L 46.875 62.5 C 41.238281 62.421875 36 65.382812 33.15625 70.246094 C 30.316406 75.113281 30.316406 81.136719 33.15625 86.003906 C 36 90.867188 41.238281 93.828125 46.875 93.75 L 52.082031 93.75 L 52.082031 317.707031 C 52.082031 349.300781 77.792969 375 109.375 375 L 172.648438 375 L 137.066406 446.148438 C 134.414062 451.160156 134.6875 457.214844 137.777344 461.96875 C 140.867188 466.722656 146.289062 469.429688 151.945312 469.042969 C 157.601562 468.65625 162.605469 465.234375 165.019531 460.101562 L 207.558594 375 L 292.441406 375 L 334.980469 460.101562 C 337.394531 465.234375 342.398438 468.65625 348.054688 469.042969 C 353.710938 469.429688 359.132812 466.722656 362.222656 461.96875 C 365.3125 457.214844 365.585938 451.160156 362.933594 446.148438 L 327.351562 375 L 390.625 375 C 422.207031 375 447.917969 349.300781 447.917969 317.707031 L 447.917969 93.75 L 453.125 93.75 C 458.761719 93.828125 464 90.867188 466.84375 86.003906 C 469.683594 81.136719 469.683594 75.113281 466.84375 70.246094 C 464 65.382812 458.761719 62.421875 453.125 62.5 L 265.625 62.5 L 265.625 46.875 C 265.6875 42.648438 264.03125 38.582031 261.042969 35.59375 C 258.050781 32.609375 253.980469 30.960938 249.753906 31.027344 Z M 286.457031 145.832031 C 295.082031 145.832031 302.082031 152.832031 302.082031 161.457031 L 302.082031 276.042969 C 302.082031 284.667969 295.082031 291.667969 286.457031 291.667969 C 277.832031 291.667969 270.832031 284.667969 270.832031 276.042969 L 270.832031 161.457031 C 270.832031 152.832031 277.832031 145.832031 286.457031 145.832031 Z M 359.375 177.082031 C 368 177.082031 375 184.082031 375 192.707031 L 375 276.042969 C 375 284.667969 368 291.667969 359.375 291.667969 C 350.75 291.667969 343.75 284.667969 343.75 276.042969 L 343.75 192.707031 C 343.75 184.082031 350.75 177.082031 359.375 177.082031 Z M 213.542969 208.332031 C 222.167969 208.332031 229.167969 215.332031 229.167969 223.957031 L 229.167969 276.042969 C 229.167969 284.667969 222.167969 291.667969 213.542969 291.667969 C 204.917969 291.667969 197.917969 284.667969 197.917969 276.042969 L 197.917969 223.957031 C 197.917969 215.332031 204.917969 208.332031 213.542969 208.332031 Z M 140.625 239.582031 C 149.25 239.582031 156.25 246.582031 156.25 255.207031 L 156.25 276.042969 C 156.25 284.667969 149.25 291.667969 140.625 291.667969 C 132 291.667969 125 284.667969 125 276.042969 L 125 255.207031 C 125 246.582031 132 239.582031 140.625 239.582031 Z M 140.625 239.582031 "/>
</g>
</svg>
