<?xml version="1.0" encoding="UTF-8"?>
<svg xmlns="http://www.w3.org/2000/svg" xmlns:xlink="http://www.w3.org/1999/xlink" width="500pt" height="500pt" viewBox="0 0 500 500" version="1.1">
<g id="surface12021">
<path style=" stroke:none;fill-rule:nonzero;fill:rgb(9.019608%,9.019608%,9.411765%);fill-opacity:1;" d="M 249.753906 31.027344 C 241.132812 31.160156 234.25 38.253906 234.375 46.875 L 234.375 62.5 L 46.875 62.5 C 41.238281 62.421875 36 65.382812 33.15625 70.246094 C 30.316406 75.113281 30.316406 81.136719 33.15625 86.003906 C 36 90.867188 41.238281 93.828125 46.875 93.75 L 52.082031 93.75 L 52.082031 317.707031 C 52.082031 349.164062 77.917969 375 109.375 375 L 172.648438 375 L 137.066406 446.148438 C 134.414062 451.160156 134.6875 457.214844 137.777344 461.96875 C 140.867188 466.722656 146.289062 469.429688 151.945312 469.042969 C 157.601562 468.65625 162.605469 465.234375 165.019531 460.101562 L 207.558594 375 L 292.441406 375 L 334.980469 460.101562 C 337.394531 465.234375 342.398438 468.65625 348.054688 469.042969 C 353.710938 469.429688 359.132812 466.722656 362.222656 461.96875 C 365.3125 457.214844 365.585938 451.160156 362.933594 446.148438 L 327.351562 375 L 390.625 375 C 422.082031 375 447.917969 349.164062 447.917969 317.707031 L 447.917969 93.75 L 453.125 93.75 C 458.761719 93.828125 464 90.867188 466.84375 86.003906 C 469.683594 81.136719 469.683594 75.113281 466.84375 70.246094 C 464 65.382812 458.761719 62.421875 453.125 62.5 L 265.625 62.5 L 265.625 46.875 C 265.6875 42.648438 264.03125 38.582031 261.042969 35.59375 C 258.050781 32.609375 253.980469 30.960938 249.753906 31.027344 Z M 83.332031 93.75 L 247.4375 93.75 C 249.113281 94.027344 250.824219 94.027344 252.503906 93.75 L 416.667969 93.75 L 416.667969 317.707031 C 416.667969 332.273438 405.191406 343.75 390.625 343.75 L 304.363281 343.75 C 303.683594 343.636719 302.996094 343.570312 302.308594 343.546875 C 301.367188 343.53125 300.425781 343.597656 299.5 343.75 L 200.519531 343.75 C 199.425781 343.570312 198.3125 343.511719 197.203125 343.566406 C 196.652344 343.597656 196.101562 343.660156 195.558594 343.75 L 109.375 343.75 C 94.808594 343.75 83.332031 332.273438 83.332031 317.707031 Z M 286.214844 145.609375 C 277.59375 145.746094 270.710938 152.835938 270.832031 161.457031 L 270.832031 276.042969 C 270.753906 281.675781 273.714844 286.917969 278.582031 289.757812 C 283.449219 292.597656 289.46875 292.597656 294.335938 289.757812 C 299.203125 286.917969 302.164062 281.675781 302.082031 276.042969 L 302.082031 161.457031 C 302.144531 157.234375 300.492188 153.164062 297.5 150.175781 C 294.511719 147.191406 290.4375 145.542969 286.214844 145.609375 Z M 359.128906 176.859375 C 350.507812 176.996094 343.625 184.085938 343.75 192.707031 L 343.75 276.042969 C 343.671875 281.675781 346.632812 286.917969 351.496094 289.757812 C 356.363281 292.597656 362.386719 292.597656 367.253906 289.757812 C 372.117188 286.917969 375.078125 281.675781 375 276.042969 L 375 192.707031 C 375.0625 188.484375 373.40625 184.414062 370.417969 181.425781 C 367.425781 178.441406 363.355469 176.792969 359.128906 176.859375 Z M 213.296875 208.109375 C 204.675781 208.246094 197.792969 215.335938 197.917969 223.957031 L 197.917969 276.042969 C 197.835938 281.675781 200.796875 286.917969 205.664062 289.757812 C 210.53125 292.597656 216.550781 292.597656 221.417969 289.757812 C 226.285156 286.917969 229.246094 281.675781 229.167969 276.042969 L 229.167969 223.957031 C 229.226562 219.734375 227.574219 215.664062 224.585938 212.675781 C 221.59375 209.691406 217.523438 208.042969 213.296875 208.109375 Z M 140.378906 239.359375 C 131.757812 239.496094 124.875 246.585938 125 255.207031 L 125 276.042969 C 124.921875 281.675781 127.882812 286.917969 132.746094 289.757812 C 137.613281 292.597656 143.636719 292.597656 148.503906 289.757812 C 153.367188 286.917969 156.328125 281.675781 156.25 276.042969 L 156.25 255.207031 C 156.3125 250.984375 154.65625 246.914062 151.667969 243.925781 C 148.675781 240.941406 144.605469 239.292969 140.378906 239.359375 Z M 140.378906 239.359375 "/>
</g>
</svg>
