<?xml version="1.0" encoding="UTF-8"?>
<svg xmlns="http://www.w3.org/2000/svg" xmlns:xlink="http://www.w3.org/1999/xlink" width="500pt" height="500pt" viewBox="0 0 500 500" version="1.1">
<g id="surface13132">
<path style=" stroke:none;fill-rule:nonzero;fill:rgb(9.019608%,9.019608%,9.411765%);fill-opacity:1;" d="M 250.164062 41.667969 C 164.027344 41.667969 89.816406 94.105469 58.1875 168.964844 C 55.128906 175.847656 56.023438 183.847656 60.527344 189.886719 C 65.03125 195.921875 72.445312 199.058594 79.914062 198.089844 C 87.382812 197.117188 93.746094 192.191406 96.558594 185.199219 C 121.824219 125.394531 180.921875 83.332031 250.164062 83.332031 C 342.457031 83.332031 416.828125 157.707031 416.828125 250 C 416.828125 342.292969 342.457031 416.667969 250.164062 416.667969 C 180.921875 416.667969 121.824219 374.605469 96.558594 314.800781 C 93.746094 307.808594 87.382812 302.882812 79.914062 301.910156 C 72.445312 300.941406 65.03125 304.078125 60.527344 310.113281 C 56.023438 316.152344 55.128906 324.152344 58.1875 331.035156 C 89.816406 405.894531 164.027344 458.332031 250.164062 458.332031 C 364.972656 458.332031 458.496094 364.8125 458.496094 250 C 458.496094 135.1875 364.972656 41.667969 250.164062 41.667969 Z M 239.359375 166.464844 C 230.886719 166.472656 223.261719 171.617188 220.078125 179.46875 C 216.894531 187.320312 218.78125 196.320312 224.855469 202.230469 L 251.789062 229.167969 L 62.5 229.167969 C 54.988281 229.058594 48 233.007812 44.210938 239.496094 C 40.421875 245.988281 40.421875 254.011719 44.210938 260.503906 C 48 266.992188 54.988281 270.941406 62.5 270.832031 L 251.789062 270.832031 L 224.855469 297.769531 C 219.410156 302.996094 217.21875 310.753906 219.121094 318.054688 C 221.023438 325.355469 226.726562 331.058594 234.027344 332.960938 C 241.328125 334.863281 249.085938 332.671875 254.3125 327.230469 L 316.8125 264.730469 C 324.945312 256.59375 324.945312 243.40625 316.8125 235.269531 L 254.3125 172.769531 C 250.386719 168.734375 244.992188 166.457031 239.359375 166.464844 Z M 239.359375 166.464844 "/>
</g>
</svg>
