<?xml version="1.0" encoding="UTF-8"?>
<svg xmlns="http://www.w3.org/2000/svg" xmlns:xlink="http://www.w3.org/1999/xlink" width="500pt" height="500pt" viewBox="0 0 500 500" version="1.1">
<g id="surface13137">
<path style=" stroke:none;fill-rule:nonzero;fill:rgb(9.019608%,9.019608%,9.411765%);fill-opacity:1;" d="M 250 41.667969 C 160.84375 41.667969 84.546875 97.804688 54.890625 176.796875 C 52.851562 182.042969 53.789062 187.976562 57.34375 192.339844 C 60.898438 196.699219 66.523438 198.8125 72.070312 197.867188 C 77.617188 196.925781 82.230469 193.074219 84.148438 187.785156 C 109.324219 120.714844 173.949219 72.917969 250 72.917969 C 347.980469 72.917969 427.082031 152.019531 427.082031 250 C 427.082031 347.980469 347.980469 427.082031 250 427.082031 C 173.949219 427.082031 109.324219 379.285156 84.148438 312.214844 C 82.230469 306.925781 77.617188 303.074219 72.070312 302.132812 C 66.523438 301.1875 60.898438 303.300781 57.34375 307.660156 C 53.789062 312.023438 52.851562 317.957031 54.890625 323.203125 C 84.546875 402.195312 160.84375 458.332031 250 458.332031 C 364.871094 458.332031 458.332031 364.871094 458.332031 250 C 458.332031 135.128906 364.871094 41.667969 250 41.667969 Z M 244.628906 171.710938 C 238.269531 171.714844 232.542969 175.570312 230.152344 181.464844 C 227.761719 187.359375 229.183594 194.113281 233.746094 198.546875 L 269.550781 234.355469 L 57.3125 234.171875 C 51.675781 234.085938 46.433594 237.039062 43.585938 241.902344 C 40.738281 246.765625 40.730469 252.785156 43.566406 257.65625 C 46.398438 262.527344 51.636719 265.492188 57.269531 265.421875 L 269.59375 265.605469 L 233.746094 301.453125 C 229.664062 305.371094 228.019531 311.191406 229.445312 316.667969 C 230.875 322.140625 235.148438 326.417969 240.625 327.847656 C 246.101562 329.273438 251.921875 327.628906 255.839844 323.546875 L 318.339844 261.046875 C 324.4375 254.945312 324.4375 245.054688 318.339844 238.953125 L 255.839844 176.453125 C 252.898438 173.421875 248.851562 171.710938 244.628906 171.710938 Z M 244.628906 171.710938 "/>
</g>
</svg>
