<?xml version="1.0" encoding="UTF-8"?>
<svg xmlns="http://www.w3.org/2000/svg" xmlns:xlink="http://www.w3.org/1999/xlink" width="500pt" height="500pt" viewBox="0 0 500 500" version="1.1">
<g id="surface11966">
<path style=" stroke:none;fill-rule:nonzero;fill:rgb(9.019608%,9.019608%,9.411765%);fill-opacity:1;" d="M 166.667969 52.082031 C 126.457031 52.082031 93.75 84.792969 93.75 125 C 93.75 165.207031 126.457031 197.917969 166.667969 197.917969 C 206.875 197.917969 239.582031 165.207031 239.582031 125 C 239.582031 84.792969 206.875 52.082031 166.667969 52.082031 Z M 333.332031 52.082031 C 293.125 52.082031 260.417969 84.792969 260.417969 125 C 260.417969 165.207031 293.125 197.917969 333.332031 197.917969 C 373.542969 197.917969 406.25 165.207031 406.25 125 C 406.25 84.792969 373.542969 52.082031 333.332031 52.082031 Z M 98.957031 218.75 C 78.855469 218.75 62.5 235.105469 62.5 255.207031 L 62.5 354.167969 C 62.5 411.605469 109.230469 458.332031 166.667969 458.332031 C 193.144531 458.332031 217.28125 448.332031 235.675781 431.988281 C 218.613281 410.613281 208.332031 383.582031 208.332031 354.167969 L 208.332031 255.207031 C 208.332031 241.375 213.277344 228.667969 221.476562 218.75 Z M 265.625 218.75 C 245.519531 218.75 229.167969 235.105469 229.167969 255.207031 L 229.167969 354.167969 C 229.167969 411.605469 275.894531 458.332031 333.332031 458.332031 C 390.769531 458.332031 437.5 411.605469 437.5 354.167969 L 437.5 255.207031 C 437.5 235.105469 421.144531 218.75 401.042969 218.75 Z M 265.625 218.75 "/>
</g>
</svg>
