<?xml version="1.0" encoding="UTF-8"?>
<svg xmlns="http://www.w3.org/2000/svg" xmlns:xlink="http://www.w3.org/1999/xlink" width="500pt" height="500pt" viewBox="0 0 500 500" version="1.1">
<g id="surface12016">
<path style=" stroke:none;fill-rule:nonzero;fill:rgb(9.019608%,9.019608%,9.411765%);fill-opacity:1;" d="M 166.667969 52.082031 C 126.582031 52.082031 93.75 84.914062 93.75 125 C 93.75 165.085938 126.582031 197.917969 166.667969 197.917969 C 206.753906 197.917969 239.582031 165.085938 239.582031 125 C 239.582031 84.914062 206.753906 52.082031 166.667969 52.082031 Z M 333.332031 52.082031 C 293.246094 52.082031 260.417969 84.914062 260.417969 125 C 260.417969 165.085938 293.246094 197.917969 333.332031 197.917969 C 373.417969 197.917969 406.25 165.085938 406.25 125 C 406.25 84.914062 373.417969 52.082031 333.332031 52.082031 Z M 166.667969 83.332031 C 189.863281 83.332031 208.332031 101.804688 208.332031 125 C 208.332031 148.195312 189.863281 166.667969 166.667969 166.667969 C 143.46875 166.667969 125 148.195312 125 125 C 125 101.804688 143.46875 83.332031 166.667969 83.332031 Z M 333.332031 83.332031 C 356.53125 83.332031 375 101.804688 375 125 C 375 148.195312 356.53125 166.667969 333.332031 166.667969 C 310.136719 166.667969 291.667969 148.195312 291.667969 125 C 291.667969 101.804688 310.136719 83.332031 333.332031 83.332031 Z M 98.957031 218.75 C 78.855469 218.75 62.5 235.105469 62.5 255.207031 L 62.5 354.167969 C 62.5 411.605469 109.230469 458.332031 166.667969 458.332031 C 193.144531 458.332031 217.28125 448.332031 235.675781 431.988281 C 229.050781 423.683594 223.460938 414.527344 219.097656 404.703125 C 205.824219 418.476562 187.25 427.082031 166.667969 427.082031 C 126.457031 427.082031 93.75 394.375 93.75 354.167969 L 93.75 255.207031 C 93.75 252.332031 96.082031 250 98.957031 250 L 208.597656 250 C 209.671875 238.199219 214.300781 227.40625 221.457031 218.75 Z M 265.625 218.75 C 245.675781 218.75 229.167969 235.261719 229.167969 255.207031 L 229.167969 354.167969 C 229.167969 411.507812 275.992188 458.332031 333.332031 458.332031 C 390.675781 458.332031 437.5 411.507812 437.5 354.167969 L 437.5 255.207031 C 437.5 235.261719 420.988281 218.75 401.042969 218.75 Z M 265.625 250 L 401.042969 250 C 404.113281 250 406.25 252.136719 406.25 255.207031 L 406.25 354.167969 C 406.25 394.617188 373.78125 427.082031 333.332031 427.082031 C 292.882812 427.082031 260.417969 394.617188 260.417969 354.167969 L 260.417969 255.207031 C 260.417969 252.136719 262.550781 250 265.625 250 Z M 265.625 250 "/>
</g>
</svg>
