<?xml version="1.0" encoding="utf-8"?>
<!-- Generator: Adobe Illustrator 26.3.1, SVG Export Plug-In . SVG Version: 6.00 Build 0)  -->
<svg version="1.1" id="Layer_1" xmlns="http://www.w3.org/2000/svg" xmlns:xlink="http://www.w3.org/1999/xlink" x="0px" y="0px"
	 viewBox="0 0 500 500" style="enable-background:new 0 0 500 500;" xml:space="preserve">
<style type="text/css">
	.st0{fill:#171718;}
</style>
<g id="surface12011">
	<path class="st0" d="M416.7,333.1v31.5l0,0c-5.7,29.8-28.4,53.5-55.3,68.4c-31.5,17.4-71.5,25.4-111.4,25.4s-79.9-8-111.4-25.4
		c-31.5-17.4-55.3-46.4-55.3-84v-15.9c0-22.7,18.7-41.4,41.5-41.4h250.4C397.9,291.7,416.7,310.4,416.7,333.1z"/>
	<path class="st0" d="M354.2,145.8c0,57.3-46.8,104.2-104.2,104.2s-104.2-46.8-104.2-104.2c0-57.3,46.8-104.2,104.2-104.2
		S354.2,88.5,354.2,145.8z"/>
</g>
</svg>
