<?xml version="1.0" encoding="UTF-8"?>
<svg xmlns="http://www.w3.org/2000/svg" xmlns:xlink="http://www.w3.org/1999/xlink" width="500pt" height="500pt" viewBox="0 0 500 500" version="1.1">
<g id="surface12011">
<path style=" stroke:none;fill-rule:nonzero;fill:rgb(9.019608%,9.019608%,9.411765%);fill-opacity:1;" d="M 250 41.667969 C 192.65625 41.667969 145.832031 88.488281 145.832031 145.832031 C 145.832031 203.179688 192.65625 250 250 250 C 307.34375 250 354.167969 203.179688 354.167969 145.832031 C 354.167969 88.488281 307.34375 41.667969 250 41.667969 Z M 250 72.917969 C 290.457031 72.917969 322.917969 105.378906 322.917969 145.832031 C 322.917969 186.289062 290.457031 218.75 250 218.75 C 209.542969 218.75 177.082031 186.289062 177.082031 145.832031 C 177.082031 105.378906 209.542969 72.917969 250 72.917969 Z M 124.777344 291.667969 C 102.070312 291.667969 83.332031 310.402344 83.332031 333.109375 L 83.332031 348.957031 C 83.332031 386.5 107.074219 415.542969 138.609375 432.941406 C 170.144531 450.339844 210.085938 458.332031 250 458.332031 C 289.914062 458.332031 329.855469 450.339844 361.390625 432.941406 C 388.277344 418.109375 408.515625 394.402344 414.183594 364.582031 L 416.6875 364.582031 L 416.6875 333.109375 C 416.6875 310.402344 397.929688 291.667969 375.222656 291.667969 Z M 124.777344 322.917969 L 375.222656 322.917969 C 381.039062 322.917969 385.4375 327.296875 385.4375 333.109375 L 385.4375 333.332031 L 385.417969 333.332031 L 385.417969 348.957031 C 385.417969 373.914062 371.398438 391.746094 346.292969 405.597656 C 321.1875 419.449219 285.605469 427.082031 250 427.082031 C 214.394531 427.082031 178.8125 419.449219 153.707031 405.597656 C 128.601562 391.746094 114.582031 373.914062 114.582031 348.957031 L 114.582031 333.109375 C 114.582031 327.296875 118.960938 322.917969 124.777344 322.917969 Z M 124.777344 322.917969 "/>
</g>
</svg>
