<?xml version="1.0" encoding="UTF-8"?>
<svg xmlns="http://www.w3.org/2000/svg" xmlns:xlink="http://www.w3.org/1999/xlink" width="500pt" height="500pt" viewBox="0 0 500 500" version="1.1">
<g id="surface11986">
<path style=" stroke:none;fill-rule:nonzero;fill:rgb(9.019608%,9.019608%,9.411765%);fill-opacity:1;" d="M 62.5 93.75 C 54.988281 93.644531 48 97.589844 44.210938 104.082031 C 40.421875 110.570312 40.421875 118.597656 44.210938 125.085938 C 48 131.574219 54.988281 135.523438 62.5 135.417969 L 437.5 135.417969 C 445.011719 135.523438 452 131.574219 455.789062 125.085938 C 459.578125 118.597656 459.578125 110.570312 455.789062 104.082031 C 452 97.589844 445.011719 93.644531 437.5 93.75 Z M 62.5 229.167969 C 54.988281 229.058594 48 233.007812 44.210938 239.496094 C 40.421875 245.988281 40.421875 254.011719 44.210938 260.503906 C 48 266.992188 54.988281 270.941406 62.5 270.832031 L 437.5 270.832031 C 445.011719 270.941406 452 266.992188 455.789062 260.503906 C 459.578125 254.011719 459.578125 245.988281 455.789062 239.496094 C 452 233.007812 445.011719 229.058594 437.5 229.167969 Z M 62.5 364.582031 C 54.988281 364.476562 48 368.425781 44.210938 374.914062 C 40.421875 381.402344 40.421875 389.429688 44.210938 395.917969 C 48 402.410156 54.988281 406.355469 62.5 406.25 L 437.5 406.25 C 445.011719 406.355469 452 402.410156 455.789062 395.917969 C 459.578125 389.429688 459.578125 381.402344 455.789062 374.914062 C 452 368.425781 445.011719 364.476562 437.5 364.582031 Z M 62.5 364.582031 "/>
</g>
</svg>
