<?xml version="1.0" encoding="UTF-8"?>
<svg xmlns="http://www.w3.org/2000/svg" xmlns:xlink="http://www.w3.org/1999/xlink" width="500pt" height="500pt" viewBox="0 0 500 500" version="1.1">
<g id="surface12006">
<path style=" stroke:none;fill-rule:nonzero;fill:rgb(9.019608%,9.019608%,9.411765%);fill-opacity:1;" d="M 57.292969 93.75 C 51.65625 93.671875 46.414062 96.632812 43.574219 101.496094 C 40.734375 106.363281 40.734375 112.386719 43.574219 117.253906 C 46.414062 122.117188 51.65625 125.078125 57.292969 125 L 442.707031 125 C 448.34375 125.078125 453.585938 122.117188 456.425781 117.253906 C 459.265625 112.386719 459.265625 106.363281 456.425781 101.496094 C 453.585938 96.632812 448.34375 93.671875 442.707031 93.75 Z M 57.292969 234.375 C 51.65625 234.296875 46.414062 237.257812 43.574219 242.121094 C 40.734375 246.988281 40.734375 253.011719 43.574219 257.878906 C 46.414062 262.742188 51.65625 265.703125 57.292969 265.625 L 442.707031 265.625 C 448.34375 265.703125 453.585938 262.742188 456.425781 257.878906 C 459.265625 253.011719 459.265625 246.988281 456.425781 242.121094 C 453.585938 237.257812 448.34375 234.296875 442.707031 234.375 Z M 57.292969 375 C 51.65625 374.921875 46.414062 377.882812 43.574219 382.746094 C 40.734375 387.613281 40.734375 393.636719 43.574219 398.503906 C 46.414062 403.367188 51.65625 406.328125 57.292969 406.25 L 442.707031 406.25 C 448.34375 406.328125 453.585938 403.367188 456.425781 398.503906 C 459.265625 393.636719 459.265625 387.613281 456.425781 382.746094 C 453.585938 377.882812 448.34375 374.921875 442.707031 375 Z M 57.292969 375 "/>
</g>
</svg>
