<?xml version="1.0" encoding="UTF-8"?>
<svg xmlns="http://www.w3.org/2000/svg" xmlns:xlink="http://www.w3.org/1999/xlink" width="500pt" height="500pt" viewBox="0 0 500 500" version="1.1">
<g id="surface11981">
<path style=" stroke:none;fill-rule:nonzero;fill:rgb(9.019608%,9.019608%,9.411765%);fill-opacity:1;" d="M 406.066406 72.613281 C 400.5625 72.742188 395.332031 75.046875 391.519531 79.019531 L 250 220.539062 L 108.480469 79.019531 C 104.550781 74.984375 99.160156 72.707031 93.527344 72.714844 C 85.050781 72.722656 77.429688 77.867188 74.246094 85.71875 C 71.058594 93.570312 72.949219 102.570312 79.019531 108.480469 L 220.539062 250 L 79.019531 391.519531 C 73.578125 396.746094 71.386719 404.503906 73.289062 411.804688 C 75.191406 419.105469 80.894531 424.808594 88.195312 426.710938 C 95.496094 428.613281 103.253906 426.421875 108.480469 420.980469 L 250 279.460938 L 391.519531 420.980469 C 396.746094 426.421875 404.503906 428.613281 411.804688 426.710938 C 419.105469 424.808594 424.808594 419.105469 426.710938 411.804688 C 428.613281 404.503906 426.421875 396.746094 420.980469 391.519531 L 279.460938 250 L 420.980469 108.480469 C 427.183594 102.53125 429.097656 93.378906 425.796875 85.441406 C 422.496094 77.503906 414.660156 72.410156 406.066406 72.613281 Z M 406.066406 72.613281 "/>
</g>
</svg>
