<?xml version="1.0" encoding="UTF-8"?>
<svg xmlns="http://www.w3.org/2000/svg" xmlns:xlink="http://www.w3.org/1999/xlink" width="500pt" height="500pt" viewBox="0 0 500 500" version="1.1">
<g id="surface12001">
<path style=" stroke:none;fill-rule:nonzero;fill:rgb(9.019608%,9.019608%,9.411765%);fill-opacity:1;" d="M 411.316406 72.691406 C 407.191406 72.789062 403.269531 74.515625 400.410156 77.496094 L 250 227.90625 L 99.589844 77.496094 C 96.648438 74.464844 92.601562 72.753906 88.378906 72.753906 C 82.019531 72.753906 76.292969 76.613281 73.902344 82.507812 C 71.511719 88.402344 72.933594 95.15625 77.496094 99.589844 L 227.90625 250 L 77.496094 400.410156 C 73.414062 404.328125 71.769531 410.148438 73.195312 415.625 C 74.625 421.101562 78.898438 425.375 84.375 426.804688 C 89.851562 428.230469 95.671875 426.585938 99.589844 422.503906 L 250 272.09375 L 400.410156 422.503906 C 404.328125 426.585938 410.148438 428.230469 415.625 426.804688 C 421.101562 425.375 425.375 421.101562 426.804688 415.625 C 428.230469 410.148438 426.585938 404.328125 422.503906 400.410156 L 272.09375 250 L 422.503906 99.589844 C 427.15625 95.125 428.589844 88.265625 426.113281 82.3125 C 423.636719 76.359375 417.761719 72.539062 411.316406 72.691406 Z M 411.316406 72.691406 "/>
</g>
</svg>
