<?xml version="1.0" encoding="UTF-8"?>
<svg xmlns="http://www.w3.org/2000/svg" xmlns:xlink="http://www.w3.org/1999/xlink" width="500pt" height="500pt" viewBox="0 0 500 500" version="1.1">
<g id="surface11991">
<path style=" stroke:none;fill-rule:nonzero;fill:rgb(9.019608%,9.019608%,9.411765%);fill-opacity:1;" d="M 213.542969 62.5 C 130.371094 62.5 62.5 130.371094 62.5 213.542969 C 62.5 296.714844 130.371094 364.582031 213.542969 364.582031 C 247.636719 364.582031 279.050781 353.050781 304.382812 333.863281 L 401.9375 431.394531 C 407.164062 436.839844 414.921875 439.03125 422.222656 437.128906 C 429.523438 435.226562 435.226562 429.523438 437.128906 422.222656 C 439.03125 414.921875 436.839844 407.164062 431.394531 401.9375 L 333.863281 304.382812 C 353.050781 279.050781 364.582031 247.636719 364.582031 213.542969 C 364.582031 130.371094 296.714844 62.5 213.542969 62.5 Z M 213.542969 104.167969 C 274.195312 104.167969 322.917969 152.890625 322.917969 213.542969 C 322.917969 242.664062 311.605469 268.964844 293.214844 288.511719 C 291.421875 289.808594 289.851562 291.382812 288.554688 293.171875 C 269 311.585938 242.683594 322.917969 213.542969 322.917969 C 152.890625 322.917969 104.167969 274.195312 104.167969 213.542969 C 104.167969 152.890625 152.890625 104.167969 213.542969 104.167969 Z M 213.542969 104.167969 "/>
</g>
</svg>
