<?xml version="1.0" encoding="UTF-8"?>
<svg xmlns="http://www.w3.org/2000/svg" xmlns:xlink="http://www.w3.org/1999/xlink" width="500pt" height="500pt" viewBox="0 0 500 500" version="1.1">
<g id="surface11996">
<path style=" stroke:none;fill-rule:nonzero;fill:rgb(9.019608%,9.019608%,9.411765%);fill-opacity:1;" d="M 213.542969 62.5 C 130.308594 62.5 62.5 130.308594 62.5 213.542969 C 62.5 296.773438 130.308594 364.582031 213.542969 364.582031 C 249.546875 364.582031 282.644531 351.863281 308.632812 330.730469 L 410.828125 432.921875 C 414.746094 437.003906 420.566406 438.648438 426.042969 437.222656 C 431.515625 435.792969 435.792969 431.515625 437.222656 426.042969 C 438.648438 420.566406 437.003906 414.746094 432.921875 410.828125 L 330.730469 308.632812 C 351.863281 282.644531 364.582031 249.546875 364.582031 213.542969 C 364.582031 130.308594 296.773438 62.5 213.542969 62.5 Z M 213.542969 93.75 C 279.886719 93.75 333.332031 147.199219 333.332031 213.542969 C 333.332031 245.859375 320.585938 275.058594 299.90625 296.570312 C 298.632812 297.507812 297.507812 298.632812 296.570312 299.90625 C 275.058594 320.585938 245.859375 333.332031 213.542969 333.332031 C 147.199219 333.332031 93.75 279.886719 93.75 213.542969 C 93.75 147.199219 147.199219 93.75 213.542969 93.75 Z M 213.542969 93.75 "/>
</g>
</svg>
