<?xml version="1.0" encoding="UTF-8"?>
<svg xmlns="http://www.w3.org/2000/svg" xmlns:xlink="http://www.w3.org/1999/xlink" width="500pt" height="500pt" viewBox="0 0 500 500" version="1.1">
<g id="surface11951">
<path style=" stroke:none;fill-rule:nonzero;fill:rgb(9.019608%,9.019608%,9.411765%);fill-opacity:1;" d="M 249.777344 119.792969 C 245.710938 119.851562 241.828125 121.492188 238.953125 124.371094 L 35.828125 327.496094 C 31.746094 331.414062 30.101562 337.234375 31.527344 342.707031 C 32.957031 348.183594 37.234375 352.460938 42.707031 353.886719 C 48.183594 355.316406 54.003906 353.671875 57.921875 349.589844 L 250 157.511719 L 442.078125 349.589844 C 445.996094 353.671875 451.816406 355.316406 457.292969 353.886719 C 462.765625 352.460938 467.042969 348.183594 468.472656 342.707031 C 469.898438 337.234375 468.253906 331.414062 464.171875 327.496094 L 261.046875 124.371094 C 258.0625 121.382812 253.996094 119.734375 249.777344 119.792969 Z M 249.777344 119.792969 "/>
</g>
</svg>
