<?xml version="1.0" encoding="UTF-8"?>
<svg xmlns="http://www.w3.org/2000/svg" xmlns:xlink="http://www.w3.org/1999/xlink" width="500pt" height="500pt" viewBox="0 0 500 500" version="1.1">
<g id="surface11936">
<path style=" stroke:none;fill-rule:nonzero;fill:rgb(9.019608%,9.019608%,9.411765%);fill-opacity:1;" d="M 250 41.667969 C 193.300781 41.667969 141.789062 64.453125 104.167969 101.339844 L 104.167969 83.332031 C 104.242188 77.707031 102.039062 72.285156 98.058594 68.308594 C 94.078125 64.332031 88.65625 62.132812 83.027344 62.214844 C 71.53125 62.382812 62.34375 71.835938 62.5 83.332031 L 62.5 156.25 C 62.515625 167.421875 71.335938 176.59375 82.5 177.042969 C 85.589844 177.773438 88.804688 177.785156 91.898438 177.082031 L 156.25 177.082031 C 163.761719 177.191406 170.75 173.242188 174.539062 166.753906 C 178.328125 160.261719 178.328125 152.238281 174.539062 145.746094 C 170.75 139.257812 163.761719 135.308594 156.25 135.417969 L 129.046875 135.417969 C 159.386719 103.382812 202.246094 83.332031 250 83.332031 C 342.292969 83.332031 416.667969 157.707031 416.667969 250 C 416.667969 342.292969 342.292969 416.667969 250 416.667969 C 157.707031 416.667969 83.332031 342.292969 83.332031 250 C 83.441406 242.488281 79.492188 235.5 73.003906 231.710938 C 66.511719 227.921875 58.488281 227.921875 51.996094 231.710938 C 45.507812 235.5 41.558594 242.488281 41.667969 250 C 41.667969 364.8125 135.1875 458.332031 250 458.332031 C 364.8125 458.332031 458.332031 364.8125 458.332031 250 C 458.332031 135.1875 364.8125 41.667969 250 41.667969 Z M 249.695312 135.132812 C 238.195312 135.300781 229.007812 144.75 229.167969 156.25 L 229.167969 270.832031 C 229.167969 282.339844 238.496094 291.664062 250 291.667969 L 322.917969 291.667969 C 330.429688 291.773438 337.417969 287.824219 341.207031 281.335938 C 344.992188 274.847656 344.992188 266.820312 341.207031 260.332031 C 337.417969 253.839844 330.429688 249.894531 322.917969 250 L 270.832031 250 L 270.832031 156.25 C 270.910156 150.621094 268.707031 145.203125 264.726562 141.226562 C 260.742188 137.246094 255.324219 135.050781 249.695312 135.132812 Z M 249.695312 135.132812 "/>
</g>
</svg>
