<?xml version="1.0" encoding="UTF-8"?>
<svg xmlns="http://www.w3.org/2000/svg" xmlns:xlink="http://www.w3.org/1999/xlink" width="500pt" height="500pt" viewBox="0 0 500 500" version="1.1">
<g id="surface11931">
<path style=" stroke:none;fill-rule:nonzero;fill:rgb(9.019608%,9.019608%,9.411765%);fill-opacity:1;" d="M 250 41.667969 C 181.917969 41.667969 121.367188 74.46875 83.332031 125.121094 L 83.332031 88.542969 C 83.394531 84.316406 81.742188 80.246094 78.75 77.261719 C 75.761719 74.273438 71.6875 72.625 67.464844 72.691406 C 58.84375 72.828125 51.960938 79.921875 52.082031 88.542969 L 52.082031 161.457031 C 52.085938 170.085938 59.078125 177.082031 67.707031 177.082031 L 140.625 177.082031 C 146.261719 177.164062 151.5 174.203125 154.34375 169.335938 C 157.183594 164.46875 157.183594 158.449219 154.34375 153.582031 C 151.5 148.714844 146.261719 145.753906 140.625 145.832031 L 106.769531 145.832031 C 138.949219 101.648438 191.03125 72.917969 250 72.917969 C 347.980469 72.917969 427.082031 152.019531 427.082031 250 C 427.082031 347.980469 347.980469 427.082031 250 427.082031 C 152.019531 427.082031 72.917969 347.980469 72.917969 250 C 72.996094 244.363281 70.035156 239.125 65.167969 236.28125 C 60.300781 233.441406 54.28125 233.441406 49.414062 236.28125 C 44.546875 239.125 41.585938 244.363281 41.667969 250 C 41.667969 364.871094 135.128906 458.332031 250 458.332031 C 364.871094 458.332031 458.332031 364.871094 458.332031 250 C 458.332031 135.128906 364.871094 41.667969 250 41.667969 Z M 244.546875 135.191406 C 235.925781 135.328125 229.042969 142.421875 229.167969 151.042969 L 229.167969 276.042969 C 229.167969 284.671875 236.164062 291.664062 244.792969 291.667969 L 328.125 291.667969 C 333.761719 291.746094 339 288.785156 341.84375 283.917969 C 344.683594 279.050781 344.683594 273.03125 341.84375 268.164062 C 339 263.296875 333.761719 260.335938 328.125 260.417969 L 260.417969 260.417969 L 260.417969 151.042969 C 260.476562 146.816406 258.824219 142.746094 255.835938 139.761719 C 252.84375 136.773438 248.773438 135.125 244.546875 135.191406 Z M 244.546875 135.191406 "/>
</g>
</svg>
