<?xml version="1.0" encoding="UTF-8"?>
<svg xmlns="http://www.w3.org/2000/svg" xmlns:xlink="http://www.w3.org/1999/xlink" width="500pt" height="500pt" viewBox="0 0 500 500" version="1.1">
<g id="surface11926">
<path style=" stroke:none;fill-rule:nonzero;fill:rgb(9.019608%,9.019608%,9.411765%);fill-opacity:1;" d="M 407.699219 273.769531 C 400.269531 268.324219 395.832031 259.574219 395.832031 250.355469 C 395.832031 241.136719 400.269531 232.386719 407.6875 226.949219 L 442 201.792969 C 447.46875 197.769531 449.730469 190.699219 447.59375 184.25 C 438.761719 157.707031 424.792969 133.5 406.0625 112.28125 C 401.550781 107.199219 394.28125 105.59375 388.0625 108.324219 L 349.425781 125.3125 C 341.011719 129.019531 331.207031 128.488281 323.21875 123.875 C 315.238281 119.269531 309.886719 111.0625 308.875 101.90625 L 304.230469 59.488281 C 303.488281 52.738281 298.46875 47.238281 291.824219 45.875 C 264.769531 40.34375 236.34375 40.25 208.8125 45.769531 C 202.125 47.113281 197.09375 52.613281 196.355469 59.394531 L 191.75 101.542969 C 190.738281 110.707031 185.386719 118.917969 177.386719 123.519531 C 169.40625 128.125 159.636719 128.675781 151.1875 124.957031 L 112.34375 107.875 C 106.175781 105.144531 98.886719 106.730469 94.375 111.800781 C 75.582031 132.9375 61.550781 157.113281 52.625 183.636719 C 50.457031 190.074219 52.707031 197.1875 58.199219 201.21875 L 92.292969 226.21875 C 99.730469 231.675781 104.167969 240.425781 104.167969 249.644531 C 104.167969 258.863281 99.730469 267.613281 92.3125 273.050781 L 58 298.207031 C 52.53125 302.230469 50.269531 309.300781 52.40625 315.75 C 61.238281 342.292969 75.207031 366.5 93.9375 387.71875 C 98.449219 392.8125 105.738281 394.425781 111.9375 391.675781 L 150.574219 374.6875 C 158.988281 370.980469 168.78125 371.511719 176.78125 376.125 C 184.761719 380.730469 190.113281 388.9375 191.125 398.09375 L 195.769531 440.511719 C 196.511719 447.261719 201.53125 452.761719 208.175781 454.125 C 221.863281 456.917969 235.925781 458.332031 250 458.332031 C 263.730469 458.332031 277.582031 456.949219 291.175781 454.21875 C 297.863281 452.875 302.894531 447.375 303.636719 440.59375 L 308.25 398.449219 C 309.261719 389.28125 314.613281 381.074219 322.613281 376.46875 C 330.59375 371.875 340.375 371.332031 348.8125 375.03125 L 387.65625 392.113281 C 393.84375 394.855469 401.113281 393.269531 405.625 388.1875 C 424.417969 367.050781 438.449219 342.875 447.375 316.355469 C 449.542969 309.917969 447.292969 302.800781 441.800781 298.769531 Z M 250 322.917969 C 209.730469 322.917969 177.082031 290.269531 177.082031 250 C 177.082031 209.730469 209.730469 177.082031 250 177.082031 C 290.269531 177.082031 322.917969 209.730469 322.917969 250 C 322.917969 290.269531 290.269531 322.917969 250 322.917969 Z M 250 322.917969 "/>
</g>
</svg>
