<?xml version="1.0" encoding="UTF-8"?>
<svg xmlns="http://www.w3.org/2000/svg" xmlns:xlink="http://www.w3.org/1999/xlink" width="500pt" height="500pt" viewBox="0 0 500 500" version="1.1">
<g id="surface11921">
<path style=" stroke:none;fill-rule:nonzero;fill:rgb(9.019608%,9.019608%,9.411765%);fill-opacity:1;" d="M 250 41.667969 C 233.574219 41.667969 217.734375 43.742188 202.617188 47.261719 C 196.15625 48.769531 191.351562 54.195312 190.632812 60.789062 L 187.316406 91.023438 C 186.230469 100.929688 180.507812 109.695312 171.875 114.683594 C 163.257812 119.664062 152.796875 120.214844 143.675781 116.210938 L 143.65625 116.210938 L 115.886719 103.984375 C 109.816406 101.3125 102.71875 102.765625 98.183594 107.605469 C 76.597656 130.621094 60.027344 158.492188 50.617188 189.59375 C 48.699219 195.941406 50.988281 202.804688 56.335938 206.726562 L 80.972656 224.792969 C 89.019531 230.707031 93.75 240.027344 93.75 250 C 93.75 259.976562 89.019531 269.304688 80.972656 275.207031 L 56.335938 293.253906 C 50.988281 297.171875 48.699219 304.039062 50.617188 310.382812 C 60.027344 341.484375 76.582031 369.375 98.183594 392.394531 C 102.722656 397.230469 109.820312 398.671875 115.886719 395.996094 L 143.65625 383.769531 C 152.78125 379.753906 163.25 380.332031 171.875 385.316406 C 180.507812 390.304688 186.230469 399.070312 187.316406 408.976562 L 190.632812 439.207031 C 191.355469 445.792969 196.148438 451.203125 202.597656 452.71875 C 217.722656 456.25 233.574219 458.332031 250 458.332031 C 266.425781 458.332031 282.265625 456.257812 297.382812 452.738281 C 303.84375 451.230469 308.648438 445.804688 309.367188 439.207031 L 312.683594 408.976562 C 313.769531 399.070312 319.492188 390.304688 328.125 385.316406 C 336.742188 380.335938 347.203125 379.765625 356.324219 383.769531 L 384.113281 395.996094 C 390.179688 398.671875 397.277344 397.230469 401.816406 392.394531 C 423.402344 369.378906 439.972656 341.488281 449.382812 310.382812 C 451.300781 304.039062 449.011719 297.171875 443.664062 293.253906 L 419.027344 275.207031 C 410.980469 269.304688 406.25 259.976562 406.25 250 C 406.25 240.023438 410.980469 230.695312 419.027344 224.792969 L 443.664062 206.746094 C 449.011719 202.828125 451.300781 195.960938 449.382812 189.617188 C 439.972656 158.511719 423.402344 130.621094 401.816406 107.605469 C 397.277344 102.769531 390.179688 101.328125 384.113281 104.003906 L 356.324219 116.230469 C 347.203125 120.234375 336.742188 119.664062 328.125 114.683594 C 319.492188 109.695312 313.769531 100.929688 312.683594 91.023438 L 309.367188 60.789062 C 308.644531 54.207031 303.851562 48.796875 297.402344 47.28125 C 282.277344 43.75 266.425781 41.667969 250 41.667969 Z M 250 72.917969 C 260.148438 72.917969 269.894531 74.738281 279.664062 76.457031 L 281.617188 94.421875 C 283.78125 114.203125 295.28125 131.796875 312.5 141.742188 C 329.730469 151.699219 350.710938 152.84375 368.917969 144.835938 L 385.4375 137.574219 C 398.121094 152.804688 408.167969 170.011719 415.179688 188.863281 L 400.53125 199.605469 C 384.496094 211.371094 375 230.101562 375 250 C 375 269.898438 384.496094 288.628906 400.53125 300.394531 L 415.179688 311.136719 C 408.167969 329.988281 398.121094 347.195312 385.4375 362.425781 L 368.917969 355.164062 C 350.710938 347.15625 329.730469 348.300781 312.5 358.257812 C 295.28125 368.203125 283.78125 385.796875 281.617188 405.578125 L 279.664062 423.542969 C 269.894531 425.257812 260.144531 427.082031 250 427.082031 C 239.851562 427.082031 230.105469 425.261719 220.335938 423.542969 L 218.382812 405.578125 C 216.21875 385.796875 204.71875 368.203125 187.5 358.257812 C 170.269531 348.300781 149.289062 347.15625 131.082031 355.164062 L 114.5625 362.425781 C 101.875 347.195312 91.832031 329.988281 84.820312 311.136719 L 99.46875 300.394531 C 115.503906 288.628906 125 269.898438 125 250 C 125 230.101562 115.496094 211.359375 99.46875 199.585938 L 84.820312 188.84375 C 91.835938 169.984375 101.890625 152.789062 114.582031 137.554688 L 131.082031 144.816406 C 149.289062 152.824219 170.269531 151.699219 187.5 141.742188 C 204.71875 131.796875 216.21875 114.203125 218.382812 94.421875 L 220.335938 76.457031 C 230.105469 74.742188 239.855469 72.917969 250 72.917969 Z M 250 166.667969 C 204.160156 166.667969 166.667969 204.160156 166.667969 250 C 166.667969 295.839844 204.160156 333.332031 250 333.332031 C 295.839844 333.332031 333.332031 295.839844 333.332031 250 C 333.332031 204.160156 295.839844 166.667969 250 166.667969 Z M 250 197.917969 C 278.949219 197.917969 302.082031 221.050781 302.082031 250 C 302.082031 278.949219 278.949219 302.082031 250 302.082031 C 221.050781 302.082031 197.917969 278.949219 197.917969 250 C 197.917969 221.050781 221.050781 197.917969 250 197.917969 Z M 250 197.917969 "/>
</g>
</svg>
