<?xml version="1.0" encoding="UTF-8"?>
<svg xmlns="http://www.w3.org/2000/svg" xmlns:xlink="http://www.w3.org/1999/xlink" width="500pt" height="500pt" viewBox="0 0 500 500" version="1.1">
<g id="surface11911">
<path style=" stroke:none;fill-rule:nonzero;fill:rgb(9.019608%,9.019608%,9.411765%);fill-opacity:1;" d="M 250 41.667969 C 194.007812 41.667969 142.808594 63.351562 105.285156 99.609375 C 99.683594 104.722656 97.304688 112.480469 99.070312 119.855469 C 100.839844 127.234375 106.480469 133.066406 113.792969 135.082031 C 121.105469 137.101562 128.9375 134.984375 134.238281 129.558594 C 164.152344 100.648438 204.703125 83.332031 250 83.332031 C 342.292969 83.332031 416.667969 157.707031 416.667969 250 C 416.667969 342.292969 342.292969 416.667969 250 416.667969 C 205.191406 416.667969 164.117188 398.96875 134.195312 370.339844 C 125.882812 362.382812 112.691406 362.675781 104.734375 370.992188 C 96.78125 379.304688 97.070312 392.496094 105.386719 400.453125 C 142.882812 436.324219 194.226562 458.332031 250 458.332031 C 364.8125 458.332031 458.332031 364.8125 458.332031 250 C 458.332031 135.1875 364.8125 41.667969 250 41.667969 Z M 124.59375 166.464844 C 119.179688 166.625 114.042969 168.886719 110.269531 172.769531 L 47.769531 235.269531 C 39.636719 243.40625 39.636719 256.59375 47.769531 264.730469 L 110.269531 327.230469 C 115.496094 332.671875 123.253906 334.863281 130.554688 332.960938 C 137.855469 331.058594 143.558594 325.355469 145.460938 318.054688 C 147.363281 310.753906 145.171875 302.996094 139.730469 297.769531 L 112.792969 270.832031 L 302.082031 270.832031 C 309.597656 270.941406 316.585938 266.992188 320.371094 260.503906 C 324.160156 254.011719 324.160156 245.988281 320.371094 239.496094 C 316.585938 233.007812 309.597656 229.058594 302.082031 229.167969 L 112.792969 229.167969 L 139.730469 202.230469 C 145.890625 196.242188 147.746094 187.082031 144.394531 179.167969 C 141.046875 171.253906 133.183594 166.210938 124.59375 166.464844 Z M 124.59375 166.464844 "/>
</g>
</svg>
