<?xml version="1.0" encoding="UTF-8"?>
<svg xmlns="http://www.w3.org/2000/svg" xmlns:xlink="http://www.w3.org/1999/xlink" width="500pt" height="500pt" viewBox="0 0 500 500" version="1.1">
<g id="surface11916">
<path style=" stroke:none;fill-rule:nonzero;fill:rgb(9.019608%,9.019608%,9.411765%);fill-opacity:1;" d="M 250 41.667969 C 183.863281 41.667969 124.835938 72.675781 86.710938 120.828125 C 83.21875 125.203125 82.332031 131.109375 84.386719 136.316406 C 86.4375 141.523438 91.121094 145.234375 96.660156 146.042969 C 102.199219 146.851562 107.746094 144.640625 111.207031 140.238281 C 143.664062 99.246094 193.613281 72.917969 250 72.917969 C 347.980469 72.917969 427.082031 152.019531 427.082031 250 C 427.082031 347.980469 347.980469 427.082031 250 427.082031 C 193.613281 427.082031 143.664062 400.753906 111.207031 359.761719 C 107.746094 355.359375 102.199219 353.148438 96.660156 353.957031 C 91.121094 354.765625 86.4375 358.476562 84.386719 363.683594 C 82.332031 368.890625 83.21875 374.796875 86.710938 379.171875 C 124.835938 427.324219 183.863281 458.332031 250 458.332031 C 364.871094 458.332031 458.332031 364.871094 458.332031 250 C 458.332031 135.128906 364.871094 41.667969 250 41.667969 Z M 119.488281 171.734375 C 115.429688 171.851562 111.574219 173.542969 108.746094 176.453125 L 46.246094 238.953125 C 40.144531 245.054688 40.144531 254.945312 46.246094 261.046875 L 108.746094 323.546875 C 112.664062 327.628906 118.484375 329.273438 123.957031 327.847656 C 129.433594 326.417969 133.710938 322.140625 135.136719 316.667969 C 136.566406 311.191406 134.921875 305.371094 130.839844 301.453125 L 94.992188 265.605469 L 307.3125 265.421875 C 312.945312 265.492188 318.183594 262.527344 321.019531 257.65625 C 323.851562 252.785156 323.84375 246.765625 320.996094 241.902344 C 318.152344 237.039062 312.90625 234.085938 307.269531 234.171875 L 95.03125 234.355469 L 130.839844 198.546875 C 135.453125 194.054688 136.835938 187.191406 134.328125 181.261719 C 131.816406 175.328125 125.925781 171.546875 119.488281 171.734375 Z M 119.488281 171.734375 "/>
</g>
</svg>
