<?xml version="1.0" encoding="UTF-8"?>
<svg xmlns="http://www.w3.org/2000/svg" xmlns:xlink="http://www.w3.org/1999/xlink" width="500pt" height="500pt" viewBox="0 0 500 500" version="1.1">
<g id="surface11906">
<path style=" stroke:none;fill-rule:nonzero;fill:rgb(9.019608%,9.019608%,9.411765%);fill-opacity:1;" d="M 255.207031 41.667969 C 154.105469 41.667969 93.75 98.125 93.75 192.707031 L 93.75 229.390625 C 80.699219 239.066406 72.917969 254.1875 72.917969 270.832031 C 72.917969 295.386719 89.988281 316.011719 112.894531 321.492188 C 133.65625 403.816406 187.769531 458.332031 250 458.332031 C 258.625 458.332031 265.625 451.34375 265.625 442.707031 C 265.625 434.074219 258.625 427.082031 250 427.082031 C 200.980469 427.082031 156.117188 376.472656 140.910156 304.015625 C 139.390625 296.785156 133.027344 291.605469 125.628906 291.605469 C 125.277344 291.605469 124.828125 291.613281 124.390625 291.644531 C 113.179688 291.332031 104.167969 282.113281 104.167969 270.832031 C 104.167969 262.863281 108.734375 255.769531 116.089844 252.277344 C 121.535156 249.683594 125 244.191406 125 238.160156 L 125 210.144531 C 165.15625 199.601562 190.296875 178.167969 203.714844 163.1875 C 220.808594 173.613281 254.488281 187.5 312.5 187.5 C 334.863281 187.5 354.265625 185.488281 369.75 182.964844 C 372.203125 190.304688 375 201.0625 375 213.542969 L 375 317.707031 C 375 343.785156 354.203125 364.582031 328.125 364.582031 L 308.960938 364.582031 C 302.929688 351.867188 290.117188 343.757812 276.042969 343.75 C 255.90625 343.75 239.582031 360.074219 239.582031 380.207031 C 239.582031 400.34375 255.90625 416.667969 276.042969 416.667969 C 290.109375 416.648438 302.910156 408.542969 308.941406 395.832031 L 328.125 395.832031 C 369.332031 395.832031 403.269531 363.464844 405.984375 322.917969 L 406.25 322.917969 C 429.261719 322.917969 447.917969 304.261719 447.917969 281.25 L 447.917969 260.417969 C 447.917969 237.40625 429.261719 218.75 406.25 218.75 L 406.25 213.542969 C 406.25 198.359375 403.21875 184.871094 400.1875 175.171875 C 406.253906 171.792969 411.109375 166.535156 413.960938 160.074219 C 417.691406 151.605469 417.554688 141.96875 413.574219 133.667969 C 385.617188 75.1875 327.886719 41.667969 255.207031 41.667969 Z M 197.917969 250 C 186.410156 250 177.082031 259.328125 177.082031 270.832031 C 177.082031 282.339844 186.410156 291.667969 197.917969 291.667969 C 209.421875 291.667969 218.75 282.339844 218.75 270.832031 C 218.75 259.328125 209.421875 250 197.917969 250 Z M 302.082031 250 C 290.765625 250.023438 281.535156 259.082031 281.300781 270.394531 C 281.0625 281.710938 289.902344 291.148438 301.207031 291.644531 C 301.5 291.660156 301.792969 291.664062 302.082031 291.667969 C 313.589844 291.667969 322.917969 282.339844 322.917969 270.832031 C 322.917969 259.328125 313.589844 250 302.082031 250 Z M 302.082031 250 "/>
</g>
</svg>
