<?xml version="1.0" encoding="UTF-8"?>
<svg xmlns="http://www.w3.org/2000/svg" xmlns:xlink="http://www.w3.org/1999/xlink" width="500pt" height="500pt" viewBox="0 0 500 500" version="1.1">
<g id="surface11901">
<path style=" stroke:none;fill-rule:nonzero;fill:rgb(9.019608%,9.019608%,9.411765%);fill-opacity:1;" d="M 255.207031 41.667969 C 205.445312 41.667969 164.601562 55.664062 136.394531 82.378906 C 108.183594 109.089844 93.75 147.746094 93.75 192.707031 L 93.75 231.851562 C 81.871094 241.335938 72.917969 254.484375 72.917969 270.832031 C 72.917969 295.433594 90.671875 315.3125 113.75 320.636719 C 123.089844 357.671875 138.613281 390.660156 160.480469 414.875 C 184.460938 441.433594 215.695312 458.332031 250 458.332031 C 255.636719 458.414062 260.875 455.453125 263.71875 450.585938 C 266.558594 445.71875 266.558594 439.699219 263.71875 434.832031 C 260.875 429.964844 255.636719 427.003906 250 427.082031 C 225.855469 427.082031 203.148438 415.484375 183.675781 393.921875 C 164.203125 372.359375 148.675781 340.921875 140.929688 304.015625 C 139.410156 296.78125 133.023438 291.601562 125.628906 291.605469 C 122.4375 291.605469 122.242188 291.667969 125 291.667969 C 113.308594 291.667969 104.167969 282.523438 104.167969 270.832031 C 104.167969 262.460938 108.972656 255.640625 116.070312 252.277344 C 121.523438 249.691406 125 244.195312 125 238.160156 L 125 192.707031 C 125 154.253906 136.609375 125.203125 157.878906 105.0625 C 179.148438 84.921875 211.222656 72.917969 255.207031 72.917969 C 321.011719 72.917969 364.296875 103.085938 385.375 147.15625 C 385.578125 147.589844 385.542969 147.734375 384.765625 147.96875 C 373.242188 151.453125 345.371094 156.25 312.5 156.25 C 272.785156 156.25 246.371094 148.851562 230.121094 141.886719 C 213.875 134.921875 208.964844 129.578125 208.964844 129.578125 C 205.195312 125.808594 199.765625 124.21875 194.558594 125.367188 C 189.351562 126.511719 185.085938 130.230469 183.246094 135.234375 C 183.246094 135.234375 179.765625 146.0625 162.332031 159.484375 C 155.492188 164.753906 154.214844 174.574219 159.484375 181.417969 C 164.753906 188.257812 174.574219 189.535156 181.417969 184.265625 C 191.640625 176.390625 197.90625 168.359375 202.839844 161.457031 C 208.035156 165.058594 208.023438 166.425781 217.792969 170.613281 C 238.003906 179.273438 268.878906 187.5 312.5 187.5 C 334.851562 187.5 354.085938 185.601562 369.769531 183.023438 C 372.21875 190.367188 375 201.101562 375 213.542969 L 375 317.707031 C 375 343.785156 354.203125 364.582031 328.125 364.582031 L 308.960938 364.582031 C 302.929688 351.867188 290.117188 343.757812 276.042969 343.75 C 255.90625 343.75 239.582031 360.074219 239.582031 380.207031 C 239.582031 400.34375 255.90625 416.667969 276.042969 416.667969 C 290.109375 416.648438 302.910156 408.542969 308.941406 395.832031 L 328.125 395.832031 C 369.332031 395.832031 403.269531 363.464844 405.984375 322.917969 L 406.25 322.917969 C 429.261719 322.917969 447.917969 304.261719 447.917969 281.25 L 447.917969 260.417969 C 447.917969 237.40625 429.261719 218.75 406.25 218.75 L 406.25 213.542969 C 406.25 198.339844 403.203125 184.851562 400.167969 175.152344 C 414.246094 167.179688 420.910156 149.03125 413.574219 133.667969 C 387.488281 79.132812 330.964844 41.667969 255.207031 41.667969 Z M 197.917969 250 C 186.410156 250 177.082031 259.328125 177.082031 270.832031 C 177.082031 282.339844 186.410156 291.667969 197.917969 291.667969 C 209.421875 291.667969 218.75 282.339844 218.75 270.832031 C 218.75 259.328125 209.421875 250 197.917969 250 Z M 302.082031 250 C 290.578125 250 281.25 259.328125 281.25 270.832031 C 281.25 282.339844 290.578125 291.667969 302.082031 291.667969 C 313.589844 291.667969 322.917969 282.339844 322.917969 270.832031 C 322.917969 259.328125 313.589844 250 302.082031 250 Z M 302.082031 250 "/>
</g>
</svg>
