<?xml version="1.0" encoding="UTF-8"?>
<svg xmlns="http://www.w3.org/2000/svg" xmlns:xlink="http://www.w3.org/1999/xlink" width="500pt" height="500pt" viewBox="0 0 500 500" version="1.1">
<g id="surface11896">
<path style=" stroke:none;fill-rule:nonzero;fill:rgb(9.019608%,9.019608%,9.411765%);fill-opacity:1;" d="M 296.628906 62.277344 C 295.875 62.296875 295.117188 62.371094 294.371094 62.5 L 109.375 62.5 C 77.917969 62.5 52.082031 88.335938 52.082031 119.792969 L 52.082031 380.207031 C 52.082031 411.664062 77.917969 437.5 109.375 437.5 L 294.3125 437.5 C 295.988281 437.777344 297.699219 437.777344 299.378906 437.5 L 390.625 437.5 C 422.082031 437.5 447.917969 411.664062 447.917969 380.207031 L 447.917969 119.792969 C 447.917969 88.335938 422.082031 62.5 390.625 62.5 L 299.4375 62.5 C 298.511719 62.339844 297.570312 62.265625 296.628906 62.277344 Z M 109.375 93.75 L 281.25 93.75 L 281.25 406.25 L 109.375 406.25 C 94.808594 406.25 83.332031 394.773438 83.332031 380.207031 L 83.332031 119.792969 C 83.332031 105.226562 94.808594 93.75 109.375 93.75 Z M 312.5 93.75 L 390.625 93.75 C 405.191406 93.75 416.667969 105.226562 416.667969 119.792969 L 416.667969 380.207031 C 416.667969 394.773438 405.191406 406.25 390.625 406.25 L 312.5 406.25 Z M 197.753906 187.335938 C 191.394531 187.339844 185.667969 191.195312 183.277344 197.089844 C 180.886719 202.984375 182.308594 209.738281 186.871094 214.171875 L 207.03125 234.335938 L 130.25 234.171875 C 124.613281 234.078125 119.367188 237.027344 116.515625 241.886719 C 113.664062 246.746094 113.648438 252.761719 116.472656 257.636719 C 119.300781 262.511719 124.535156 265.484375 130.167969 265.421875 L 207.113281 265.585938 L 186.871094 285.828125 C 182.789062 289.746094 181.144531 295.566406 182.570312 301.042969 C 184 306.515625 188.273438 310.792969 193.75 312.222656 C 199.226562 313.648438 205.046875 312.003906 208.964844 307.921875 L 255.839844 261.046875 C 261.9375 254.945312 261.9375 245.054688 255.839844 238.953125 L 208.964844 192.078125 C 206.023438 189.046875 201.976562 187.335938 197.753906 187.335938 Z M 197.753906 187.335938 "/>
</g>
</svg>
