<?xml version="1.0" encoding="UTF-8"?>
<svg xmlns="http://www.w3.org/2000/svg" xmlns:xlink="http://www.w3.org/1999/xlink" width="500pt" height="500pt" viewBox="0 0 500 500" version="1.1">
<g id="surface11891">
<path style=" stroke:none;fill-rule:nonzero;fill:rgb(9.019608%,9.019608%,9.411765%);fill-opacity:1;" d="M 296.628906 62.277344 C 295.875 62.296875 295.117188 62.371094 294.371094 62.5 L 109.375 62.5 C 77.917969 62.5 52.082031 88.335938 52.082031 119.792969 L 52.082031 380.207031 C 52.082031 411.664062 77.917969 437.5 109.375 437.5 L 294.3125 437.5 C 295.988281 437.777344 297.699219 437.777344 299.378906 437.5 L 390.625 437.5 C 422.082031 437.5 447.917969 411.664062 447.917969 380.207031 L 447.917969 119.792969 C 447.917969 88.335938 422.082031 62.5 390.625 62.5 L 299.4375 62.5 C 298.511719 62.339844 297.570312 62.265625 296.628906 62.277344 Z M 109.375 93.75 L 281.25 93.75 L 281.25 406.25 L 109.375 406.25 C 94.808594 406.25 83.332031 394.773438 83.332031 380.207031 L 83.332031 119.792969 C 83.332031 105.226562 94.808594 93.75 109.375 93.75 Z M 312.5 93.75 L 390.625 93.75 C 405.191406 93.75 416.667969 105.226562 416.667969 119.792969 L 416.667969 380.207031 C 416.667969 394.773438 405.191406 406.25 390.625 406.25 L 312.5 406.25 Z M 176.777344 187.359375 C 172.71875 187.476562 168.867188 189.167969 166.035156 192.078125 L 119.160156 238.953125 C 113.0625 245.054688 113.0625 254.945312 119.160156 261.046875 L 166.035156 307.921875 C 169.953125 312.003906 175.773438 313.648438 181.25 312.222656 C 186.726562 310.792969 191 306.515625 192.429688 301.042969 C 193.855469 295.566406 192.210938 289.746094 188.128906 285.828125 L 167.886719 265.585938 L 244.832031 265.421875 C 250.464844 265.484375 255.699219 262.511719 258.527344 257.636719 C 261.351562 252.761719 261.335938 246.746094 258.484375 241.886719 C 255.632812 237.027344 250.386719 234.078125 244.75 234.171875 L 167.96875 234.335938 L 188.128906 214.171875 C 192.746094 209.679688 194.128906 202.816406 191.617188 196.886719 C 189.105469 190.953125 183.214844 187.171875 176.777344 187.359375 Z M 176.777344 187.359375 "/>
</g>
</svg>
