<?xml version="1.0" encoding="UTF-8"?>
<svg xmlns="http://www.w3.org/2000/svg" xmlns:xlink="http://www.w3.org/1999/xlink" width="500pt" height="500pt" viewBox="0 0 500 500" version="1.1">
<g id="surface11871">
<path style=" stroke:none;fill-rule:nonzero;fill:rgb(9.019608%,9.019608%,9.411765%);fill-opacity:1;" d="M 214.4375 410.5625 C 218.511719 414.636719 223.832031 416.667969 229.167969 416.667969 C 234.5 416.667969 239.824219 414.636719 243.894531 410.5625 C 252.03125 402.425781 252.03125 389.238281 243.894531 381.105469 L 133.625 270.832031 L 416.667969 270.832031 C 428.167969 270.832031 437.5 261.5 437.5 250 C 437.5 238.5 428.167969 229.167969 416.667969 229.167969 L 133.625 229.167969 L 243.894531 118.894531 C 252.03125 110.761719 252.03125 97.574219 243.894531 89.4375 C 235.761719 81.300781 222.574219 81.300781 214.4375 89.4375 L 68.605469 235.269531 C 60.46875 243.40625 60.46875 256.59375 68.605469 264.730469 Z M 214.4375 410.5625 "/>
</g>
</svg>
