<?xml version="1.0" encoding="UTF-8"?>
<svg xmlns="http://www.w3.org/2000/svg" xmlns:xlink="http://www.w3.org/1999/xlink" width="500pt" height="500pt" viewBox="0 0 500 500" version="1.1">
<g id="surface11876">
<path style=" stroke:none;fill-rule:nonzero;fill:rgb(9.019608%,9.019608%,9.411765%);fill-opacity:1;" d="M 223.652344 93.609375 C 219.59375 93.726562 215.742188 95.417969 212.910156 98.328125 L 67.078125 244.160156 C 60.976562 250.261719 60.976562 260.152344 67.078125 266.253906 L 212.910156 412.089844 C 216.828125 416.171875 222.648438 417.816406 228.125 416.386719 C 233.601562 414.960938 237.875 410.683594 239.304688 405.207031 C 240.730469 399.734375 239.085938 393.914062 235.003906 389.996094 L 115.84375 270.832031 L 421.875 270.832031 C 427.511719 270.914062 432.75 267.953125 435.59375 263.085938 C 438.433594 258.21875 438.433594 252.199219 435.59375 247.332031 C 432.75 242.464844 427.511719 239.503906 421.875 239.582031 L 115.84375 239.582031 L 235.003906 120.421875 C 239.621094 115.929688 241.003906 109.066406 238.492188 103.136719 C 235.980469 97.203125 230.089844 93.421875 223.652344 93.609375 Z M 223.652344 93.609375 "/>
</g>
</svg>
