<?xml version="1.0" encoding="UTF-8"?>
<svg xmlns="http://www.w3.org/2000/svg" xmlns:xlink="http://www.w3.org/1999/xlink" width="500pt" height="500pt" viewBox="0 0 500 500" version="1.1">
<g id="surface11866">
<path style=" stroke:none;fill-rule:nonzero;fill:rgb(9.019608%,9.019608%,9.411765%);fill-opacity:1;" d="M 130.207031 41.667969 C 104.503906 41.667969 83.332031 62.839844 83.332031 88.542969 L 83.332031 229.695312 C 71.460938 232.113281 62.5 242.632812 62.5 255.207031 L 62.5 369.792969 C 62.5 382.367188 71.460938 392.886719 83.332031 395.304688 L 83.332031 411.457031 C 83.332031 437.300781 104.363281 458.332031 130.207031 458.332031 L 365.113281 458.332031 L 344.015625 437.234375 C 341.023438 434.246094 338.746094 430.78125 336.976562 427.082031 L 130.207031 427.082031 C 121.59375 427.082031 114.582031 420.074219 114.582031 411.457031 L 114.582031 395.832031 L 336.976562 395.832031 C 338.746094 392.136719 341.035156 388.671875 344.015625 385.679688 C 350.898438 378.796875 360.050781 375 369.792969 375 C 375.292969 375 380.59375 376.207031 385.417969 378.5 L 385.417969 364.582031 L 93.75 364.582031 L 93.75 260.417969 L 406.25 260.417969 L 406.25 284.910156 C 411 282.640625 416.261719 281.25 421.875 281.25 C 427.488281 281.25 432.75 282.640625 437.5 284.910156 L 437.5 255.207031 C 437.5 242.632812 428.539062 232.113281 416.667969 229.695312 L 416.667969 192.707031 C 416.664062 188.566406 415.019531 184.589844 412.089844 181.660156 L 411.925781 181.5 L 276.671875 46.246094 C 273.742188 43.3125 269.769531 41.667969 265.625 41.667969 Z M 130.207031 72.917969 L 250 72.917969 L 250 161.457031 C 250 187.160156 271.171875 208.332031 296.875 208.332031 L 385.417969 208.332031 L 385.417969 229.167969 L 114.582031 229.167969 L 114.582031 88.542969 C 114.582031 79.722656 121.390625 72.917969 130.207031 72.917969 Z M 281.25 95.011719 L 363.320312 177.082031 L 296.875 177.082031 C 288.058594 177.082031 281.25 170.277344 281.25 161.457031 Z M 180.136719 270.832031 C 161.230469 270.832031 145.832031 289.519531 145.832031 312.5 C 145.832031 335.480469 161.230469 354.167969 180.136719 354.167969 C 195.199219 354.167969 204.207031 343.953125 207.152344 337.910156 C 209.683594 332.746094 207.550781 326.503906 202.371094 323.972656 C 197.207031 321.453125 190.976562 323.589844 188.457031 328.753906 C 188.433594 328.796875 185.957031 333.332031 180.136719 333.332031 C 172.96875 333.332031 166.667969 323.59375 166.667969 312.5 C 166.667969 301.40625 172.96875 291.667969 180.136719 291.667969 C 185.59375 291.667969 188.046875 295.5625 188.539062 296.40625 C 191.109375 301.449219 197.277344 303.523438 202.394531 301.027344 C 207.558594 298.503906 209.703125 292.253906 207.171875 287.089844 C 204.226562 281.046875 195.207031 270.832031 180.136719 270.832031 Z M 246.09375 270.832031 C 231.738281 270.832031 220.050781 282.519531 220.050781 296.875 C 220.050781 311.230469 231.738281 322.917969 246.09375 322.917969 L 255.207031 322.917969 C 258.082031 322.917969 260.417969 325.25 260.417969 328.125 C 260.417969 331 258.082031 333.332031 255.207031 333.332031 L 243.835938 333.332031 C 240.273438 333.332031 237.34375 330.6875 236.53125 329.875 C 232.457031 325.800781 225.875 325.800781 221.800781 329.875 C 217.730469 333.949219 217.730469 340.53125 221.800781 344.605469 C 224.675781 347.480469 232.574219 354.167969 243.835938 354.167969 L 255.207031 354.167969 C 269.5625 354.167969 281.25 342.480469 281.25 328.125 C 281.25 313.769531 269.5625 302.082031 255.207031 302.082031 L 246.09375 302.082031 C 243.21875 302.082031 240.886719 299.75 240.886719 296.875 C 240.886719 294 243.21875 291.667969 246.09375 291.667969 L 255.207031 291.667969 C 258.375 291.667969 260.855469 293.832031 260.863281 293.824219 C 264.9375 297.886719 271.519531 297.894531 275.59375 293.824219 C 279.667969 289.75 279.667969 283.167969 275.59375 279.09375 C 274.75 278.25 266.988281 270.832031 255.207031 270.832031 Z M 302.144531 270.832031 C 300.789062 270.824219 299.40625 271.070312 298.074219 271.625 C 292.761719 273.84375 290.25 279.945312 292.460938 285.257812 L 318.5 347.757812 C 320.117188 351.632812 323.917969 354.167969 328.125 354.167969 C 332.332031 354.167969 336.125 351.632812 337.75 347.757812 L 363.789062 285.257812 C 366 279.945312 363.488281 273.835938 358.175781 271.625 C 352.839844 269.40625 346.742188 271.941406 344.542969 277.242188 L 328.125 316.671875 L 311.707031 277.242188 C 310.050781 273.265625 306.207031 270.855469 302.144531 270.832031 Z M 421.875 302.082031 C 413.238281 302.082031 406.25 309.074219 406.25 317.707031 L 406.25 425.820312 L 380.839844 400.410156 C 374.734375 394.308594 364.847656 394.308594 358.746094 400.410156 C 352.640625 406.503906 352.640625 416.410156 358.746094 422.503906 L 410.828125 474.589844 C 413.871094 477.640625 417.875 479.167969 421.875 479.167969 C 425.875 479.167969 429.871094 477.640625 432.921875 474.589844 L 485.003906 422.503906 C 491.097656 416.402344 491.097656 406.515625 485.003906 400.410156 C 478.902344 394.308594 469.015625 394.308594 462.910156 400.410156 L 437.5 425.820312 L 437.5 317.707031 C 437.5 309.074219 430.511719 302.082031 421.875 302.082031 Z M 421.875 302.082031 "/>
</g>
</svg>
