<?xml version="1.0" encoding="UTF-8"?>
<svg xmlns="http://www.w3.org/2000/svg" xmlns:xlink="http://www.w3.org/1999/xlink" width="500pt" height="500pt" viewBox="0 0 500 500" version="1.1">
<g id="surface11856">
<path style=" stroke:none;fill-rule:nonzero;fill:rgb(9.019608%,9.019608%,9.411765%);fill-opacity:1;" d="M 213.542969 437.5 C 211.09375 437.5 208.644531 436.925781 206.386719 435.769531 C 201.1875 433.082031 197.917969 427.730469 197.917969 421.875 L 197.917969 264.5 L 92.332031 182.125 C 73.355469 167.175781 62.5 144.800781 62.5 120.71875 L 62.5 88.542969 C 62.5 74.175781 74.1875 62.5 88.542969 62.5 L 411.457031 62.5 C 425.8125 62.5 437.5 74.175781 437.5 88.542969 L 437.5 120.71875 C 437.5 144.8125 426.644531 167.175781 407.730469 182.082031 L 302.082031 264.5 L 302.082031 369.792969 C 302.082031 374.832031 299.644531 379.574219 295.542969 382.511719 L 222.625 434.59375 C 219.925781 436.519531 216.738281 437.5 213.542969 437.5 Z M 213.542969 437.5 "/>
</g>
</svg>
