<?xml version="1.0" encoding="UTF-8"?>
<svg xmlns="http://www.w3.org/2000/svg" xmlns:xlink="http://www.w3.org/1999/xlink" width="500pt" height="500pt" viewBox="0 0 500 500" version="1.1">
<g id="surface11851">
<path style=" stroke:none;fill-rule:nonzero;fill:rgb(9.019608%,9.019608%,9.411765%);fill-opacity:1;" d="M 88.542969 62.5 C 74.335938 62.5 62.5 74.335938 62.5 88.542969 L 62.5 120.726562 C 62.5 144.652344 73.496094 167.28125 92.285156 182.089844 C 92.304688 182.101562 92.324219 182.117188 92.347656 182.128906 L 197.917969 264.507812 L 197.917969 421.875 C 197.917969 427.726562 201.191406 433.082031 206.390625 435.761719 C 211.589844 438.4375 217.851562 437.988281 222.617188 434.589844 L 295.53125 382.507812 C 299.640625 379.574219 302.082031 374.839844 302.082031 369.792969 L 302.082031 264.507812 L 407.652344 182.128906 C 407.675781 182.117188 407.695312 182.101562 407.714844 182.089844 C 426.503906 167.28125 437.5 144.652344 437.5 120.726562 L 437.5 88.542969 C 437.5 74.335938 425.664062 62.5 411.457031 62.5 Z M 93.75 93.75 L 406.25 93.75 L 406.25 120.726562 C 406.25 135.097656 399.679688 148.632812 388.386719 157.53125 L 276.855469 244.546875 C 273.054688 247.507812 270.832031 252.058594 270.832031 256.875 L 270.832031 361.753906 L 229.167969 391.519531 L 229.167969 256.875 C 229.167969 252.058594 226.945312 247.507812 223.144531 244.546875 L 111.613281 157.53125 C 100.320312 148.632812 93.75 135.097656 93.75 120.726562 Z M 93.75 93.75 "/>
</g>
</svg>
