<?xml version="1.0" encoding="UTF-8"?>
<svg xmlns="http://www.w3.org/2000/svg" xmlns:xlink="http://www.w3.org/1999/xlink" width="500pt" height="500pt" viewBox="0 0 500 500" version="1.1">
<g id="surface11841">
<path style=" stroke:none;fill-rule:nonzero;fill:rgb(9.019608%,9.019608%,9.411765%);fill-opacity:1;" d="M 433.480469 198.136719 C 441.625 197.519531 447.917969 190.730469 447.917969 182.550781 L 447.917969 151.042969 C 447.917969 113.707031 417.542969 83.332031 380.207031 83.332031 L 332.46875 83.332031 L 314.875 54.011719 C 306.449219 39.96875 291.050781 31.25 274.675781 31.25 L 216.105469 31.25 C 199.917969 31.25 184.605469 39.824219 176.15625 53.613281 L 157.925781 83.332031 L 119.792969 83.332031 C 82.457031 83.332031 52.082031 113.707031 52.082031 151.042969 L 52.082031 348.957031 C 52.082031 386.292969 82.457031 416.667969 119.792969 416.667969 L 188.4375 416.667969 C 193.40625 446.21875 219.042969 468.75 250 468.75 C 280.957031 468.75 306.59375 446.21875 311.5625 416.667969 L 380.207031 416.667969 C 417.542969 416.667969 447.917969 386.292969 447.917969 348.957031 L 447.917969 317.449219 C 447.917969 309.28125 441.625 302.480469 433.480469 301.863281 C 406.53125 299.800781 385.417969 277.03125 385.417969 250 C 385.417969 222.96875 406.53125 200.199219 433.480469 198.136719 Z M 197.917969 307.292969 C 197.917969 315.925781 190.925781 322.917969 182.292969 322.917969 C 173.65625 322.917969 166.667969 315.925781 166.667969 307.292969 L 166.667969 192.707031 C 166.667969 184.074219 173.65625 177.082031 182.292969 177.082031 C 190.925781 177.082031 197.917969 184.074219 197.917969 192.707031 Z M 270.832031 322.917969 L 244.792969 322.917969 C 236.15625 322.917969 229.167969 315.925781 229.167969 307.292969 L 229.167969 192.707031 C 229.167969 184.074219 236.15625 177.082031 244.792969 177.082031 L 270.832031 177.082031 C 311.042969 177.082031 343.75 209.792969 343.75 250 C 343.75 290.207031 311.042969 322.917969 270.832031 322.917969 Z M 312.5 250 C 312.5 272.980469 293.8125 291.667969 270.832031 291.667969 L 260.417969 291.667969 L 260.417969 208.332031 L 270.832031 208.332031 C 293.8125 208.332031 312.5 227.019531 312.5 250 Z M 312.5 250 "/>
</g>
</svg>
