<?xml version="1.0" encoding="UTF-8"?>
<svg xmlns="http://www.w3.org/2000/svg" xmlns:xlink="http://www.w3.org/1999/xlink" width="500pt" height="500pt" viewBox="0 0 500 500" version="1.1">
<g id="surface11846">
<path style=" stroke:none;fill-rule:nonzero;fill:rgb(9.019608%,9.019608%,9.411765%);fill-opacity:1;" d="M 216.105469 31.25 C 199.828125 31.25 184.679688 39.726562 176.167969 53.609375 L 157.917969 83.332031 L 119.792969 83.332031 C 82.582031 83.332031 52.082031 113.832031 52.082031 151.042969 L 52.082031 348.957031 C 52.082031 386.167969 82.582031 416.667969 119.792969 416.667969 L 181.457031 416.667969 C 190.613281 446.496094 217.308594 468.75 250 468.75 C 282.691406 468.75 309.386719 446.496094 318.542969 416.667969 L 380.207031 416.667969 C 417.417969 416.667969 447.917969 386.167969 447.917969 348.957031 L 447.917969 306.761719 C 447.90625 298.683594 441.742188 291.945312 433.695312 291.21875 C 412.40625 289.296875 395.832031 271.644531 395.832031 249.734375 C 395.832031 227.828125 412.40625 210.195312 433.695312 208.273438 C 441.75 207.546875 447.917969 200.792969 447.917969 192.707031 L 447.917969 151.042969 C 447.917969 113.832031 417.417969 83.332031 380.207031 83.332031 L 332.480469 83.332031 L 314.878906 53.996094 C 314.875 53.996094 314.867188 53.996094 314.859375 53.996094 C 306.394531 39.917969 291.121094 31.25 274.679688 31.25 Z M 216.105469 62.5 L 274.679688 62.5 C 280.191406 62.5 285.238281 65.355469 288.085938 70.089844 L 310.222656 106.996094 C 313.046875 111.703125 318.136719 114.585938 323.628906 114.582031 L 380.207031 114.582031 C 400.519531 114.582031 416.667969 130.730469 416.667969 151.042969 L 416.667969 181.191406 C 386.835938 190.351562 364.582031 217.046875 364.582031 249.734375 C 364.582031 282.425781 386.835938 309.121094 416.667969 318.277344 L 416.667969 348.957031 C 416.667969 369.269531 400.519531 385.417969 380.207031 385.417969 L 307.027344 385.417969 C 298.941406 385.417969 292.191406 391.585938 291.464844 399.636719 C 289.542969 420.925781 271.910156 437.5 250 437.5 C 228.089844 437.5 210.457031 420.925781 208.535156 399.636719 C 207.808594 391.585938 201.058594 385.417969 192.972656 385.417969 L 119.792969 385.417969 C 99.480469 385.417969 83.332031 369.269531 83.332031 348.957031 L 83.332031 151.042969 C 83.332031 130.730469 99.480469 114.582031 119.792969 114.582031 L 166.667969 114.582031 C 172.101562 114.585938 177.148438 111.765625 179.992188 107.136719 L 202.800781 69.945312 C 205.640625 65.308594 210.652344 62.5 216.105469 62.5 Z M 182.292969 177.082031 C 173.65625 177.082031 166.667969 184.074219 166.667969 192.707031 L 166.667969 307.292969 C 166.667969 315.925781 173.65625 322.917969 182.292969 322.917969 C 190.925781 322.917969 197.917969 315.925781 197.917969 307.292969 L 197.917969 192.707031 C 197.917969 184.074219 190.925781 177.082031 182.292969 177.082031 Z M 244.792969 177.082031 C 236.15625 177.082031 229.167969 184.074219 229.167969 192.707031 L 229.167969 307.292969 C 229.167969 315.925781 236.15625 322.917969 244.792969 322.917969 L 270.832031 322.917969 C 311.042969 322.917969 343.75 290.207031 343.75 250 C 343.75 209.792969 311.042969 177.082031 270.832031 177.082031 Z M 260.417969 208.332031 L 270.832031 208.332031 C 293.8125 208.332031 312.5 227.019531 312.5 250 C 312.5 272.980469 293.8125 291.667969 270.832031 291.667969 L 260.417969 291.667969 Z M 260.417969 208.332031 "/>
</g>
</svg>
