<?xml version="1.0" encoding="UTF-8"?>
<svg xmlns="http://www.w3.org/2000/svg" xmlns:xlink="http://www.w3.org/1999/xlink" width="500pt" height="500pt" viewBox="0 0 500 500" version="1.1">
<g id="surface11831">
<path style=" stroke:none;fill-rule:nonzero;fill:rgb(9.019608%,9.019608%,9.411765%);fill-opacity:1;" d="M 56.722656 41.6875 C 51.675781 41.875 47.035156 44.488281 44.253906 48.703125 C 41.476562 52.917969 40.90625 58.21875 42.726562 62.925781 L 100.015625 210.855469 C 102.023438 216.019531 106.613281 219.734375 112.082031 220.621094 L 267.71875 245.890625 C 271.597656 246.519531 271.21875 247.636719 271.21875 250 C 271.21875 252.363281 271.597656 253.480469 267.71875 254.109375 L 112.082031 279.378906 C 106.613281 280.265625 102.023438 283.980469 100.015625 289.144531 L 42.726562 437.074219 C 40.402344 443.089844 42.015625 449.914062 46.785156 454.253906 C 51.554688 458.59375 58.496094 459.558594 64.269531 456.683594 L 449.6875 263.976562 C 454.980469 261.332031 458.324219 255.917969 458.324219 250 C 458.324219 244.082031 454.980469 238.667969 449.6875 236.023438 L 64.269531 43.316406 C 61.929688 42.148438 59.335938 41.589844 56.722656 41.6875 Z M 56.722656 41.6875 "/>
</g>
</svg>
