<?xml version="1.0" encoding="UTF-8"?>
<svg xmlns="http://www.w3.org/2000/svg" xmlns:xlink="http://www.w3.org/1999/xlink" width="500pt" height="500pt" viewBox="0 0 500 500" version="1.1">
<g id="surface11836">
<path style=" stroke:none;fill-rule:nonzero;fill:rgb(9.019608%,9.019608%,9.411765%);fill-opacity:1;" d="M 56.722656 41.6875 C 51.628906 41.871094 46.945312 44.53125 44.171875 48.808594 C 41.402344 53.085938 40.890625 58.445312 42.804688 63.171875 L 118.550781 250 L 42.804688 436.828125 C 40.359375 442.851562 41.898438 449.761719 46.671875 454.179688 C 51.445312 458.59375 58.453125 459.59375 64.269531 456.683594 L 449.6875 263.976562 C 454.980469 261.332031 458.324219 255.917969 458.324219 250 C 458.324219 244.082031 454.980469 238.667969 449.6875 236.023438 L 64.269531 43.316406 C 61.929688 42.148438 59.335938 41.589844 56.722656 41.6875 Z M 87.320312 89.78125 L 407.777344 250 L 87.320312 410.21875 L 145.957031 265.625 L 286.457031 265.625 C 292.09375 265.703125 297.335938 262.742188 300.175781 257.878906 C 303.015625 253.011719 303.015625 246.988281 300.175781 242.121094 C 297.335938 237.257812 292.09375 234.296875 286.457031 234.375 L 145.957031 234.375 Z M 87.320312 89.78125 "/>
</g>
</svg>
