<?xml version="1.0" encoding="UTF-8"?>
<svg xmlns="http://www.w3.org/2000/svg" xmlns:xlink="http://www.w3.org/1999/xlink" width="500pt" height="500pt" viewBox="0 0 500 500" version="1.1">
<g id="surface11806">
<path style=" stroke:none;fill-rule:nonzero;fill:rgb(9.019608%,9.019608%,9.411765%);fill-opacity:1;" d="M 249.695312 51.796875 C 238.195312 51.96875 229.007812 61.417969 229.167969 72.917969 L 229.167969 376.789062 L 118.894531 266.519531 C 113.671875 261.078125 105.910156 258.886719 98.609375 260.789062 C 91.308594 262.691406 85.609375 268.394531 83.707031 275.695312 C 81.800781 282.996094 83.996094 290.753906 89.4375 295.980469 L 235.269531 441.8125 C 243.40625 449.945312 256.59375 449.945312 264.730469 441.8125 L 410.5625 295.980469 C 416.003906 290.753906 418.199219 282.996094 416.292969 275.695312 C 414.390625 268.394531 408.691406 262.691406 401.390625 260.789062 C 394.089844 258.886719 386.328125 261.078125 381.105469 266.519531 L 270.832031 376.789062 L 270.832031 72.917969 C 270.910156 67.289062 268.707031 61.871094 264.726562 57.890625 C 260.742188 53.914062 255.324219 51.714844 249.695312 51.796875 Z M 249.695312 51.796875 "/>
</g>
</svg>
