<?xml version="1.0" encoding="UTF-8"?>
<svg xmlns="http://www.w3.org/2000/svg" xmlns:xlink="http://www.w3.org/1999/xlink" width="500pt" height="500pt" viewBox="0 0 500 500" version="1.1">
<g id="surface11816">
<path style=" stroke:none;fill-rule:nonzero;fill:rgb(9.019608%,9.019608%,9.411765%);fill-opacity:1;" d="M 254.964844 62.277344 C 246.34375 62.410156 239.460938 69.503906 239.582031 78.125 L 239.582031 384.15625 L 120.421875 264.996094 C 116.503906 260.914062 110.683594 259.269531 105.207031 260.695312 C 99.734375 262.125 95.457031 266.398438 94.027344 271.875 C 92.601562 277.351562 94.246094 283.171875 98.328125 287.089844 L 244.160156 432.921875 C 250.261719 439.023438 260.152344 439.023438 266.253906 432.921875 L 412.089844 287.089844 C 416.171875 283.171875 417.816406 277.351562 416.386719 271.875 C 414.960938 266.398438 410.683594 262.125 405.207031 260.695312 C 399.734375 259.269531 393.914062 260.914062 389.996094 264.996094 L 270.832031 384.15625 L 270.832031 78.125 C 270.894531 73.898438 269.242188 69.832031 266.25 66.84375 C 263.261719 63.859375 259.1875 62.210938 254.964844 62.277344 Z M 254.964844 62.277344 "/>
</g>
</svg>
