<?xml version="1.0" encoding="UTF-8"?>
<svg xmlns="http://www.w3.org/2000/svg" xmlns:xlink="http://www.w3.org/1999/xlink" width="500pt" height="500pt" viewBox="0 0 500 500" version="1.1">
<g id="surface11801">
<path style=" stroke:none;fill-rule:nonzero;fill:rgb(9.019608%,9.019608%,9.411765%);fill-opacity:1;" d="M 118.894531 233.480469 L 229.167969 123.21875 L 229.167969 427.082031 C 229.167969 438.582031 238.5 447.917969 250 447.917969 C 261.5 447.917969 270.832031 438.582031 270.832031 427.082031 L 270.832031 123.21875 L 381.105469 233.488281 C 385.167969 237.550781 390.5 239.582031 395.832031 239.582031 C 401.167969 239.582031 406.5 237.550781 410.5625 233.480469 C 418.699219 225.34375 418.699219 212.15625 410.5625 204.019531 L 264.730469 58.1875 C 256.605469 50.050781 243.394531 50.050781 235.269531 58.1875 L 89.4375 204.019531 C 81.300781 212.15625 81.300781 225.34375 89.4375 233.480469 C 97.5625 241.613281 110.769531 241.613281 118.894531 233.480469 Z M 118.894531 233.480469 "/>
</g>
</svg>
