<?xml version="1.0" encoding="UTF-8"?>
<svg xmlns="http://www.w3.org/2000/svg" xmlns:xlink="http://www.w3.org/1999/xlink" width="500pt" height="500pt" viewBox="0 0 500 500" version="1.1">
<g id="surface11811">
<path style=" stroke:none;fill-rule:nonzero;fill:rgb(9.019608%,9.019608%,9.411765%);fill-opacity:1;" d="M 244.566406 62.5 C 240.5 62.558594 236.617188 64.203125 233.746094 67.078125 L 87.910156 212.910156 C 83.828125 216.828125 82.183594 222.648438 83.613281 228.125 C 85.039062 233.601562 89.316406 237.875 94.792969 239.304688 C 100.265625 240.730469 106.085938 239.085938 110.003906 235.003906 L 229.167969 115.84375 L 229.167969 421.875 C 229.085938 427.511719 232.046875 432.75 236.914062 435.59375 C 241.78125 438.433594 247.800781 438.433594 252.667969 435.59375 C 257.535156 432.75 260.496094 427.511719 260.417969 421.875 L 260.417969 115.84375 L 379.578125 235.003906 C 383.496094 239.085938 389.316406 240.730469 394.792969 239.304688 C 400.265625 237.875 404.542969 233.601562 405.972656 228.125 C 407.398438 222.648438 405.753906 216.828125 401.671875 212.910156 L 255.839844 67.078125 C 252.855469 64.09375 248.789062 62.441406 244.566406 62.5 Z M 244.566406 62.5 "/>
</g>
</svg>
