<?xml version="1.0" encoding="UTF-8"?>
<svg xmlns="http://www.w3.org/2000/svg" xmlns:xlink="http://www.w3.org/1999/xlink" width="500pt" height="500pt" viewBox="0 0 500 500" version="1.1">
<g id="surface11791">
<path style=" stroke:none;fill-rule:nonzero;fill:rgb(9.019608%,9.019608%,9.411765%);fill-opacity:1;" d="M 88.542969 83.332031 C 62.699219 83.332031 41.667969 104.363281 41.667969 130.207031 L 41.667969 369.792969 C 41.667969 374.136719 42.445312 378.253906 43.558594 382.242188 C 43.984375 380.660156 44.417969 379.074219 45.003906 377.523438 L 57.699219 343.75 L 68.910156 313.882812 L 97.25 238.445312 C 106.355469 214.195312 129.867188 197.917969 155.761719 197.917969 L 437.5 197.917969 L 437.5 182.292969 C 437.5 156.449219 416.46875 135.417969 390.625 135.417969 L 250.449219 135.417969 L 203.878906 96.597656 C 193.605469 88.035156 180.582031 83.332031 167.214844 83.332031 Z M 155.761719 229.167969 C 142.742188 229.167969 131.078125 237.242188 126.503906 249.429688 L 74.28125 388.507812 C 69.15625 402.125 79.21875 416.667969 93.769531 416.667969 L 396.320312 416.667969 C 409.34375 416.667969 421.003906 408.589844 425.578125 396.402344 L 477.761719 257.445312 C 482.980469 243.8125 472.917969 229.167969 458.3125 229.167969 Z M 155.761719 229.167969 "/>
</g>
</svg>
