<?xml version="1.0" encoding="UTF-8"?>
<svg xmlns="http://www.w3.org/2000/svg" xmlns:xlink="http://www.w3.org/1999/xlink" width="500pt" height="500pt" viewBox="0 0 500 500" version="1.1">
<g id="surface11796">
<path style=" stroke:none;fill-rule:nonzero;fill:rgb(9.019608%,9.019608%,9.411765%);fill-opacity:1;" d="M 88.542969 83.332031 C 62.839844 83.332031 41.667969 104.503906 41.667969 130.207031 L 41.667969 379.230469 L 41.828125 379.230469 C 41.527344 398.71875 57.378906 416.667969 78.144531 416.667969 L 380.695312 416.667969 C 400.175781 416.667969 417.738281 404.511719 424.582031 386.269531 L 476.746094 247.394531 L 476.746094 247.355469 C 485.660156 223.976562 467.71875 197.917969 442.6875 197.917969 L 437.5 197.917969 L 437.5 182.292969 C 437.5 156.589844 416.328125 135.417969 390.625 135.417969 L 250.449219 135.417969 L 203.898438 96.617188 C 203.890625 96.617188 203.882812 96.617188 203.878906 96.617188 C 193.585938 88.042969 180.617188 83.332031 167.214844 83.332031 Z M 88.542969 114.582031 L 167.214844 114.582031 C 173.316406 114.582031 179.191406 116.722656 183.878906 120.625 L 234.78125 163.046875 C 237.59375 165.386719 241.132812 166.667969 244.792969 166.667969 L 390.625 166.667969 C 399.441406 166.667969 406.25 173.472656 406.25 182.292969 L 406.25 197.917969 L 140.136719 197.917969 C 120.65625 197.917969 103.097656 210.074219 96.253906 228.3125 L 72.917969 290.445312 L 72.917969 130.207031 C 72.917969 121.390625 79.722656 114.582031 88.542969 114.582031 Z M 140.136719 229.167969 L 442.6875 229.167969 C 446.851562 229.167969 449.035156 232.34375 447.550781 236.226562 C 447.535156 236.261719 447.523438 236.292969 447.511719 236.328125 L 395.324219 375.285156 C 393.023438 381.421875 387.257812 385.417969 380.695312 385.417969 L 78.144531 385.417969 C 74.003906 385.417969 71.808594 382.261719 73.261719 378.398438 C 73.269531 378.390625 73.277344 378.382812 73.28125 378.378906 L 125.507812 239.296875 C 127.8125 233.164062 133.574219 229.167969 140.136719 229.167969 Z M 140.136719 229.167969 "/>
</g>
</svg>
