<?xml version="1.0" encoding="UTF-8"?>
<svg xmlns="http://www.w3.org/2000/svg" xmlns:xlink="http://www.w3.org/1999/xlink" width="500pt" height="500pt" viewBox="0 0 500 500" version="1.1">
<g id="surface11786">
<path style=" stroke:none;fill-rule:nonzero;fill:rgb(9.019608%,9.019608%,9.411765%);fill-opacity:1;" d="M 402.675781 193.082031 L 428.09375 167.667969 C 454.488281 141.269531 454.488281 98.3125 428.09375 71.90625 C 415.3125 59.136719 398.324219 52.113281 380.207031 52.113281 C 362.09375 52.113281 345.09375 59.144531 332.324219 71.917969 L 306.917969 97.324219 Z M 284.824219 119.417969 L 96.605469 307.636719 C 92.59375 311.644531 89.542969 316.59375 87.769531 321.957031 L 52.875 427.386719 C 51.011719 432.988281 52.480469 439.167969 56.65625 443.34375 C 59.644531 446.324219 63.625 447.917969 67.707031 447.917969 C 69.355469 447.917969 71.011719 447.65625 72.625 447.125 L 178.019531 412.21875 C 183.40625 410.449219 188.363281 407.394531 192.375 403.375 L 380.582031 215.167969 Z M 284.824219 119.417969 "/>
</g>
</svg>
