<?xml version="1.0" encoding="UTF-8"?>
<svg xmlns="http://www.w3.org/2000/svg" xmlns:xlink="http://www.w3.org/1999/xlink" width="500pt" height="500pt" viewBox="0 0 500 500" version="1.1">
<g id="surface11781">
<path style=" stroke:none;fill-rule:nonzero;fill:rgb(9.019608%,9.019608%,9.411765%);fill-opacity:1;" d="M 375 52.183594 C 356.304688 52.183594 337.613281 59.273438 323.445312 73.445312 L 92.875 303.996094 C 88.5 308.371094 85.296875 313.8125 83.597656 319.785156 L 52.695312 428 C 51.140625 433.453125 52.664062 439.316406 56.671875 443.328125 C 60.683594 447.335938 66.546875 448.859375 72 447.304688 L 180.238281 416.402344 C 180.242188 416.394531 180.25 416.386719 180.257812 416.382812 C 186.191406 414.675781 191.617188 411.511719 196.003906 407.125 L 426.554688 176.554688 C 454.898438 148.210938 454.898438 101.789062 426.554688 73.445312 C 412.386719 59.273438 393.695312 52.183594 375 52.183594 Z M 375 83.25 C 385.632812 83.25 396.25 87.347656 404.4375 95.539062 C 404.445312 95.539062 404.453125 95.539062 404.460938 95.539062 C 420.863281 111.945312 420.863281 138.054688 404.460938 154.460938 L 384.257812 174.664062 L 325.335938 115.742188 L 345.539062 95.539062 C 353.726562 87.347656 364.367188 83.25 375 83.25 Z M 303.242188 137.835938 L 362.164062 196.757812 L 173.890625 385.03125 C 173.277344 385.636719 172.503906 386.101562 171.628906 386.351562 L 90.453125 409.546875 L 113.648438 328.347656 C 113.648438 328.34375 113.648438 328.335938 113.648438 328.328125 C 113.886719 327.488281 114.324219 326.738281 114.96875 326.089844 Z M 303.242188 137.835938 "/>
</g>
</svg>
