<?xml version="1.0" encoding="UTF-8"?>
<svg xmlns="http://www.w3.org/2000/svg" xmlns:xlink="http://www.w3.org/1999/xlink" width="500pt" height="500pt" viewBox="0 0 500 500" version="1.1">
<g id="surface11771">
<path style=" stroke:none;fill-rule:nonzero;fill:rgb(9.019608%,9.019608%,9.411765%);fill-opacity:1;" d="M 213.542969 41.667969 C 208.433594 41.601562 203.617188 44.035156 200.640625 48.1875 C 197.664062 52.339844 196.90625 57.683594 198.609375 62.5 L 152.507812 62.5 C 133.296875 62.5 115.484375 72.042969 104.839844 88.011719 L 80.179688 125 L 78.125 125 C 72.488281 124.921875 67.25 127.882812 64.40625 132.746094 C 61.566406 137.613281 61.566406 143.636719 64.40625 148.503906 C 67.25 153.367188 72.488281 156.328125 78.125 156.25 L 421.875 156.25 C 427.511719 156.328125 432.75 153.367188 435.59375 148.503906 C 438.433594 143.636719 438.433594 137.613281 435.59375 132.746094 C 432.75 127.882812 427.511719 124.921875 421.875 125 L 419.820312 125 L 395.160156 88.011719 C 384.515625 72.042969 366.691406 62.5 347.492188 62.5 L 301.390625 62.5 C 303.09375 57.683594 302.335938 52.339844 299.359375 48.1875 C 296.382812 44.035156 291.566406 41.601562 286.457031 41.667969 Z M 93.464844 187.5 L 115.886719 396.730469 C 119.011719 425.914062 143.496094 447.917969 172.851562 447.917969 L 327.148438 447.917969 C 356.492188 447.917969 380.980469 425.917969 384.113281 396.730469 L 406.535156 187.5 Z M 93.464844 187.5 "/>
</g>
</svg>
