<?xml version="1.0" encoding="UTF-8"?>
<svg xmlns="http://www.w3.org/2000/svg" xmlns:xlink="http://www.w3.org/1999/xlink" width="500pt" height="500pt" viewBox="0 0 500 500" version="1.1">
<g id="surface11776">
<path style=" stroke:none;fill-rule:nonzero;fill:rgb(9.019608%,9.019608%,9.411765%);fill-opacity:1;" d="M 213.542969 41.667969 C 208.433594 41.601562 203.617188 44.035156 200.640625 48.1875 C 197.664062 52.339844 196.90625 57.683594 198.609375 62.5 L 152.507812 62.5 C 133.367188 62.5 115.445312 72.078125 104.839844 88.011719 L 80.179688 125 L 78.125 125 C 72.488281 124.921875 67.25 127.882812 64.40625 132.746094 C 61.566406 137.613281 61.566406 143.636719 64.40625 148.503906 C 67.25 153.367188 72.488281 156.328125 78.125 156.25 L 86.078125 156.25 C 87.421875 156.453125 88.78125 156.480469 90.128906 156.332031 L 115.886719 396.730469 C 118.992188 425.710938 143.707031 447.917969 172.851562 447.917969 L 327.128906 447.917969 C 356.273438 447.917969 380.988281 425.710938 384.09375 396.730469 L 409.871094 156.332031 C 411.191406 156.472656 412.523438 156.445312 413.839844 156.25 L 421.875 156.25 C 427.511719 156.328125 432.75 153.367188 435.59375 148.503906 C 438.433594 143.636719 438.433594 137.613281 435.59375 132.746094 C 432.75 127.882812 427.511719 124.921875 421.875 125 L 419.820312 125 L 395.160156 88.011719 C 384.542969 72.085938 366.625 62.5 347.492188 62.5 L 301.390625 62.5 C 303.09375 57.683594 302.335938 52.339844 299.359375 48.1875 C 296.382812 44.035156 291.566406 41.601562 286.457031 41.667969 Z M 152.507812 93.75 L 347.492188 93.75 C 356.214844 93.75 364.320312 98.085938 369.160156 105.347656 L 382.261719 125 L 117.738281 125 L 130.839844 105.347656 C 130.847656 105.339844 130.851562 105.332031 130.859375 105.328125 C 135.6875 98.074219 143.769531 93.75 152.507812 93.75 Z M 121.5625 156.25 L 378.4375 156.25 L 353.027344 393.390625 C 351.59375 406.761719 340.566406 416.667969 327.128906 416.667969 L 172.851562 416.667969 C 159.414062 416.667969 148.40625 406.761719 146.972656 393.390625 Z M 121.5625 156.25 "/>
</g>
</svg>
