<?xml version="1.0" encoding="UTF-8"?>
<svg xmlns="http://www.w3.org/2000/svg" xmlns:xlink="http://www.w3.org/1999/xlink" width="500pt" height="500pt" viewBox="0 0 500 500" version="1.1">
<g id="surface11766">
<path style=" stroke:none;fill-rule:nonzero;fill:rgb(9.019608%,9.019608%,9.411765%);fill-opacity:1;" d="M 249.695312 62.214844 C 238.195312 62.382812 229.007812 71.835938 229.167969 83.332031 L 229.167969 283.039062 L 202.230469 256.105469 C 198.300781 252.066406 192.910156 249.792969 187.277344 249.796875 C 178.800781 249.808594 171.179688 254.949219 167.996094 262.800781 C 164.808594 270.652344 166.699219 279.652344 172.769531 285.5625 L 235.269531 348.0625 C 243.40625 356.195312 256.59375 356.195312 264.730469 348.0625 L 327.230469 285.5625 C 332.671875 280.335938 334.863281 272.578125 332.960938 265.277344 C 331.058594 257.976562 325.355469 252.273438 318.054688 250.371094 C 310.753906 248.46875 302.996094 250.660156 297.769531 256.105469 L 270.832031 283.039062 L 270.832031 83.332031 C 270.910156 77.707031 268.707031 72.285156 264.726562 68.308594 C 260.742188 64.332031 255.324219 62.132812 249.695312 62.214844 Z M 125 177.082031 C 90.730469 177.082031 62.5 205.3125 62.5 239.582031 L 62.5 375 C 62.5 409.269531 90.730469 437.5 125 437.5 L 375 437.5 C 409.269531 437.5 437.5 409.269531 437.5 375 L 437.5 239.582031 C 437.5 205.3125 409.269531 177.082031 375 177.082031 L 343.75 177.082031 C 336.238281 176.976562 329.25 180.925781 325.460938 187.414062 C 321.671875 193.902344 321.671875 201.929688 325.460938 208.417969 C 329.25 214.910156 336.238281 218.855469 343.75 218.75 L 375 218.75 C 386.75 218.75 395.832031 227.832031 395.832031 239.582031 L 395.832031 375 C 395.832031 386.75 386.75 395.832031 375 395.832031 L 125 395.832031 C 113.25 395.832031 104.167969 386.75 104.167969 375 L 104.167969 239.582031 C 104.167969 227.832031 113.25 218.75 125 218.75 L 156.25 218.75 C 163.761719 218.855469 170.75 214.910156 174.539062 208.417969 C 178.328125 201.929688 178.328125 193.902344 174.539062 187.414062 C 170.75 180.925781 163.761719 176.976562 156.25 177.082031 Z M 125 177.082031 "/>
</g>
</svg>
