<?xml version="1.0" encoding="UTF-8"?>
<svg xmlns="http://www.w3.org/2000/svg" xmlns:xlink="http://www.w3.org/1999/xlink" width="500pt" height="500pt" viewBox="0 0 500 500" version="1.1">
<g id="surface11761">
<path style=" stroke:none;fill-rule:nonzero;fill:rgb(9.019608%,9.019608%,9.411765%);fill-opacity:1;" d="M 249.753906 62.277344 C 241.132812 62.410156 234.25 69.503906 234.375 78.125 L 234.375 300.820312 L 198.546875 264.996094 C 195.605469 261.964844 191.5625 260.253906 187.335938 260.253906 C 180.976562 260.253906 175.25 264.113281 172.859375 270.007812 C 170.46875 275.902344 171.890625 282.65625 176.453125 287.089844 L 238.953125 349.589844 C 245.054688 355.6875 254.945312 355.6875 261.046875 349.589844 L 323.546875 287.089844 C 327.628906 283.171875 329.273438 277.351562 327.847656 271.875 C 326.417969 266.398438 322.140625 262.125 316.667969 260.695312 C 311.191406 259.269531 305.371094 260.914062 301.453125 264.996094 L 265.625 300.820312 L 265.625 78.125 C 265.6875 73.898438 264.03125 69.832031 261.042969 66.84375 C 258.050781 63.859375 253.980469 62.210938 249.753906 62.277344 Z M 119.792969 177.082031 C 88.335938 177.082031 62.5 202.917969 62.5 234.375 L 62.5 380.207031 C 62.5 411.664062 88.335938 437.5 119.792969 437.5 L 380.207031 437.5 C 411.664062 437.5 437.5 411.664062 437.5 380.207031 L 437.5 234.375 C 437.5 202.917969 411.664062 177.082031 380.207031 177.082031 L 317.707031 177.082031 C 312.074219 177.003906 306.832031 179.964844 303.992188 184.832031 C 301.152344 189.699219 301.152344 195.71875 303.992188 200.585938 C 306.832031 205.453125 312.074219 208.414062 317.707031 208.332031 L 380.207031 208.332031 C 394.773438 208.332031 406.25 219.808594 406.25 234.375 L 406.25 380.207031 C 406.25 394.773438 394.773438 406.25 380.207031 406.25 L 119.792969 406.25 C 105.226562 406.25 93.75 394.773438 93.75 380.207031 L 93.75 234.375 C 93.75 219.808594 105.226562 208.332031 119.792969 208.332031 L 182.292969 208.332031 C 187.925781 208.414062 193.167969 205.453125 196.007812 200.585938 C 198.847656 195.71875 198.847656 189.699219 196.007812 184.832031 C 193.167969 179.964844 187.925781 177.003906 182.292969 177.082031 Z M 119.792969 177.082031 "/>
</g>
</svg>
