<?xml version="1.0" encoding="UTF-8"?>
<svg xmlns="http://www.w3.org/2000/svg" xmlns:xlink="http://www.w3.org/1999/xlink" width="500pt" height="500pt" viewBox="0 0 500 500" version="1.1">
<g id="surface11751">
<path style=" stroke:none;fill-rule:nonzero;fill:rgb(9.019608%,9.019608%,9.411765%);fill-opacity:1;" d="M 431.394531 235.269531 L 285.5625 89.4375 C 277.425781 81.300781 264.238281 81.300781 256.105469 89.4375 C 247.96875 97.574219 247.96875 110.761719 256.105469 118.894531 L 366.375 229.167969 L 83.332031 229.167969 C 71.832031 229.167969 62.5 238.5 62.5 250 C 62.5 261.5 71.832031 270.832031 83.332031 270.832031 L 366.375 270.832031 L 256.105469 381.105469 C 247.96875 389.238281 247.96875 402.425781 256.105469 410.5625 C 260.175781 414.636719 265.5 416.667969 270.832031 416.667969 C 276.167969 416.667969 281.488281 414.636719 285.5625 410.5625 L 431.394531 264.730469 C 439.53125 256.59375 439.53125 243.40625 431.394531 235.269531 Z M 431.394531 235.269531 "/>
</g>
</svg>
