<?xml version="1.0" encoding="UTF-8"?>
<svg xmlns="http://www.w3.org/2000/svg" xmlns:xlink="http://www.w3.org/1999/xlink" width="500pt" height="500pt" viewBox="0 0 500 500" version="1.1">
<g id="surface11756">
<path style=" stroke:none;fill-rule:nonzero;fill:rgb(9.019608%,9.019608%,9.411765%);fill-opacity:1;" d="M 275.878906 93.585938 C 269.519531 93.589844 263.792969 97.445312 261.402344 103.339844 C 259.011719 109.234375 260.433594 115.988281 264.996094 120.421875 L 384.15625 239.582031 L 98.957031 239.582031 C 93.324219 239.503906 88.082031 242.464844 85.242188 247.332031 C 82.402344 252.199219 82.402344 258.21875 85.242188 263.085938 C 88.082031 267.953125 93.324219 270.914062 98.957031 270.832031 L 384.15625 270.832031 L 264.996094 389.996094 C 260.914062 393.914062 259.269531 399.734375 260.695312 405.207031 C 262.125 410.683594 266.398438 414.960938 271.875 416.386719 C 277.351562 417.816406 283.171875 416.171875 287.089844 412.089844 L 431.578125 267.597656 C 435.449219 264.628906 437.710938 260.023438 437.695312 255.148438 C 437.679688 250.269531 435.386719 245.679688 431.5 242.738281 L 287.089844 98.328125 C 284.148438 95.296875 280.101562 93.585938 275.878906 93.585938 Z M 275.878906 93.585938 "/>
</g>
</svg>
