<?xml version="1.0" encoding="UTF-8"?>
<svg xmlns="http://www.w3.org/2000/svg" xmlns:xlink="http://www.w3.org/1999/xlink" width="500pt" height="500pt" viewBox="0 0 500 500" version="1.1">
<g id="surface11741">
<path style=" stroke:none;fill-rule:nonzero;fill:rgb(9.019608%,9.019608%,9.411765%);fill-opacity:1;" d="M 317.707031 52.082031 C 245.792969 52.082031 187.5 110.375 187.5 182.292969 C 187.5 194.261719 189.25 205.800781 192.269531 216.8125 L 56.65625 352.425781 C 53.730469 355.355469 52.082031 359.332031 52.082031 363.480469 L 52.082031 432.292969 C 52.082031 440.917969 59.074219 447.917969 67.707031 447.917969 L 140.625 447.917969 C 149.261719 447.917969 156.25 440.917969 156.25 432.292969 L 156.25 406.25 L 192.707031 406.25 C 201.34375 406.25 208.332031 399.25 208.332031 390.625 L 208.332031 354.167969 L 244.792969 354.167969 C 253.425781 354.167969 260.417969 347.167969 260.417969 338.542969 L 260.417969 299.082031 C 277.71875 307.59375 297.125 312.5 317.707031 312.5 C 389.625 312.5 447.917969 254.207031 447.917969 182.292969 C 447.917969 110.375 389.625 52.082031 317.707031 52.082031 Z M 333.332031 197.917969 C 316.074219 197.917969 302.082031 183.925781 302.082031 166.667969 C 302.082031 149.40625 316.074219 135.417969 333.332031 135.417969 C 350.59375 135.417969 364.582031 149.40625 364.582031 166.667969 C 364.582031 183.925781 350.59375 197.917969 333.332031 197.917969 Z M 333.332031 197.917969 "/>
</g>
</svg>
