<?xml version="1.0" encoding="UTF-8"?>
<svg xmlns="http://www.w3.org/2000/svg" xmlns:xlink="http://www.w3.org/1999/xlink" width="500pt" height="500pt" viewBox="0 0 500 500" version="1.1">
<g id="surface11746">
<path style=" stroke:none;fill-rule:nonzero;fill:rgb(9.019608%,9.019608%,9.411765%);fill-opacity:1;" d="M 312.5 52.082031 C 237.898438 52.082031 177.082031 112.898438 177.082031 187.5 C 177.082031 196.691406 178.988281 205.242188 180.746094 213.828125 L 56.660156 337.910156 C 53.730469 340.839844 52.085938 344.816406 52.082031 348.957031 L 52.082031 432.292969 C 52.085938 440.921875 59.078125 447.914062 67.707031 447.917969 L 151.042969 447.917969 C 159.671875 447.914062 166.664062 440.921875 166.667969 432.292969 L 166.667969 406.25 L 203.125 406.25 C 211.753906 406.25 218.75 399.253906 218.75 390.625 L 218.75 354.167969 L 255.207031 354.167969 C 263.835938 354.164062 270.832031 347.171875 270.832031 338.542969 L 270.832031 315.570312 C 284.074219 319.890625 297.871094 322.917969 312.5 322.917969 C 387.101562 322.917969 447.917969 262.101562 447.917969 187.5 C 447.917969 112.898438 387.101562 52.082031 312.5 52.082031 Z M 312.5 83.332031 C 370.210938 83.332031 416.667969 129.789062 416.667969 187.5 C 416.667969 245.210938 370.210938 291.667969 312.5 291.667969 C 294.402344 291.667969 277.492188 287.089844 262.695312 279.011719 C 257.855469 276.371094 251.980469 276.476562 247.234375 279.289062 C 242.492188 282.105469 239.585938 287.210938 239.582031 292.722656 L 239.582031 322.917969 L 203.125 322.917969 C 194.496094 322.917969 187.5 329.914062 187.5 338.542969 L 187.5 375 L 151.042969 375 C 142.414062 375 135.417969 381.996094 135.417969 390.625 L 135.417969 416.667969 L 83.332031 416.667969 L 83.332031 355.429688 L 208.210938 230.550781 C 212.199219 226.566406 213.730469 220.742188 212.21875 215.3125 C 209.726562 206.34375 208.332031 197.078125 208.332031 187.5 C 208.332031 129.789062 254.789062 83.332031 312.5 83.332031 Z M 333.332031 135.417969 C 316.074219 135.417969 302.082031 149.40625 302.082031 166.667969 C 302.082031 183.925781 316.074219 197.917969 333.332031 197.917969 C 350.59375 197.917969 364.582031 183.925781 364.582031 166.667969 C 364.582031 149.40625 350.59375 135.417969 333.332031 135.417969 Z M 333.332031 135.417969 "/>
</g>
</svg>
