<?xml version="1.0" encoding="UTF-8"?>
<svg xmlns="http://www.w3.org/2000/svg" xmlns:xlink="http://www.w3.org/1999/xlink" width="500pt" height="500pt" viewBox="0 0 500 500" version="1.1">
<g id="surface11731">
<path style=" stroke:none;fill-rule:nonzero;fill:rgb(9.019608%,9.019608%,9.411765%);fill-opacity:1;" d="M 376.46875 253.25 C 389.8125 231.582031 393.792969 205.449219 387.65625 179.675781 C 380.792969 150.863281 361.699219 125.03125 335.25 108.769531 C 316.34375 97.136719 294.78125 91.082031 273.480469 91.082031 C 272.59375 91.082031 271.71875 91.21875 270.832031 91.238281 L 270.832031 192.707031 C 270.832031 201.332031 277.832031 208.332031 286.457031 208.332031 C 295.082031 208.332031 302.082031 201.332031 302.082031 192.707031 C 302.082031 207.09375 290.425781 218.75 276.042969 218.75 C 261.65625 218.75 250 207.09375 250 192.707031 C 250 191.519531 250.199219 190.386719 250.355469 189.238281 C 250.25 188.644531 250 188.113281 250 187.5 L 250 93.75 C 249.125 93.949219 248.21875 94.019531 247.34375 94.238281 C 221.332031 100.675781 199.800781 116.4375 186.707031 138.605469 L 94.699219 294.300781 C 81.582031 316.480469 78.3125 342.96875 85.449219 368.886719 C 93.457031 397.925781 113.886719 423.21875 141.519531 438.269531 C 159.261719 447.949219 178.3125 452.5625 196.792969 452.5625 C 231.167969 452.5625 263.511719 436.542969 281.59375 407.21875 Z M 258.1875 263.238281 L 195.6875 367.40625 C 192.761719 372.292969 187.582031 375 182.28125 375 C 179.542969 375 176.769531 374.292969 174.25 372.769531 C 166.84375 368.332031 164.449219 358.730469 168.886719 351.332031 L 231.386719 247.167969 C 235.832031 239.761719 245.4375 237.355469 252.824219 241.800781 C 260.230469 246.25 262.636719 255.855469 258.1875 263.238281 Z M 299.324219 418.15625 C 292.144531 429.792969 282.917969 439.6875 272.375 447.917969 L 317.707031 447.917969 C 355.042969 447.917969 385.417969 417.542969 385.417969 380.207031 L 385.417969 278.425781 Z M 273.480469 70.25 C 283.113281 70.25 292.699219 71.28125 302.082031 73.300781 L 302.082031 57.292969 C 302.082031 48.667969 295.082031 41.667969 286.457031 41.667969 C 277.832031 41.667969 270.832031 48.667969 270.832031 57.292969 L 270.832031 70.40625 C 271.71875 70.394531 272.59375 70.25 273.480469 70.25 Z M 273.480469 70.25 "/>
</g>
</svg>
