<?xml version="1.0" encoding="UTF-8"?>
<svg xmlns="http://www.w3.org/2000/svg" xmlns:xlink="http://www.w3.org/1999/xlink" width="500pt" height="500pt" viewBox="0 0 500 500" version="1.1">
<g id="surface11736">
<path style=" stroke:none;fill-rule:nonzero;fill:rgb(9.019608%,9.019608%,9.411765%);fill-opacity:1;" d="M 286.214844 41.441406 C 277.59375 41.578125 270.710938 48.671875 270.832031 57.292969 L 270.832031 91.1875 C 236.699219 92.035156 204.566406 108.359375 186.707031 138.589844 L 94.6875 294.292969 C 94.6875 294.296875 94.6875 294.304688 94.6875 294.3125 C 65.410156 343.863281 87.976562 409.082031 141.519531 438.273438 C 169.464844 453.507812 201.160156 456.273438 228.597656 447.753906 C 229.410156 447.871094 230.234375 447.925781 231.058594 447.917969 L 317.707031 447.917969 C 354.917969 447.917969 385.417969 417.417969 385.417969 380.207031 L 385.417969 234.375 C 385.417969 234.328125 385.417969 234.28125 385.417969 234.234375 C 400.765625 189.097656 380.054688 136.3125 335.246094 108.765625 C 324.6875 102.277344 313.476562 97.71875 302.082031 94.828125 L 302.082031 57.292969 C 302.144531 53.066406 300.492188 48.996094 297.5 46.011719 C 294.511719 43.023438 290.4375 41.375 286.214844 41.441406 Z M 270.832031 122.355469 L 270.832031 187.5 C 270.832031 193.261719 266.175781 197.917969 260.417969 197.917969 C 255.269531 197.917969 251.199219 194.144531 250.347656 189.25 C 250.191406 190.394531 250 191.519531 250 192.707031 C 250 207.09375 261.65625 218.75 276.042969 218.75 C 289.269531 218.75 300.066406 208.855469 301.738281 196.085938 C 301.976562 194.976562 302.089844 193.84375 302.082031 192.707031 L 302.082031 127.359375 C 307.777344 129.414062 313.417969 132.035156 318.886719 135.394531 C 357.203125 158.949219 369.8125 204.445312 349.855469 236.835938 L 254.984375 390.808594 C 236.261719 421.199219 193.546875 431.039062 156.472656 410.828125 C 116.664062 389.125 102.109375 343.191406 121.601562 310.199219 L 213.601562 154.5 C 213.601562 154.492188 213.601562 154.488281 213.601562 154.480469 C 223.398438 137.898438 240.03125 127.183594 259.054688 123.574219 C 262.886719 122.847656 266.839844 122.492188 270.832031 122.355469 Z M 245.300781 239.398438 C 239.589844 239.253906 234.253906 242.234375 231.382812 247.171875 L 168.882812 351.339844 C 164.445312 358.742188 166.847656 368.347656 174.253906 372.785156 C 181.660156 377.226562 191.261719 374.816406 195.699219 367.410156 L 258.199219 263.246094 C 261.144531 258.484375 261.320312 252.511719 258.65625 247.585938 C 255.992188 242.664062 250.898438 239.539062 245.300781 239.398438 Z M 354.167969 289.410156 L 354.167969 380.207031 C 354.167969 400.519531 338.019531 416.667969 317.707031 416.667969 L 274.800781 416.667969 C 277.210938 413.671875 279.511719 410.558594 281.574219 407.207031 Z M 354.167969 289.410156 "/>
</g>
</svg>
