<?xml version="1.0" encoding="UTF-8"?>
<svg xmlns="http://www.w3.org/2000/svg" xmlns:xlink="http://www.w3.org/1999/xlink" width="500pt" height="500pt" viewBox="0 0 500 500" version="1.1">
<g id="surface11721">
<path style=" stroke:none;fill-rule:nonzero;fill:rgb(9.019608%,9.019608%,9.411765%);fill-opacity:1;" d="M 78.125 114.582031 C 46.667969 114.582031 20.832031 140.417969 20.832031 171.875 L 20.832031 328.125 C 20.832031 359.582031 46.667969 385.417969 78.125 385.417969 L 421.875 385.417969 C 453.332031 385.417969 479.167969 359.582031 479.167969 328.125 L 479.167969 171.875 C 479.167969 140.417969 453.332031 114.582031 421.875 114.582031 Z M 106.566406 199.6875 C 111.671875 199.6875 116.25 202.710938 118.125 207.398438 L 149.578125 282.816406 C 152.285156 289.171875 149.28125 296.566406 142.824219 299.277344 C 141.257812 299.902344 139.582031 300.210938 138.019531 300.210938 C 133.125 300.210938 128.445312 297.292969 126.363281 292.5 L 124.371094 287.597656 L 88.746094 287.597656 L 86.773438 292.5 C 84.0625 298.855469 76.667969 301.878906 70.3125 299.277344 C 63.855469 296.566406 60.828125 289.171875 63.539062 282.816406 L 94.992188 207.398438 C 96.867188 202.710938 101.464844 199.6875 106.566406 199.6875 Z M 175.617188 199.6875 L 188.230469 199.6875 C 215.941406 199.6875 238.546875 222.1875 238.546875 250 C 238.546875 277.707031 215.941406 300.210938 188.230469 300.210938 L 175.617188 300.210938 C 168.640625 300.210938 163.023438 294.574219 163.023438 287.699219 L 163.023438 212.300781 C 163.023438 205.320312 168.640625 199.6875 175.617188 199.6875 Z M 389.382812 199.6875 C 410.21875 199.6875 427.082031 216.550781 427.082031 237.386719 C 427.082031 256.449219 411.246094 266.980469 396.871094 275.105469 L 414.46875 275.105469 C 421.449219 275.105469 427.082031 280.71875 427.082031 287.699219 C 427.082031 294.574219 421.449219 300.210938 414.46875 300.210938 L 364.277344 300.210938 C 357.300781 300.210938 351.664062 294.574219 351.664062 287.699219 C 351.664062 271.554688 366.972656 263.015625 380.511719 255.410156 C 390.097656 250.097656 401.976562 243.53125 401.976562 237.386719 C 401.976562 230.40625 396.257812 224.792969 389.382812 224.792969 C 379.28125 224.792969 375.515625 230.3125 375.203125 230.9375 C 371.660156 236.769531 364.070312 238.847656 358.132812 235.515625 C 352.300781 232.179688 349.898438 224.996094 353.128906 218.953125 C 356.878906 211.765625 368.757812 199.6875 389.382812 199.6875 Z M 313.679688 200.09375 C 316.546875 200.03125 319.410156 201.023438 321.675781 202.820312 C 324.695312 205.113281 326.457031 208.75 326.457031 212.707031 L 326.457031 288.125 C 326.457031 295 320.839844 300.71875 313.964844 300.71875 C 306.984375 300.71875 301.351562 295 301.351562 288.125 L 301.351562 228.761719 L 291.871094 231.140625 C 285.097656 232.808594 278.238281 228.753906 276.570312 221.984375 C 274.902344 215.316406 278.953125 208.433594 285.726562 206.765625 L 310.832031 200.519531 C 311.769531 200.261719 312.722656 200.113281 313.679688 200.09375 Z M 188.230469 224.792969 L 188.230469 275.105469 C 189.964844 275.105469 191.644531 274.933594 193.277344 274.597656 C 194.910156 274.261719 196.496094 273.769531 197.996094 273.132812 C 199.5 272.496094 200.933594 271.714844 202.269531 270.8125 C 203.605469 269.910156 204.835938 268.878906 205.972656 267.742188 C 208.246094 265.46875 210.09375 262.769531 211.363281 259.765625 C 212 258.265625 212.496094 256.699219 212.828125 255.066406 C 213.164062 253.433594 213.339844 251.730469 213.339844 250 C 213.339844 248.269531 213.164062 246.570312 212.828125 244.933594 C 211.492188 238.390625 207.613281 232.742188 202.269531 229.105469 C 199.597656 227.289062 196.546875 225.976562 193.277344 225.300781 C 191.644531 224.964844 189.964844 224.792969 188.230469 224.792969 Z M 106.566406 244.894531 L 99.261719 262.492188 L 113.851562 262.492188 Z M 106.566406 244.894531 "/>
</g>
</svg>
