<?xml version="1.0" encoding="UTF-8"?>
<svg xmlns="http://www.w3.org/2000/svg" xmlns:xlink="http://www.w3.org/1999/xlink" width="500pt" height="500pt" viewBox="0 0 500 500" version="1.1">
<g id="surface11726">
<path style=" stroke:none;fill-rule:nonzero;fill:rgb(9.019608%,9.019608%,9.411765%);fill-opacity:1;" d="M 78.125 114.582031 C 46.667969 114.582031 20.832031 140.417969 20.832031 171.875 L 20.832031 328.125 C 20.832031 359.582031 46.667969 385.417969 78.125 385.417969 L 421.875 385.417969 C 453.332031 385.417969 479.167969 359.582031 479.167969 328.125 L 479.167969 171.875 C 479.167969 140.417969 453.332031 114.582031 421.875 114.582031 Z M 78.125 145.832031 L 421.875 145.832031 C 436.441406 145.832031 447.917969 157.308594 447.917969 171.875 L 447.917969 328.125 C 447.917969 342.691406 436.441406 354.167969 421.875 354.167969 L 78.125 354.167969 C 63.558594 354.167969 52.082031 342.691406 52.082031 328.125 L 52.082031 171.875 C 52.082031 157.308594 63.558594 145.832031 78.125 145.832031 Z M 130.269531 208.292969 C 126.0625 208.292969 122.261719 210.816406 120.644531 214.703125 L 94.605469 277.203125 C 92.394531 282.515625 94.90625 288.625 100.21875 290.832031 C 105.542969 293.039062 111.644531 290.519531 113.851562 285.21875 L 115.519531 281.210938 L 145.019531 281.210938 L 146.6875 285.21875 C 148.34375 289.21875 152.226562 291.625 156.3125 291.625 C 157.644531 291.625 158.996094 291.382812 160.320312 290.832031 C 165.632812 288.613281 168.144531 282.515625 165.933594 277.203125 L 139.894531 214.703125 C 138.277344 210.828125 134.476562 208.292969 130.269531 208.292969 Z M 187.5 208.332031 C 181.75 208.332031 177.082031 213 177.082031 218.75 L 177.082031 281.25 C 177.082031 287 181.75 291.667969 187.5 291.667969 L 197.917969 291.667969 C 220.894531 291.667969 239.582031 272.980469 239.582031 250 C 239.582031 227.019531 220.894531 208.332031 197.917969 208.332031 Z M 364.582031 208.332031 C 347.46875 208.332031 337.636719 218.386719 334.535156 224.324219 C 331.929688 229.304688 333.839844 235.285156 338.726562 238.058594 C 343.601562 240.796875 349.875 239.054688 352.824219 234.273438 C 353.136719 233.753906 356.199219 229.167969 364.582031 229.167969 C 370.324219 229.167969 375 233.84375 375 239.582031 C 375 244.636719 365.175781 250.121094 357.28125 254.535156 C 346.0625 260.796875 333.332031 267.886719 333.332031 281.25 C 333.332031 287 338 291.667969 343.75 291.667969 L 385.417969 291.667969 C 391.167969 291.667969 395.832031 287 395.832031 281.25 C 395.832031 275.5 391.167969 270.832031 385.417969 270.832031 L 370.789062 270.832031 C 382.707031 264.0625 395.832031 255.363281 395.832031 239.582031 C 395.832031 222.355469 381.8125 208.332031 364.582031 208.332031 Z M 301.898438 208.679688 C 301.113281 208.691406 300.332031 208.785156 299.558594 208.984375 L 278.726562 214.191406 C 273.144531 215.589844 269.742188 221.242188 271.136719 226.828125 C 272.535156 232.410156 278.210938 235.8125 283.773438 234.414062 L 291.667969 232.441406 L 291.667969 281.597656 C 291.667969 287.347656 296.332031 292.011719 302.082031 292.011719 C 307.832031 292.011719 312.5 287.347656 312.5 281.597656 L 312.5 219.097656 C 312.5 215.886719 311.011719 212.855469 308.492188 210.875 C 306.59375 209.390625 304.253906 208.636719 301.898438 208.679688 Z M 197.917969 229.167969 C 209.40625 229.167969 218.75 238.511719 218.75 250 C 218.75 261.488281 209.40625 270.832031 197.917969 270.832031 Z M 130.269531 245.789062 L 136.351562 260.375 L 124.1875 260.375 Z M 130.269531 245.789062 "/>
</g>
</svg>
