<?xml version="1.0" encoding="UTF-8"?>
<svg xmlns="http://www.w3.org/2000/svg" xmlns:xlink="http://www.w3.org/1999/xlink" width="500pt" height="500pt" viewBox="0 0 500 500" version="1.1">
<g id="surface11716">
<path style=" stroke:none;fill-rule:nonzero;fill:rgb(9.019608%,9.019608%,9.411765%);fill-opacity:1;" d="M 80.484375 41.667969 C 64.828125 41.667969 52.082031 54.410156 52.082031 70.070312 L 52.082031 138.265625 C 52.082031 153.921875 64.828125 166.667969 80.484375 166.667969 L 148.683594 166.667969 C 164.335938 166.667969 177.082031 153.910156 177.082031 138.246094 L 177.082031 70.070312 C 177.082031 54.410156 164.328125 41.667969 148.660156 41.667969 Z M 229.167969 83.332031 C 221.652344 83.226562 214.664062 87.175781 210.878906 93.664062 C 207.089844 100.152344 207.089844 108.179688 210.878906 114.667969 C 214.664062 121.160156 221.652344 125.105469 229.167969 125 L 427.082031 125 C 434.597656 125.105469 441.585938 121.160156 445.371094 114.667969 C 449.160156 108.179688 449.160156 100.152344 445.371094 93.664062 C 441.585938 87.175781 434.597656 83.226562 427.082031 83.332031 Z M 80.484375 187.5 C 64.828125 187.5 52.082031 200.253906 52.082031 215.921875 L 52.082031 284.097656 C 52.082031 299.753906 64.828125 312.5 80.484375 312.5 L 148.683594 312.5 C 164.335938 312.5 177.082031 299.746094 177.082031 284.078125 L 177.082031 215.902344 C 177.082031 200.246094 164.328125 187.5 148.660156 187.5 Z M 229.167969 229.167969 C 221.652344 229.058594 214.664062 233.007812 210.878906 239.496094 C 207.089844 245.988281 207.089844 254.011719 210.878906 260.503906 C 214.664062 266.992188 221.652344 270.941406 229.167969 270.832031 L 427.082031 270.832031 C 434.597656 270.941406 441.585938 266.992188 445.371094 260.503906 C 449.160156 254.011719 449.160156 245.988281 445.371094 239.496094 C 441.585938 233.007812 434.597656 229.058594 427.082031 229.167969 Z M 83.332031 333.332031 C 66.3125 333.332031 52.082031 347.5625 52.082031 364.582031 L 52.082031 427.082031 C 52.082031 444.105469 66.3125 458.332031 83.332031 458.332031 L 145.832031 458.332031 C 162.855469 458.332031 177.082031 444.105469 177.082031 427.082031 L 177.082031 364.582031 C 177.082031 347.5625 162.855469 333.332031 145.832031 333.332031 Z M 93.75 375 L 135.417969 375 L 135.417969 416.667969 L 93.75 416.667969 Z M 229.167969 375 C 221.652344 374.894531 214.664062 378.839844 210.878906 385.332031 C 207.089844 391.820312 207.089844 399.847656 210.878906 406.335938 C 214.664062 412.824219 221.652344 416.773438 229.167969 416.667969 L 427.082031 416.667969 C 434.597656 416.773438 441.585938 412.824219 445.371094 406.335938 C 449.160156 399.847656 449.160156 391.820312 445.371094 385.332031 C 441.585938 378.839844 434.597656 374.894531 427.082031 375 Z M 229.167969 375 "/>
</g>
</svg>
