<?xml version="1.0" encoding="UTF-8"?>
<svg xmlns="http://www.w3.org/2000/svg" xmlns:xlink="http://www.w3.org/1999/xlink" width="500pt" height="500pt" viewBox="0 0 500 500" version="1.1">
<g id="surface11711">
<path style=" stroke:none;fill-rule:nonzero;fill:rgb(9.019608%,9.019608%,9.411765%);fill-opacity:1;" d="M 78.125 52.082031 C 63.769531 52.082031 52.082031 63.769531 52.082031 78.125 L 52.082031 140.625 C 52.082031 154.980469 63.769531 166.667969 78.125 166.667969 L 140.625 166.667969 C 154.980469 166.667969 166.667969 154.980469 166.667969 140.625 L 166.667969 78.125 C 166.667969 63.769531 154.980469 52.082031 140.625 52.082031 Z M 213.542969 93.75 C 207.90625 93.671875 202.664062 96.632812 199.824219 101.496094 C 196.984375 106.363281 196.984375 112.386719 199.824219 117.253906 C 202.664062 122.117188 207.90625 125.078125 213.542969 125 L 432.292969 125 C 437.925781 125.078125 443.167969 122.117188 446.007812 117.253906 C 448.847656 112.386719 448.847656 106.363281 446.007812 101.496094 C 443.167969 96.632812 437.925781 93.671875 432.292969 93.75 Z M 78.125 192.707031 C 63.769531 192.707031 52.082031 204.394531 52.082031 218.75 L 52.082031 281.25 C 52.082031 295.605469 63.769531 307.292969 78.125 307.292969 L 140.625 307.292969 C 154.980469 307.292969 166.667969 295.605469 166.667969 281.25 L 166.667969 218.75 C 166.667969 204.394531 154.980469 192.707031 140.625 192.707031 Z M 213.542969 234.375 C 207.90625 234.296875 202.664062 237.257812 199.824219 242.121094 C 196.984375 246.988281 196.984375 253.011719 199.824219 257.878906 C 202.664062 262.742188 207.90625 265.703125 213.542969 265.625 L 432.292969 265.625 C 437.925781 265.703125 443.167969 262.742188 446.007812 257.878906 C 448.847656 253.011719 448.847656 246.988281 446.007812 242.121094 C 443.167969 237.257812 437.925781 234.296875 432.292969 234.375 Z M 78.125 333.332031 C 63.921875 333.332031 52.082031 345.171875 52.082031 359.375 L 52.082031 421.875 C 52.082031 436.078125 63.921875 447.917969 78.125 447.917969 L 140.625 447.917969 C 154.828125 447.917969 166.667969 436.078125 166.667969 421.875 L 166.667969 359.375 C 166.667969 345.171875 154.828125 333.332031 140.625 333.332031 Z M 83.332031 364.582031 L 135.417969 364.582031 L 135.417969 416.667969 L 83.332031 416.667969 Z M 213.542969 375 C 207.90625 374.921875 202.664062 377.882812 199.824219 382.746094 C 196.984375 387.613281 196.984375 393.636719 199.824219 398.503906 C 202.664062 403.367188 207.90625 406.328125 213.542969 406.25 L 432.292969 406.25 C 437.925781 406.328125 443.167969 403.367188 446.007812 398.503906 C 448.847656 393.636719 448.847656 387.613281 446.007812 382.746094 C 443.167969 377.882812 437.925781 374.921875 432.292969 375 Z M 213.542969 375 "/>
</g>
</svg>
