<?xml version="1.0" encoding="UTF-8"?>
<svg xmlns="http://www.w3.org/2000/svg" xmlns:xlink="http://www.w3.org/1999/xlink" width="500pt" height="500pt" viewBox="0 0 500 500" version="1.1">
<g id="surface11701">
<path style=" stroke:none;fill-rule:nonzero;fill:rgb(9.019608%,9.019608%,9.411765%);fill-opacity:1;" d="M 437.5 145.832031 L 437.5 130.207031 C 437.5 92.875 407.125 62.5 369.792969 62.5 L 130.207031 62.5 C 92.875 62.5 62.5 92.875 62.5 130.207031 L 62.5 145.832031 Z M 62.5 177.082031 L 62.5 369.792969 C 62.5 407.125 92.875 437.5 130.207031 437.5 L 369.792969 437.5 C 407.125 437.5 437.5 407.125 437.5 369.792969 L 437.5 177.082031 Z M 161.457031 375 C 147.074219 375 135.417969 363.34375 135.417969 348.957031 C 135.417969 334.574219 147.074219 322.917969 161.457031 322.917969 C 175.84375 322.917969 187.5 334.574219 187.5 348.957031 C 187.5 363.34375 175.84375 375 161.457031 375 Z M 161.457031 281.25 C 147.074219 281.25 135.417969 269.59375 135.417969 255.207031 C 135.417969 240.824219 147.074219 229.167969 161.457031 229.167969 C 175.84375 229.167969 187.5 240.824219 187.5 255.207031 C 187.5 269.59375 175.84375 281.25 161.457031 281.25 Z M 250 375 C 235.613281 375 223.957031 363.34375 223.957031 348.957031 C 223.957031 334.574219 235.613281 322.917969 250 322.917969 C 264.386719 322.917969 276.042969 334.574219 276.042969 348.957031 C 276.042969 363.34375 264.386719 375 250 375 Z M 250 281.25 C 235.613281 281.25 223.957031 269.59375 223.957031 255.207031 C 223.957031 240.824219 235.613281 229.167969 250 229.167969 C 264.386719 229.167969 276.042969 240.824219 276.042969 255.207031 C 276.042969 269.59375 264.386719 281.25 250 281.25 Z M 338.542969 281.25 C 324.15625 281.25 312.5 269.59375 312.5 255.207031 C 312.5 240.824219 324.15625 229.167969 338.542969 229.167969 C 352.925781 229.167969 364.582031 240.824219 364.582031 255.207031 C 364.582031 269.59375 352.925781 281.25 338.542969 281.25 Z M 338.542969 281.25 "/>
</g>
</svg>
