<?xml version="1.0" encoding="UTF-8"?>
<svg xmlns="http://www.w3.org/2000/svg" xmlns:xlink="http://www.w3.org/1999/xlink" width="500pt" height="500pt" viewBox="0 0 500 500" version="1.1">
<g id="surface11706">
<path style=" stroke:none;fill-rule:nonzero;fill:rgb(9.019608%,9.019608%,9.411765%);fill-opacity:1;" d="M 130.207031 62.5 C 93 62.5 62.5 93 62.5 130.207031 L 62.5 369.792969 C 62.5 407 93 437.5 130.207031 437.5 L 369.792969 437.5 C 407 437.5 437.5 407 437.5 369.792969 L 437.5 130.207031 C 437.5 93 407 62.5 369.792969 62.5 Z M 130.207031 93.75 L 369.792969 93.75 C 390.105469 93.75 406.25 109.894531 406.25 130.207031 L 406.25 145.832031 L 93.75 145.832031 L 93.75 130.207031 C 93.75 109.894531 109.894531 93.75 130.207031 93.75 Z M 93.75 177.082031 L 406.25 177.082031 L 406.25 369.792969 C 406.25 390.105469 390.105469 406.25 369.792969 406.25 L 130.207031 406.25 C 109.894531 406.25 93.75 390.105469 93.75 369.792969 Z M 161.457031 218.75 C 147.074219 218.75 135.417969 230.410156 135.417969 244.792969 C 135.417969 259.175781 147.074219 270.832031 161.457031 270.832031 C 175.839844 270.832031 187.5 259.175781 187.5 244.792969 C 187.5 230.410156 175.839844 218.75 161.457031 218.75 Z M 250 218.75 C 235.617188 218.75 223.957031 230.410156 223.957031 244.792969 C 223.957031 259.175781 235.617188 270.832031 250 270.832031 C 264.382812 270.832031 276.042969 259.175781 276.042969 244.792969 C 276.042969 230.410156 264.382812 218.75 250 218.75 Z M 338.542969 218.75 C 324.160156 218.75 312.5 230.410156 312.5 244.792969 C 312.5 259.175781 324.160156 270.832031 338.542969 270.832031 C 352.925781 270.832031 364.582031 259.175781 364.582031 244.792969 C 364.582031 230.410156 352.925781 218.75 338.542969 218.75 Z M 161.457031 312.5 C 147.074219 312.5 135.417969 324.160156 135.417969 338.542969 C 135.417969 352.925781 147.074219 364.582031 161.457031 364.582031 C 175.839844 364.582031 187.5 352.925781 187.5 338.542969 C 187.5 324.160156 175.839844 312.5 161.457031 312.5 Z M 250 312.5 C 235.617188 312.5 223.957031 324.160156 223.957031 338.542969 C 223.957031 352.925781 235.617188 364.582031 250 364.582031 C 264.382812 364.582031 276.042969 352.925781 276.042969 338.542969 C 276.042969 324.160156 264.382812 312.5 250 312.5 Z M 250 312.5 "/>
</g>
</svg>
