<?xml version="1.0" encoding="UTF-8"?>
<svg xmlns="http://www.w3.org/2000/svg" xmlns:xlink="http://www.w3.org/1999/xlink" width="500pt" height="500pt" viewBox="0 0 500 500" version="1.1">
<g id="surface11691">
<path style=" stroke:none;fill-rule:nonzero;fill:rgb(9.019608%,9.019608%,9.411765%);fill-opacity:1;" d="M 223.957031 31.25 C 204.011719 31.25 187.5 47.761719 187.5 67.707031 L 187.5 114.582031 L 78.125 114.582031 C 52.1875 114.582031 31.25 135.605469 31.25 161.4375 L 31.25 380.230469 C 31.25 406 52.34375 427.082031 78.125 427.082031 L 421.875 427.082031 C 447.8125 427.082031 468.75 406.0625 468.75 380.230469 L 468.75 161.4375 C 468.75 135.605469 447.8125 114.582031 421.875 114.582031 L 312.5 114.582031 L 312.5 67.707031 C 312.5 47.761719 295.988281 31.25 276.042969 31.25 Z M 223.957031 62.5 L 276.042969 62.5 C 279.113281 62.5 281.25 64.636719 281.25 67.707031 L 281.25 151.042969 C 281.25 154.113281 279.113281 156.25 276.042969 156.25 L 223.957031 156.25 C 220.886719 156.25 218.75 154.113281 218.75 151.042969 L 218.75 67.707031 C 218.75 64.636719 220.886719 62.5 223.957031 62.5 Z M 145.832031 208.292969 C 163.125 208.292969 177.082031 222.355469 177.082031 239.542969 C 177.082031 256.835938 163.125 270.773438 145.832031 270.773438 C 128.542969 270.773438 114.582031 256.835938 114.582031 239.542969 C 114.582031 222.367188 128.542969 208.292969 145.832031 208.292969 Z M 286.457031 229.167969 L 390.625 229.167969 C 399.25 229.167969 406.25 236.167969 406.25 244.792969 C 406.25 253.417969 399.25 260.417969 390.625 260.417969 L 286.457031 260.417969 C 277.832031 260.417969 270.832031 253.417969 270.832031 244.792969 C 270.832031 236.167969 277.832031 229.167969 286.457031 229.167969 Z M 109.375 291.605469 L 182.292969 291.605469 L 184.367188 291.707031 C 192.074219 292.75 197.917969 299.3125 197.917969 307.230469 L 197.917969 317.523438 L 197.714844 319.722656 L 197.183594 322.957031 C 192.496094 343.988281 173.542969 354.085938 145.832031 354.085938 C 116.667969 354.085938 97.285156 342.941406 93.953125 319.722656 L 93.75 317.445312 L 93.75 307.230469 L 93.851562 305.15625 C 94.894531 297.445312 101.457031 291.605469 109.375 291.605469 Z M 286.457031 302.082031 L 390.625 302.082031 C 399.25 302.082031 406.25 309.082031 406.25 317.707031 C 406.25 326.332031 399.25 333.332031 390.625 333.332031 L 286.457031 333.332031 C 277.832031 333.332031 270.832031 326.332031 270.832031 317.707031 C 270.832031 309.082031 277.832031 302.082031 286.457031 302.082031 Z M 286.457031 302.082031 "/>
</g>
</svg>
