<?xml version="1.0" encoding="UTF-8"?>
<svg xmlns="http://www.w3.org/2000/svg" xmlns:xlink="http://www.w3.org/1999/xlink" width="500pt" height="500pt" viewBox="0 0 500 500" version="1.1">
<g id="surface11696">
<path style=" stroke:none;fill-rule:nonzero;fill:rgb(9.019608%,9.019608%,9.411765%);fill-opacity:1;" d="M 223.957031 31.25 C 204.011719 31.25 187.5 47.761719 187.5 67.707031 L 187.5 125 L 78.125 125 C 52.421875 125 31.25 146.171875 31.25 171.875 L 31.25 390.625 C 31.25 416.328125 52.421875 437.5 78.125 437.5 L 421.875 437.5 C 447.578125 437.5 468.75 416.328125 468.75 390.625 L 468.75 171.875 C 468.75 146.171875 447.578125 125 421.875 125 L 312.5 125 L 312.5 67.707031 C 312.5 47.761719 295.988281 31.25 276.042969 31.25 Z M 223.957031 62.5 L 276.042969 62.5 C 279.113281 62.5 281.25 64.636719 281.25 67.707031 L 281.25 151.042969 C 281.25 154.113281 279.113281 156.25 276.042969 156.25 L 223.957031 156.25 C 220.886719 156.25 218.75 154.113281 218.75 151.042969 L 218.75 67.707031 C 218.75 64.636719 220.886719 62.5 223.957031 62.5 Z M 78.125 156.25 L 188.027344 156.25 C 190.621094 173.761719 205.792969 187.5 223.957031 187.5 L 276.042969 187.5 C 294.207031 187.5 309.378906 173.761719 311.972656 156.25 L 421.875 156.25 C 430.691406 156.25 437.5 163.058594 437.5 171.875 L 437.5 390.625 C 437.5 399.441406 430.691406 406.25 421.875 406.25 L 78.125 406.25 C 69.308594 406.25 62.5 399.441406 62.5 390.625 L 62.5 171.875 C 62.5 163.058594 69.308594 156.25 78.125 156.25 Z M 156.25 218.75 C 138.992188 218.75 125 232.742188 125 250 C 125 267.257812 138.992188 281.25 156.25 281.25 C 173.507812 281.25 187.5 267.257812 187.5 250 C 187.5 232.742188 173.507812 218.75 156.25 218.75 Z M 276.042969 239.582031 C 270.40625 239.503906 265.164062 242.464844 262.324219 247.332031 C 259.484375 252.199219 259.484375 258.21875 262.324219 263.085938 C 265.164062 267.953125 270.40625 270.914062 276.042969 270.832031 L 380.207031 270.832031 C 385.84375 270.914062 391.085938 267.953125 393.925781 263.085938 C 396.765625 258.21875 396.765625 252.199219 393.925781 247.332031 C 391.085938 242.464844 385.84375 239.503906 380.207031 239.582031 Z M 119.792969 302.082031 C 111.167969 302.082031 104.167969 309.082031 104.167969 317.707031 C 104.167969 333.332031 104.171875 364.582031 155.210938 364.582031 L 157.289062 364.582031 C 208.328125 364.582031 208.332031 333.332031 208.332031 317.707031 C 208.332031 309.082031 201.332031 302.082031 192.707031 302.082031 Z M 276.042969 312.5 C 270.40625 312.421875 265.164062 315.382812 262.324219 320.246094 C 259.484375 325.113281 259.484375 331.136719 262.324219 336.003906 C 265.164062 340.867188 270.40625 343.828125 276.042969 343.75 L 380.207031 343.75 C 385.84375 343.828125 391.085938 340.867188 393.925781 336.003906 C 396.765625 331.136719 396.765625 325.113281 393.925781 320.246094 C 391.085938 315.382812 385.84375 312.421875 380.207031 312.5 Z M 276.042969 312.5 "/>
</g>
</svg>
