<?xml version="1.0" encoding="utf-8"?>
<!-- Generator: Adobe Illustrator 26.3.1, SVG Export Plug-In . SVG Version: 6.00 Build 0)  -->
<svg version="1.1" id="Layer_1" xmlns="http://www.w3.org/2000/svg" xmlns:xlink="http://www.w3.org/1999/xlink" x="0px" y="0px"
	 viewBox="0 0 500 500" style="enable-background:new 0 0 500 500;" xml:space="preserve">
<style type="text/css">
	.st0{fill:#231F20;}
</style>
<path class="st0" d="M149.8,31.3c15.1,0.2,30.1,0,45.2,0c0.1,46.2,0.1,92.4,0,138.6c-15.1,0-30.1,0-45.2,0
	C149.8,123.7,149.8,77.5,149.8,31.3 M249.9,187.6c41.4-42.7,82.4-86,123.7-128.8c10.6,11.2,21.6,22.1,32,33.5
	c-40.9,43.1-82.3,85.8-123.3,128.9C271.3,210.2,260.7,198.8,249.9,187.6 M148.9,214.8c7.5-0.8,15.2-1.5,22.8-0.9
	c45.5,0.6,87,37.2,97.9,82.9c9.4,37.3,0.3,80.4-26.8,107.5c-15.7,17.6-37.2,29.6-60,33.2c-11,0.1-22,0-33,0
	c-32.8-4.8-61.4-28.2-77.6-57.8c-16.8-32.5-16.9-73.7-0.4-106.4C87.5,243.2,116,219.7,148.9,214.8 M153,267.7
	c-15.2,3.6-28.1,14.7-35.8,28.6c-11.5,20.2-9.7,47.8,4.7,66c14.6,22,44.7,29.4,67.7,18.1c13.4-6.3,23.6-18.6,29.3-32.5
	c6.3-16,5.2-34.8-2.4-50.1c-7.9-15.5-22.5-27.7-39.3-30.5C169.1,266.6,161,266.3,153,267.7 M304.9,275.7c45.2,0,90.4,0,135.5,0
	c0,15.7,0,31.3,0,47c-45.2-0.1-90.3,0.1-135.5,0C304.9,307.1,305,291.4,304.9,275.7z"/>
</svg>
