<?xml version="1.0" encoding="utf-8"?>
<!-- Generator: Adobe Illustrator 26.3.1, SVG Export Plug-In . SVG Version: 6.00 Build 0)  -->
<svg version="1.1" id="Layer_1" xmlns="http://www.w3.org/2000/svg" xmlns:xlink="http://www.w3.org/1999/xlink" x="0px" y="0px"
	 viewBox="0 0 500 500" style="enable-background:new 0 0 500 500;" xml:space="preserve">
<style type="text/css">
	.st0{fill:#231F20;}
</style>
<path class="st0" d="M175.1,427.1c-3.4,0-6.7,0-10.1,0l-6.1,0c-0.6,0-1.3,0-1.9-0.1c-32.5-4.8-62.5-27-80.3-59.4
	c0-0.1-0.1-0.2-0.1-0.3c-17.3-33.4-17.5-75.1-0.4-108.8c0-0.1,0.1-0.1,0.1-0.2c17.1-32.7,46.9-55.2,79.8-60.2c0.2,0,0.5-0.1,0.7-0.1
	c6.5-0.7,14.5-1.5,22.7-0.9c46.4,0.9,89.9,37.5,101.3,85.5c10,39.9-0.9,83-27.6,110c-16.2,18.2-38.1,30.3-62.2,34.2
	c-0.7,0.1-1.3,0.2-2,0.2C184.4,427.1,179.8,427.1,175.1,427.1 M160,400.2l5.1,0c7.4,0,15.1,0,22.7,0c17.1-2.9,33.7-12.3,45.6-25.7
	c0.2-0.2,0.4-0.4,0.5-0.6c20.1-20.1,28.5-54.2,20.8-84.8c0-0.1,0-0.1,0-0.2c-4.4-17.9-14.3-33.9-28.3-45.9
	c-14.1-12.1-31-18.8-47.7-19.1c-0.3,0-0.6,0-1,0c-5.4-0.5-11,0-17.8,0.7c-24,3.7-46.9,21.3-59.8,46c-13,25.7-12.8,58.7,0.3,84.2
	C113.7,379.1,136.5,396.4,160,400.2 M174.4,379.9c-20.1,0-40-9.6-51.6-26.8c-16.1-20.8-18.2-51.3-5.1-74.4
	c9.2-16.5,24-28.3,40.7-32.3c0.4-0.1,0.8-0.2,1.2-0.3c9.3-1.6,18.4-1.1,25.3-0.5c0.4,0,0.7,0.1,1.1,0.1
	c18.9,3.1,35.9,16.1,45.5,34.8c0,0.1,0.1,0.1,0.1,0.2c8.6,17.5,9.6,38.6,2.6,56.4c0,0.1,0,0.1-0.1,0.2
	c-6.7,16.5-18.8,29.8-33.2,36.6C192.7,377.9,183.6,380,174.4,379.9 M164.6,272.6c-9.3,2.3-18,9.5-23.5,19.3c0,0,0,0.1-0.1,0.1
	c-7.9,13.8-6.6,32.7,3.1,45c0.2,0.3,0.4,0.6,0.6,0.9c9.3,14,29.3,19.3,44.4,11.9c0.1,0,0.1-0.1,0.2-0.1c8.4-3.9,15.6-12.1,19.8-22.4
	c4.2-10.7,3.5-23.9-1.7-34.5c-5.5-10.7-15.2-18.5-25.5-20.4C177.1,271.9,170.6,271.6,164.6,272.6 M323,322.9c-7.7,0-15.4,0-23.1,0
	c-7.4,0-13.4-6-13.4-13.4c0-7,0-14.1,0-21c0-7.1,0-14.5,0-21.7c0-7.4,5.9-13.4,13.3-13.5c0,0,0,0,0.1,0c41,0,82.1,0,123.1,0
	c7.4,0,13.4,6,13.4,13.4c0,0,0,0,0,0c0,6.6,0,13.2,0,19.9c0,7.6,0,15.2,0,22.8c0,7.4-6,13.4-13.4,13.4h0c-19.9,0-40.1,0-59.7,0
	C350,322.9,336.5,322.9,323,322.9 M313.3,296.1c16.7,0,33.5,0,49.9,0c15.2,0,30.8,0,46.4,0c0-3.1,0-6.2,0-9.3c0-2.2,0-4.3,0-6.5
	c-32.1,0-64.2,0-96.2,0c0,2.8,0,5.6,0,8.4C313.4,291,313.4,293.6,313.3,296.1 M279.4,230.7c-3.6,0-7-1.4-9.5-4
	c-6.8-6.8-13.5-13.8-20-20.6c-3.2-3.4-6.4-6.7-9.6-10.1c-5-5.2-5-13.5,0-18.6c19.7-20.3,39.6-41.1,58.8-61.2
	c17.5-18.3,35.6-37.2,53.6-55.8c2.5-2.6,6-4.1,9.6-4.1h0.1c3.7,0,7.2,1.5,9.7,4.2c3.5,3.7,7.2,7.5,10.7,11.2
	c6.1,6.3,12.4,12.8,18.5,19.5c4.7,5.2,4.6,13.2-0.2,18.3c-19.4,20.4-39.2,41.1-58.3,61c-17.6,18.4-35.8,37.3-53.6,56.1
	c-2.5,2.6-5.9,4.1-9.6,4.2L279.4,230.7 M268.5,186.8l0.8,0.8c3.3,3.4,6.6,6.9,9.9,10.4c14.8-15.5,29.6-31,44.1-46.1
	c16.3-17,33-34.4,49.5-51.8c-3.1-3.3-6.3-6.6-9.4-9.8l-1.2-1.3c-14.7,15.3-29.4,30.7-43.8,45.7C302.1,151.8,285.3,169.4,268.5,186.8
	 M169.4,184H159c-7.4,0-13.4-6-13.4-13.4c0-42,0-83.9,0-125.9c0-7.4,6-13.4,13.4-13.4c0,0,0.1,0,0.1,0c9,0.1,18.2,0.1,27.1,0.1
	c4.6,0,9.2,0,13.9,0c7.4,0,13.4,6,13.4,13.4c0,41.8,0,84.1,0,125.9c0,7.4-6,13.4-13.4,13.4C189.9,184,179.6,184,169.4,184
	 M172.5,58.2c0,33,0,66,0,99c4.8,0,9.5,0,14.3,0c0-32.9,0-66.1,0-99h-0.4C181.8,58.2,177.1,58.2,172.5,58.2"/>
</svg>
