<?xml version="1.0" encoding="UTF-8"?>
<svg xmlns="http://www.w3.org/2000/svg" xmlns:xlink="http://www.w3.org/1999/xlink" width="500pt" height="500pt" viewBox="0 0 500 500" version="1.1">
<g id="surface14850">
<path style=" stroke:none;fill-rule:nonzero;fill:rgb(9.019608%,9.019608%,9.411765%);fill-opacity:1;" d="M 249.859375 93.75 C 131.945312 93.75 28.050781 175.476562 0.488281 282.574219 C -1.65625 290.933594 3.378906 299.449219 11.738281 301.59375 C 20.097656 303.742188 28.617188 298.703125 30.761719 290.34375 C 54.511719 198.0625 146.519531 125 249.859375 125 C 353.195312 125 445.496094 198.089844 469.238281 290.34375 C 471.382812 298.703125 479.902344 303.742188 488.261719 301.59375 C 496.621094 299.449219 501.65625 290.933594 499.511719 282.574219 C 471.941406 175.453125 367.769531 93.75 249.859375 93.75 Z M 250.019531 177.082031 C 194.601562 177.082031 149.351562 222.332031 149.351562 277.75 C 149.351562 333.167969 194.601562 378.4375 250.019531 378.4375 C 305.4375 378.4375 350.707031 333.167969 350.707031 277.75 C 350.707031 222.332031 305.4375 177.082031 250.019531 177.082031 Z M 250.019531 208.332031 C 288.550781 208.332031 319.457031 239.222656 319.457031 277.75 C 319.457031 316.277344 288.550781 347.1875 250.019531 347.1875 C 211.492188 347.1875 180.601562 316.277344 180.601562 277.75 C 180.601562 239.222656 211.492188 208.332031 250.019531 208.332031 Z M 250.019531 208.332031 "/>
</g>
</svg>
