<?xml version="1.0" encoding="UTF-8"?>
<svg xmlns="http://www.w3.org/2000/svg" xmlns:xlink="http://www.w3.org/1999/xlink" width="500pt" height="500pt" viewBox="0 0 500 500" version="1.1">
<g id="surface14845">
<path style=" stroke:none;fill-rule:nonzero;fill:rgb(9.019608%,9.019608%,9.411765%);fill-opacity:1;" d="M 442.402344 41.523438 C 438.34375 41.640625 434.492188 43.335938 431.660156 46.246094 L 46.246094 431.660156 C 42.164062 435.578125 40.519531 441.398438 41.945312 446.875 C 43.375 452.351562 47.648438 456.625 53.125 458.054688 C 58.601562 459.480469 64.421875 457.835938 68.339844 453.753906 L 176.207031 345.886719 C 194.632812 365.824219 220.835938 378.4375 250 378.4375 C 305.519531 378.4375 350.726562 333.226562 350.726562 277.8125 C 350.726562 248.648438 338.117188 222.367188 318.175781 203.917969 L 365.132812 156.960938 C 415.671875 186.554688 454.882812 234.34375 469.277344 290.304688 C 471.050781 297.386719 477.394531 302.082031 484.375 302.082031 C 485.625 302.082031 486.96875 301.972656 488.21875 301.554688 C 496.65625 299.472656 501.660156 290.945312 499.472656 282.613281 C 483.429688 220.085938 442.304688 167.429688 388.304688 133.789062 L 453.753906 68.339844 C 458.371094 63.847656 459.753906 56.984375 457.242188 51.050781 C 454.730469 45.121094 448.839844 41.339844 442.402344 41.523438 Z M 249.898438 93.75 C 133.542969 93.75 28.652344 173.132812 0.527344 282.613281 C -1.660156 290.945312 3.34375 299.472656 11.78125 301.554688 C 20.113281 303.742188 28.636719 298.742188 30.722656 290.304688 C 54.992188 196.03125 149.273438 125 249.898438 125 C 267.710938 125 285.308594 127.179688 302.285156 131.449219 L 327.921875 105.835938 C 303.027344 97.917969 276.773438 93.75 249.898438 93.75 Z M 250 177.082031 C 194.480469 177.082031 149.375 222.289062 149.375 277.8125 C 149.375 279.894531 149.472656 282.074219 149.578125 284.160156 L 256.449219 177.285156 C 254.261719 177.183594 252.1875 177.082031 250 177.082031 Z M 250 177.082031 "/>
</g>
</svg>
