<?xml version="1.0" encoding="UTF-8"?>
<svg xmlns="http://www.w3.org/2000/svg" xmlns:xlink="http://www.w3.org/1999/xlink" width="500pt" height="500pt" viewBox="0 0 500 500" version="1.1">
<g id="surface14830">
<path style=" stroke:none;fill-rule:nonzero;fill:rgb(9.019608%,9.019608%,9.411765%);fill-opacity:1;" d="M 249.898438 52.082031 C 172.160156 52.082031 100.691406 87.648438 52.125 142.4375 C 46.914062 147.960938 45.121094 155.886719 47.453125 163.117188 C 49.78125 170.347656 55.863281 175.738281 63.320312 177.183594 C 70.777344 178.628906 78.429688 175.902344 83.292969 170.0625 C 124.308594 123.789062 184.929688 93.75 249.898438 93.75 C 314.867188 93.75 375.585938 123.800781 416.707031 170.085938 C 424.347656 178.691406 437.519531 179.476562 446.125 171.835938 C 454.734375 164.195312 455.515625 151.023438 447.875 142.414062 C 399.207031 87.636719 327.636719 52.082031 249.898438 52.082031 Z M 79.082031 239.296875 C 72.464844 239.132812 66.164062 242.121094 62.109375 247.347656 C 58.050781 252.574219 56.714844 259.417969 58.511719 265.789062 C 63.597656 284.855469 72.152344 302.632812 83.128906 318.867188 L 59.710938 338.054688 C 53.804688 342.722656 50.878906 350.21875 52.054688 357.65625 C 53.234375 365.09375 58.332031 371.316406 65.394531 373.933594 C 72.457031 376.550781 80.378906 375.152344 86.121094 370.28125 L 111.796875 349.261719 C 121.4375 358.371094 131.347656 366.566406 142.761719 373.675781 L 126.914062 407.917969 C 122.082031 418.367188 126.636719 430.757812 137.085938 435.585938 C 147.535156 440.417969 159.921875 435.863281 164.753906 425.414062 L 179.75 392.945312 C 195.527344 398.75 211.949219 402.765625 229.167969 404.542969 L 229.167969 437.5 C 229.058594 445.011719 233.007812 452 239.496094 455.789062 C 245.988281 459.578125 254.011719 459.578125 260.503906 455.789062 C 266.992188 452 270.941406 445.011719 270.832031 437.5 L 270.832031 404.542969 C 288.039062 402.753906 304.4375 398.675781 320.210938 392.863281 L 335.246094 425.414062 C 340.078125 435.863281 352.464844 440.417969 362.914062 435.585938 C 373.363281 430.757812 377.917969 418.367188 373.085938 407.917969 L 357.21875 373.636719 C 368.628906 366.527344 378.519531 358.324219 388.164062 349.222656 L 413.878906 370.28125 C 419.621094 375.152344 427.542969 376.550781 434.605469 373.933594 C 441.667969 371.316406 446.765625 365.09375 447.945312 357.65625 C 449.121094 350.21875 446.195312 342.722656 440.289062 338.054688 L 416.851562 318.847656 C 427.832031 302.617188 436.40625 284.847656 441.488281 265.789062 C 444.457031 254.667969 437.847656 243.25 426.726562 240.285156 C 415.609375 237.316406 404.191406 243.925781 401.226562 255.046875 C 385.183594 315.214844 321.390625 364.582031 249.898438 364.582031 C 178.40625 364.582031 114.828125 315.25 98.773438 255.046875 C 96.492188 245.96875 88.4375 239.527344 79.082031 239.296875 Z M 79.082031 239.296875 "/>
</g>
</svg>
