<?xml version="1.0" encoding="UTF-8"?>
<svg xmlns="http://www.w3.org/2000/svg" xmlns:xlink="http://www.w3.org/1999/xlink" width="500pt" height="500pt" viewBox="0 0 500 500" version="1.1">
<g id="surface14825">
<path style=" stroke:none;fill-rule:nonzero;fill:rgb(9.019608%,9.019608%,9.411765%);fill-opacity:1;" d="M 249.898438 62.5 C 173.84375 62.5 103.769531 96.65625 56.113281 149.414062 C 50.324219 155.820312 50.824219 165.703125 57.230469 171.488281 C 63.636719 177.273438 73.519531 176.773438 79.304688 170.371094 C 121.230469 123.960938 183.242188 93.75 249.898438 93.75 C 316.554688 93.75 378.6875 123.972656 420.714844 170.390625 C 424.414062 174.707031 430.167969 176.671875 435.734375 175.523438 C 441.300781 174.375 445.808594 170.292969 447.496094 164.867188 C 449.1875 159.4375 447.796875 153.519531 443.867188 149.414062 C 396.105469 96.664062 325.953125 62.5 249.898438 62.5 Z M 420.613281 249.753906 C 413.742188 250.109375 407.90625 254.917969 406.25 261.597656 C 389.527344 324.316406 323.734375 375 249.898438 375 C 176.058594 375 110.480469 324.339844 93.75 261.597656 C 92.035156 254.792969 85.992188 249.96875 78.980469 249.796875 C 74.019531 249.675781 69.300781 251.917969 66.257812 255.832031 C 63.214844 259.75 62.214844 264.878906 63.558594 269.652344 C 68.554688 288.394531 76.972656 305.921875 87.890625 321.878906 L 58.226562 346.597656 C 53.78125 350.125 51.59375 355.785156 52.519531 361.386719 C 53.445312 366.988281 57.332031 371.644531 62.675781 373.554688 C 68.019531 375.46875 73.980469 374.328125 78.246094 370.585938 L 109.394531 344.605469 C 120.710938 356.289062 132.847656 366.574219 146.972656 375.222656 L 127.867188 408.324219 C 123.550781 415.804688 126.117188 425.363281 133.59375 429.679688 C 141.074219 433.996094 150.632812 431.429688 154.949219 423.949219 L 174.722656 389.667969 C 193.609375 397.484375 213.253906 403.289062 234.375 404.96875 L 234.375 442.707031 C 234.296875 448.34375 237.257812 453.585938 242.121094 456.425781 C 246.988281 459.265625 253.011719 459.265625 257.878906 456.425781 C 262.742188 453.585938 265.703125 448.34375 265.625 442.707031 L 265.625 404.949219 C 286.722656 403.25 306.355469 397.445312 325.234375 389.628906 L 345.050781 423.949219 C 349.367188 431.429688 358.925781 433.996094 366.40625 429.679688 C 373.882812 425.363281 376.449219 415.804688 372.132812 408.324219 L 353.007812 375.183594 C 367.125 366.539062 379.25 356.257812 390.5625 344.585938 L 421.753906 370.585938 C 426.019531 374.328125 431.980469 375.46875 437.324219 373.554688 C 442.667969 371.644531 446.554688 366.988281 447.480469 361.386719 C 448.40625 355.785156 446.21875 350.125 441.773438 346.597656 L 412.089844 321.859375 C 423.011719 305.910156 431.449219 288.386719 436.441406 269.652344 C 437.828125 264.800781 436.785156 259.582031 433.644531 255.632812 C 430.503906 251.6875 425.652344 249.496094 420.613281 249.753906 Z M 420.613281 249.753906 "/>
</g>
</svg>
