<?xml version="1.0" encoding="UTF-8"?>
<svg xmlns="http://www.w3.org/2000/svg" xmlns:xlink="http://www.w3.org/1999/xlink" width="500pt" height="500pt" viewBox="0 0 500 500" version="1.1">
<g id="surface16301">
<path style=" stroke:none;fill-rule:nonzero;fill:rgb(9.019608%,9.019608%,9.411765%);fill-opacity:1;" d="M 88.542969 62.5 C 74.1875 62.5 62.5 74.1875 62.5 88.542969 L 62.5 120.726562 C 62.5 144.820312 73.347656 167.183594 92.265625 182.089844 L 191.691406 260.417969 L 308.289062 260.417969 L 407.714844 182.089844 C 426.640625 167.183594 437.5 144.8125 437.5 120.726562 L 437.5 88.542969 C 437.5 74.1875 425.8125 62.5 411.457031 62.5 Z M 197.917969 291.667969 L 197.917969 421.875 C 197.917969 427.730469 201.183594 433.09375 206.378906 435.769531 C 208.640625 436.925781 211.09375 437.5 213.542969 437.5 C 216.738281 437.5 219.917969 436.519531 222.617188 434.589844 L 295.53125 382.507812 C 299.636719 379.570312 302.082031 374.832031 302.082031 369.792969 L 302.082031 353.636719 L 281.515625 333.070312 C 274.628906 326.195312 270.832031 317.03125 270.832031 307.292969 C 270.832031 301.769531 272.171875 296.5 274.476562 291.667969 Z M 307.292969 291.667969 C 303.292969 291.667969 299.296875 293.191406 296.246094 296.246094 C 290.140625 302.339844 290.140625 312.246094 296.246094 318.339844 L 363.320312 385.417969 L 296.246094 452.496094 C 290.140625 458.589844 290.140625 468.496094 296.246094 474.589844 C 299.285156 477.652344 303.292969 479.167969 307.292969 479.167969 C 311.292969 479.167969 315.285156 477.640625 318.339844 474.589844 L 385.417969 407.511719 L 452.496094 474.589844 C 455.546875 477.652344 459.542969 479.167969 463.542969 479.167969 C 467.542969 479.167969 471.535156 477.640625 474.589844 474.589844 C 480.691406 468.496094 480.691406 458.589844 474.589844 452.496094 L 407.511719 385.417969 L 474.589844 318.339844 C 480.691406 312.246094 480.691406 302.339844 474.589844 296.246094 C 468.484375 290.140625 458.597656 290.140625 452.496094 296.246094 L 385.417969 363.320312 L 318.339844 296.246094 C 315.285156 293.191406 311.289062 291.667969 307.292969 291.667969 Z M 307.292969 291.667969 "/>
</g>
</svg>
