<?xml version="1.0" encoding="UTF-8"?>
<svg xmlns="http://www.w3.org/2000/svg" xmlns:xlink="http://www.w3.org/1999/xlink" width="500pt" height="500pt" viewBox="0 0 500 500" version="1.1">
<g id="surface16306">
<path style=" stroke:none;fill-rule:nonzero;fill:rgb(9.019608%,9.019608%,9.411765%);fill-opacity:1;" d="M 88.542969 62.5 C 74.335938 62.5 62.5 74.335938 62.5 88.542969 L 62.5 120.726562 C 62.5 144.652344 73.496094 167.28125 92.285156 182.089844 L 197.917969 265.320312 L 197.917969 421.875 C 197.917969 427.726562 201.191406 433.082031 206.390625 435.761719 C 211.589844 438.4375 217.851562 437.988281 222.617188 434.589844 L 295.144531 382.792969 L 295.308594 382.671875 L 295.53125 382.507812 C 300.765625 378.964844 303.347656 372.625 302.082031 366.433594 L 302.082031 353.636719 L 270.832031 322.386719 L 270.832031 361.753906 L 229.167969 391.519531 L 229.167969 270.832031 L 289.652344 270.832031 C 293.160156 270.832031 296.5625 269.648438 299.316406 267.476562 L 407.714844 182.089844 C 426.503906 167.28125 437.5 144.652344 437.5 120.726562 L 437.5 88.542969 C 437.5 74.335938 425.664062 62.5 411.457031 62.5 Z M 93.75 93.75 L 406.25 93.75 L 406.25 120.726562 C 406.25 135.097656 399.679688 148.632812 388.386719 157.53125 L 284.242188 239.582031 L 216.105469 239.582031 C 215.96875 239.5625 215.835938 239.539062 215.699219 239.523438 L 111.613281 157.53125 C 100.320312 148.632812 93.75 135.097656 93.75 120.726562 Z M 307.292969 291.667969 C 303.292969 291.667969 299.296875 293.191406 296.246094 296.246094 C 290.140625 302.339844 290.140625 312.246094 296.246094 318.339844 L 363.320312 385.417969 L 296.246094 452.496094 C 290.140625 458.589844 290.140625 468.496094 296.246094 474.589844 C 299.285156 477.652344 303.292969 479.167969 307.292969 479.167969 C 311.292969 479.167969 315.285156 477.640625 318.339844 474.589844 L 385.417969 407.511719 L 452.496094 474.589844 C 455.546875 477.652344 459.542969 479.167969 463.542969 479.167969 C 467.542969 479.167969 471.535156 477.640625 474.589844 474.589844 C 480.691406 468.496094 480.691406 458.589844 474.589844 452.496094 L 407.511719 385.417969 L 474.589844 318.339844 C 480.691406 312.246094 480.691406 302.339844 474.589844 296.246094 C 468.484375 290.140625 458.597656 290.140625 452.496094 296.246094 L 385.417969 363.320312 L 318.339844 296.246094 C 315.285156 293.191406 311.289062 291.667969 307.292969 291.667969 Z M 307.292969 291.667969 "/>
</g>
</svg>
