<?xml version="1.0" encoding="UTF-8"?>
<svg xmlns="http://www.w3.org/2000/svg" xmlns:xlink="http://www.w3.org/1999/xlink" width="500pt" height="500pt" viewBox="0 0 500 500" version="1.1">
<g id="surface21400">
<path style=" stroke:none;fill-rule:nonzero;fill:rgb(9.019608%,9.019608%,9.411765%);fill-opacity:1;" d="M 343.445312 62.214844 C 331.945312 62.382812 322.757812 71.835938 322.917969 83.332031 L 322.917969 376.789062 L 285.5625 339.4375 C 280.335938 333.996094 272.578125 331.800781 265.277344 333.707031 C 257.976562 335.609375 252.273438 341.308594 250.371094 348.609375 C 248.46875 355.910156 250.660156 363.671875 256.105469 368.894531 L 329.019531 441.8125 C 337.15625 449.945312 350.34375 449.945312 358.480469 441.8125 L 431.394531 368.894531 C 436.839844 363.671875 439.03125 355.910156 437.128906 348.609375 C 435.226562 341.308594 429.523438 335.609375 422.222656 333.707031 C 414.921875 331.800781 407.164062 333.996094 401.9375 339.4375 L 364.582031 376.789062 L 364.582031 83.332031 C 364.660156 77.707031 362.457031 72.285156 358.476562 68.308594 C 354.492188 64.332031 349.074219 62.132812 343.445312 62.214844 Z M 161.457031 83.3125 C 155.113281 83.3125 149.390625 87.144531 146.992188 93.019531 L 100.117188 207.601562 C 96.847656 215.589844 100.671875 224.726562 108.664062 227.988281 C 116.652344 231.277344 125.789062 227.441406 129.046875 219.441406 L 133.605469 208.3125 L 189.3125 208.3125 L 193.867188 219.441406 C 196.347656 225.492188 202.199219 229.144531 208.355469 229.144531 C 210.324219 229.144531 212.316406 228.789062 214.253906 227.988281 C 222.234375 224.726562 226.070312 215.589844 222.796875 207.601562 L 175.921875 93.019531 C 173.527344 87.144531 167.800781 83.3125 161.457031 83.3125 Z M 161.457031 140.21875 L 176.535156 177.0625 L 146.382812 177.0625 Z M 125 281.25 C 116.375 281.25 109.375 288.238281 109.375 296.875 C 109.375 305.511719 116.375 312.5 125 312.5 L 169.453125 312.5 L 111.835938 403.074219 C 108.773438 407.886719 108.578125 413.984375 111.328125 418.984375 C 114.058594 423.984375 119.3125 427.082031 125.019531 427.082031 L 197.9375 427.082031 C 206.5625 427.082031 213.5625 420.09375 213.5625 411.457031 C 213.5625 402.824219 206.5625 395.832031 197.9375 395.832031 L 153.460938 395.832031 L 211.101562 305.257812 C 214.164062 300.445312 214.359375 294.347656 211.609375 289.347656 C 208.878906 284.347656 203.625 281.25 197.917969 281.25 Z M 125 281.25 "/>
</g>
</svg>
