<?xml version="1.0" encoding="UTF-8"?>
<svg xmlns="http://www.w3.org/2000/svg" xmlns:xlink="http://www.w3.org/1999/xlink" width="500pt" height="500pt" viewBox="0 0 500 500" version="1.1">
<g id="surface21425">
<path style=" stroke:none;fill-rule:nonzero;fill:rgb(9.019608%,9.019608%,9.411765%);fill-opacity:1;" d="M 348.714844 62.277344 C 340.09375 62.410156 333.210938 69.503906 333.332031 78.125 L 333.332031 394.570312 L 287.089844 348.328125 C 283.171875 344.246094 277.351562 342.601562 271.875 344.027344 C 266.398438 345.457031 262.125 349.734375 260.695312 355.207031 C 259.269531 360.683594 260.914062 366.503906 264.996094 370.421875 L 337.910156 443.339844 C 344.011719 449.4375 353.902344 449.4375 360.003906 443.339844 L 432.921875 370.421875 C 437.003906 366.503906 438.648438 360.683594 437.222656 355.207031 C 435.792969 349.734375 431.515625 345.457031 426.042969 344.027344 C 420.566406 342.601562 414.746094 344.246094 410.828125 348.328125 L 364.582031 394.570312 L 364.582031 78.125 C 364.644531 73.898438 362.992188 69.832031 360 66.84375 C 357.011719 63.859375 352.9375 62.210938 348.714844 62.277344 Z M 161.457031 83.3125 C 155.113281 83.3125 149.390625 87.144531 146.992188 93.019531 L 100.117188 207.601562 C 96.847656 215.589844 100.671875 224.726562 108.664062 227.988281 C 116.652344 231.277344 125.789062 227.441406 129.046875 219.441406 L 133.605469 208.3125 L 189.3125 208.3125 L 193.867188 219.441406 C 196.347656 225.492188 202.199219 229.144531 208.355469 229.144531 C 210.324219 229.144531 212.316406 228.789062 214.253906 227.988281 C 222.234375 224.726562 226.070312 215.589844 222.796875 207.601562 L 175.921875 93.019531 C 173.527344 87.144531 167.800781 83.3125 161.457031 83.3125 Z M 161.457031 140.21875 L 176.535156 177.0625 L 146.382812 177.0625 Z M 125 281.25 C 116.375 281.25 109.375 288.238281 109.375 296.875 C 109.375 305.511719 116.375 312.5 125 312.5 L 169.453125 312.5 L 111.835938 403.074219 C 108.773438 407.886719 108.578125 413.984375 111.328125 418.984375 C 114.058594 423.984375 119.3125 427.082031 125.019531 427.082031 L 197.9375 427.082031 C 206.5625 427.082031 213.5625 420.09375 213.5625 411.457031 C 213.5625 402.824219 206.5625 395.832031 197.9375 395.832031 L 153.460938 395.832031 L 211.101562 305.257812 C 214.164062 300.445312 214.359375 294.347656 211.609375 289.347656 C 208.878906 284.347656 203.625 281.25 197.917969 281.25 Z M 125 281.25 "/>
</g>
</svg>
