<?xml version="1.0" encoding="UTF-8"?>
<svg xmlns="http://www.w3.org/2000/svg" xmlns:xlink="http://www.w3.org/1999/xlink" width="500pt" height="500pt" viewBox="0 0 500 500" version="1.1">
<g id="surface21405">
<path style=" stroke:none;fill-rule:nonzero;fill:rgb(9.019608%,9.019608%,9.411765%);fill-opacity:1;" d="M 343.445312 62.214844 C 331.945312 62.382812 322.757812 71.835938 322.917969 83.332031 L 322.917969 366.375 L 285.5625 329.019531 C 281.636719 324.984375 276.242188 322.707031 270.609375 322.714844 C 262.136719 322.722656 254.511719 327.867188 251.328125 335.71875 C 248.144531 343.570312 250.03125 352.570312 256.105469 358.480469 L 329.019531 431.394531 C 337.15625 439.527344 350.34375 439.527344 358.480469 431.394531 L 431.394531 358.480469 C 436.839844 353.253906 439.03125 345.496094 437.128906 338.195312 C 435.226562 330.894531 429.523438 325.191406 422.222656 323.289062 C 414.921875 321.386719 407.164062 323.578125 401.9375 329.019531 L 364.582031 366.375 L 364.582031 83.332031 C 364.660156 77.707031 362.457031 72.285156 358.476562 68.308594 C 354.492188 64.332031 349.074219 62.132812 343.445312 62.214844 Z M 114.582031 83.332031 C 105.957031 83.332031 98.957031 90.324219 98.957031 98.957031 C 98.957031 107.59375 105.957031 114.582031 114.582031 114.582031 L 159.039062 114.582031 L 101.421875 205.160156 C 98.359375 209.972656 98.160156 216.070312 100.910156 221.070312 C 103.640625 226.070312 108.894531 229.167969 114.605469 229.167969 L 187.519531 229.167969 C 196.144531 229.167969 203.144531 222.175781 203.144531 213.542969 C 203.144531 204.90625 196.144531 197.917969 187.519531 197.917969 L 143.046875 197.917969 L 200.683594 107.339844 C 203.746094 102.527344 203.941406 96.429688 201.191406 91.429688 C 198.464844 86.429688 193.207031 83.332031 187.5 83.332031 Z M 151.042969 281.25 C 144.699219 281.25 138.984375 285.089844 136.578125 290.953125 L 89.703125 405.539062 C 86.429688 413.527344 90.257812 422.644531 98.246094 425.902344 C 106.234375 429.195312 115.371094 425.359375 118.632812 417.359375 L 123.167969 406.25 L 178.914062 406.25 L 183.453125 417.359375 C 185.929688 423.410156 191.78125 427.082031 197.9375 427.082031 C 199.90625 427.082031 201.898438 426.714844 203.835938 425.921875 C 211.816406 422.664062 215.652344 413.527344 212.382812 405.539062 L 165.507812 290.953125 C 163.109375 285.078125 157.386719 281.25 151.042969 281.25 Z M 151.042969 338.136719 L 166.117188 375 L 135.964844 375 Z M 151.042969 338.136719 "/>
</g>
</svg>
