<?xml version="1.0" encoding="UTF-8"?>
<svg xmlns="http://www.w3.org/2000/svg" xmlns:xlink="http://www.w3.org/1999/xlink" width="500pt" height="500pt" viewBox="0 0 500 500" version="1.1">
<g id="surface21395">
<path style=" stroke:none;fill-rule:nonzero;fill:rgb(9.019608%,9.019608%,9.411765%);fill-opacity:1;" d="M 338.296875 51.859375 C 329.675781 51.996094 322.792969 59.085938 322.917969 67.707031 L 322.917969 394.570312 L 276.671875 348.328125 C 272.753906 344.246094 266.933594 342.601562 261.457031 344.027344 C 255.984375 345.457031 251.707031 349.734375 250.277344 355.207031 C 248.851562 360.683594 250.496094 366.503906 254.578125 370.421875 L 327.496094 443.339844 C 333.597656 449.4375 343.488281 449.4375 349.589844 443.339844 L 422.503906 370.421875 C 426.585938 366.503906 428.230469 360.683594 426.804688 355.207031 C 425.375 349.734375 421.101562 345.457031 415.625 344.027344 C 410.148438 342.601562 404.328125 344.246094 400.410156 348.328125 L 354.167969 394.570312 L 354.167969 67.707031 C 354.226562 63.484375 352.574219 59.414062 349.585938 56.425781 C 346.59375 53.441406 342.523438 51.792969 338.296875 51.859375 Z M 114.582031 83.332031 C 105.957031 83.332031 98.957031 90.324219 98.957031 98.957031 C 98.957031 107.59375 105.957031 114.582031 114.582031 114.582031 L 159.039062 114.582031 L 101.421875 205.160156 C 98.359375 209.972656 98.160156 216.070312 100.910156 221.070312 C 103.640625 226.070312 108.894531 229.167969 114.605469 229.167969 L 187.519531 229.167969 C 196.144531 229.167969 203.144531 222.175781 203.144531 213.542969 C 203.144531 204.90625 196.144531 197.917969 187.519531 197.917969 L 143.046875 197.917969 L 200.683594 107.339844 C 203.746094 102.527344 203.941406 96.429688 201.191406 91.429688 C 198.464844 86.429688 193.207031 83.332031 187.5 83.332031 Z M 151.042969 281.25 C 144.699219 281.25 138.984375 285.089844 136.578125 290.953125 L 89.703125 405.539062 C 86.429688 413.527344 90.257812 422.644531 98.246094 425.902344 C 106.234375 429.195312 115.371094 425.359375 118.632812 417.359375 L 123.167969 406.25 L 178.914062 406.25 L 183.453125 417.359375 C 185.929688 423.410156 191.78125 427.082031 197.9375 427.082031 C 199.90625 427.082031 201.898438 426.714844 203.835938 425.921875 C 211.816406 422.664062 215.652344 413.527344 212.382812 405.539062 L 165.507812 290.953125 C 163.109375 285.078125 157.386719 281.25 151.042969 281.25 Z M 151.042969 338.136719 L 166.117188 375 L 135.964844 375 Z M 151.042969 338.136719 "/>
</g>
</svg>
