<?xml version="1.0" encoding="UTF-8"?>
<svg xmlns="http://www.w3.org/2000/svg" xmlns:xlink="http://www.w3.org/1999/xlink" width="500pt" height="500pt" viewBox="0 0 500 500" version="1.1">
<g id="surface21415">
<path style=" stroke:none;fill-rule:nonzero;fill:rgb(9.019608%,9.019608%,9.411765%);fill-opacity:1;" d="M 343.445312 62.214844 C 331.945312 62.382812 322.757812 71.835938 322.917969 83.332031 L 322.917969 366.375 L 285.5625 329.019531 C 280.335938 323.578125 272.578125 321.386719 265.277344 323.289062 C 257.976562 325.191406 252.273438 330.894531 250.371094 338.195312 C 248.46875 345.496094 250.660156 353.253906 256.105469 358.480469 L 329.019531 431.394531 C 337.15625 439.527344 350.34375 439.527344 358.480469 431.394531 L 431.394531 358.480469 C 436.839844 353.253906 439.03125 345.496094 437.128906 338.195312 C 435.226562 330.894531 429.523438 325.191406 422.222656 323.289062 C 414.921875 321.386719 407.164062 323.578125 401.9375 329.019531 L 364.582031 366.375 L 364.582031 83.332031 C 364.660156 77.707031 362.457031 72.285156 358.476562 68.308594 C 354.492188 64.332031 349.074219 62.132812 343.445312 62.214844 Z M 149.738281 83.394531 C 148.515625 83.496094 147.289062 83.726562 146.097656 84.125 L 114.847656 94.542969 C 106.660156 97.273438 102.230469 106.132812 104.960938 114.320312 C 107.6875 122.507812 116.570312 126.96875 124.734375 124.207031 L 135.417969 120.625 L 135.417969 213.542969 C 135.417969 222.175781 142.40625 229.167969 151.042969 229.167969 C 159.675781 229.167969 166.667969 222.175781 166.667969 213.542969 L 166.667969 98.957031 C 166.667969 93.9375 164.25 89.222656 160.175781 86.285156 C 157.113281 84.082031 153.410156 83.085938 149.738281 83.394531 Z M 145.832031 281.25 C 118.167969 281.25 97.789062 298.773438 93.914062 325.90625 C 92.695312 334.449219 98.617188 342.367188 107.15625 343.585938 C 115.6875 344.816406 123.617188 338.894531 124.835938 330.34375 C 126.003906 322.207031 130.59375 312.5 145.832031 312.5 C 157.324219 312.5 166.667969 321.84375 166.667969 333.332031 C 166.667969 344.824219 157.324219 354.167969 145.832031 354.167969 C 120.75 354.167969 93.75 372.09375 93.75 411.457031 C 93.75 420.09375 100.75 427.082031 109.375 427.082031 L 182.292969 427.082031 C 190.925781 427.082031 197.917969 420.09375 197.917969 411.457031 C 197.917969 402.824219 190.925781 395.832031 182.292969 395.832031 L 128.214844 395.832031 C 133.140625 386.386719 142.332031 385.417969 145.832031 385.417969 C 174.550781 385.417969 197.917969 362.050781 197.917969 333.332031 C 197.917969 304.613281 174.550781 281.25 145.832031 281.25 Z M 145.832031 281.25 "/>
</g>
</svg>
