<?xml version="1.0" encoding="UTF-8"?>
<svg xmlns="http://www.w3.org/2000/svg" xmlns:xlink="http://www.w3.org/1999/xlink" width="500pt" height="500pt" viewBox="0 0 500 500" version="1.1">
<g id="surface21420">
<path style=" stroke:none;fill-rule:nonzero;fill:rgb(9.019608%,9.019608%,9.411765%);fill-opacity:1;" d="M 338.296875 62.277344 C 329.675781 62.410156 322.792969 69.503906 322.917969 78.125 L 322.917969 394.570312 L 276.671875 348.328125 C 272.753906 344.246094 266.933594 342.601562 261.457031 344.027344 C 255.984375 345.457031 251.707031 349.734375 250.277344 355.207031 C 248.851562 360.683594 250.496094 366.503906 254.578125 370.421875 L 327.496094 443.339844 C 333.597656 449.4375 343.488281 449.4375 349.589844 443.339844 L 422.503906 370.421875 C 426.585938 366.503906 428.230469 360.683594 426.804688 355.207031 C 425.375 349.734375 421.101562 345.457031 415.625 344.027344 C 410.148438 342.601562 404.328125 344.246094 400.410156 348.328125 L 354.167969 394.570312 L 354.167969 78.125 C 354.226562 73.898438 352.574219 69.832031 349.585938 66.84375 C 346.59375 63.859375 342.523438 62.210938 338.296875 62.277344 Z M 149.738281 83.394531 C 148.515625 83.496094 147.289062 83.726562 146.097656 84.125 L 114.847656 94.542969 C 106.660156 97.273438 102.230469 106.132812 104.960938 114.320312 C 107.6875 122.507812 116.570312 126.96875 124.734375 124.207031 L 135.417969 120.625 L 135.417969 213.542969 C 135.417969 222.175781 142.40625 229.167969 151.042969 229.167969 C 159.675781 229.167969 166.667969 222.175781 166.667969 213.542969 L 166.667969 98.957031 C 166.667969 93.9375 164.25 89.222656 160.175781 86.285156 C 157.113281 84.082031 153.410156 83.085938 149.738281 83.394531 Z M 145.832031 281.25 C 118.167969 281.25 97.789062 298.773438 93.914062 325.90625 C 92.695312 334.449219 98.617188 342.367188 107.15625 343.585938 C 115.6875 344.816406 123.617188 338.894531 124.835938 330.34375 C 126.003906 322.207031 130.59375 312.5 145.832031 312.5 C 157.324219 312.5 166.667969 321.84375 166.667969 333.332031 C 166.667969 344.824219 157.324219 354.167969 145.832031 354.167969 C 120.75 354.167969 93.75 372.09375 93.75 411.457031 C 93.75 420.09375 100.75 427.082031 109.375 427.082031 L 182.292969 427.082031 C 190.925781 427.082031 197.917969 420.09375 197.917969 411.457031 C 197.917969 402.824219 190.925781 395.832031 182.292969 395.832031 L 128.214844 395.832031 C 133.140625 386.386719 142.332031 385.417969 145.832031 385.417969 C 174.550781 385.417969 197.917969 362.050781 197.917969 333.332031 C 197.917969 304.613281 174.550781 281.25 145.832031 281.25 Z M 145.832031 281.25 "/>
</g>
</svg>
