<?xml version="1.0" encoding="UTF-8"?>
<svg xmlns="http://www.w3.org/2000/svg" xmlns:xlink="http://www.w3.org/1999/xlink" width="500pt" height="500pt" viewBox="0 0 500 500" version="1.1">
<g id="surface21410">
<path style=" stroke:none;fill-rule:nonzero;fill:rgb(9.019608%,9.019608%,9.411765%);fill-opacity:1;" d="M 343.445312 62.214844 C 331.945312 62.382812 322.757812 71.835938 322.917969 83.332031 L 322.917969 366.375 L 285.5625 329.019531 C 280.335938 323.578125 272.578125 321.386719 265.277344 323.289062 C 257.976562 325.191406 252.273438 330.894531 250.371094 338.195312 C 248.46875 345.496094 250.660156 353.253906 256.105469 358.480469 L 329.019531 431.394531 C 337.15625 439.527344 350.34375 439.527344 358.480469 431.394531 L 431.394531 358.480469 C 436.839844 353.253906 439.03125 345.496094 437.128906 338.195312 C 435.226562 330.894531 429.523438 325.191406 422.222656 323.289062 C 414.921875 321.386719 407.164062 323.578125 401.9375 329.019531 L 364.582031 366.375 L 364.582031 83.332031 C 364.660156 77.707031 362.457031 72.285156 358.476562 68.308594 C 354.492188 64.332031 349.074219 62.132812 343.445312 62.214844 Z M 135.945312 83.332031 C 108.277344 83.332031 87.898438 100.855469 84.023438 127.992188 C 82.804688 136.53125 88.75 144.453125 97.289062 145.671875 C 105.820312 146.898438 113.730469 140.976562 114.949219 132.425781 C 116.117188 124.289062 120.707031 114.582031 135.945312 114.582031 C 147.433594 114.582031 156.777344 123.925781 156.777344 135.417969 C 156.777344 146.90625 147.433594 156.25 135.945312 156.25 C 110.863281 156.25 83.863281 174.175781 83.863281 213.542969 C 83.863281 222.175781 90.851562 229.167969 99.488281 229.167969 L 172.402344 229.167969 C 181.039062 229.167969 188.027344 222.175781 188.027344 213.542969 C 188.027344 204.90625 181.039062 197.917969 172.402344 197.917969 L 118.328125 197.917969 C 123.253906 188.46875 132.445312 187.5 135.945312 187.5 C 164.664062 187.5 188.027344 164.136719 188.027344 135.417969 C 188.027344 106.699219 164.664062 83.332031 135.945312 83.332031 Z M 139.851562 281.3125 C 138.628906 281.414062 137.398438 281.644531 136.210938 282.042969 L 104.960938 292.460938 C 96.773438 295.1875 92.363281 304.046875 95.09375 312.234375 C 97.820312 320.421875 106.679688 324.882812 114.847656 322.125 L 125.527344 318.542969 L 125.527344 411.457031 C 125.527344 420.09375 132.519531 427.082031 141.152344 427.082031 C 149.789062 427.082031 156.777344 420.09375 156.777344 411.457031 L 156.777344 296.875 C 156.777344 291.855469 154.363281 287.136719 150.289062 284.199219 C 147.226562 281.996094 143.523438 281 139.851562 281.3125 Z M 139.851562 281.3125 "/>
</g>
</svg>
