<?xml version="1.0" encoding="utf-8"?>
<!-- Generator: Adobe Illustrator 26.3.1, SVG Export Plug-In . SVG Version: 6.00 Build 0)  -->
<svg version="1.1" id="Layer_1" xmlns="http://www.w3.org/2000/svg" xmlns:xlink="http://www.w3.org/1999/xlink" x="0px" y="0px"
	 viewBox="0 0 500 500" style="enable-background:new 0 0 500 500;" xml:space="preserve">
<style type="text/css">
	.st0{fill:#171718;}
</style>
<g id="surface21420">
	<path class="st0" d="M338.3,62.3c-8.6,0.1-15.5,7.2-15.4,15.8v316.4l-46.2-46.2c-3.9-4.1-9.7-5.7-15.2-4.3
		c-5.5,1.4-9.8,5.7-11.2,11.2c-1.4,5.5,0.2,11.3,4.3,15.2l72.9,72.9c6.1,6.1,16,6.1,22.1,0l72.9-72.9c4.1-3.9,5.7-9.7,4.3-15.2
		c-1.4-5.5-5.7-9.8-11.2-11.2c-5.5-1.4-11.3,0.2-15.2,4.3l-46.2,46.2V78.1c0.1-4.2-1.6-8.3-4.6-11.3
		C346.6,63.9,342.5,62.2,338.3,62.3z M149.7,281.3c-1.2,0.1-2.4,0.3-3.6,0.7l-31.2,10.4c-8.2,2.7-12.6,11.6-9.9,19.8
		c2.7,8.2,11.6,12.6,19.8,9.9l10.7-3.6v92.9c0,8.6,7,15.6,15.6,15.6c8.6,0,15.6-7,15.6-15.6V296.9c0-5-2.4-9.7-6.5-12.7
		C157.1,282,153.4,281,149.7,281.3z M145.8,83.3c-27.7,0-48,17.5-51.9,44.7c-1.2,8.5,4.7,16.5,13.2,17.7c8.5,1.2,16.5-4.7,17.7-13.2
		c1.2-8.1,5.8-17.8,21-17.8c11.5,0,20.8,9.3,20.8,20.8c0,11.5-9.3,20.8-20.8,20.8c-25.1,0-52.1,17.9-52.1,57.3
		c0,8.6,7,15.6,15.6,15.6h72.9c8.6,0,15.6-7,15.6-15.6c0-8.6-7-15.6-15.6-15.6h-54.1c4.9-9.4,14.1-10.4,17.6-10.4
		c28.7,0,52.1-23.4,52.1-52.1S174.6,83.3,145.8,83.3z"/>
</g>
</svg>
