<?xml version="1.0" encoding="UTF-8"?>
<svg xmlns="http://www.w3.org/2000/svg" xmlns:xlink="http://www.w3.org/1999/xlink" width="144pt" height="144pt" viewBox="0 0 144 144" version="1.1">
<g id="surface378">
<path style=" stroke:none;fill-rule:nonzero;fill:rgb(29.411765%,29.411765%,29.411765%);fill-opacity:1;" d="M 98.9375 14.941406 C 96.496094 14.945312 94.300781 16.425781 93.382812 18.6875 C 92.464844 20.949219 93.007812 23.539062 94.757812 25.242188 L 108.515625 39 L 21 39 C 18.835938 38.96875 16.824219 40.105469 15.734375 41.976562 C 14.640625 43.84375 14.640625 46.15625 15.734375 48.023438 C 16.824219 49.894531 18.835938 51.03125 21 51 L 108.515625 51 L 94.757812 64.757812 C 93.191406 66.261719 92.558594 68.496094 93.105469 70.601562 C 93.65625 72.703125 95.296875 74.34375 97.398438 74.894531 C 99.503906 75.441406 101.738281 74.808594 103.242188 73.242188 L 127.242188 49.242188 C 129.585938 46.898438 129.585938 43.101562 127.242188 40.757812 L 103.242188 16.757812 C 102.109375 15.59375 100.558594 14.941406 98.9375 14.941406 Z M 44.882812 68.941406 C 43.324219 68.988281 41.84375 69.640625 40.757812 70.757812 L 16.757812 94.757812 C 14.414062 97.101562 14.414062 100.898438 16.757812 103.242188 L 40.757812 127.242188 C 42.261719 128.808594 44.496094 129.441406 46.601562 128.894531 C 48.703125 128.34375 50.34375 126.703125 50.894531 124.601562 C 51.441406 122.496094 50.808594 120.261719 49.242188 118.757812 L 35.484375 105 L 123 105 C 125.164062 105.03125 127.175781 103.894531 128.265625 102.023438 C 129.359375 100.15625 129.359375 97.84375 128.265625 95.976562 C 127.175781 94.105469 125.164062 92.96875 123 93 L 35.484375 93 L 49.242188 79.242188 C 51.015625 77.515625 51.550781 74.878906 50.585938 72.601562 C 49.621094 70.320312 47.355469 68.867188 44.882812 68.941406 Z M 44.882812 68.941406 "/>
</g>
</svg>
