<?xml version="1.0" encoding="UTF-8"?>
<svg xmlns="http://www.w3.org/2000/svg" xmlns:xlink="http://www.w3.org/1999/xlink" width="144pt" height="144pt" viewBox="0 0 144 144" version="1.1">
<g id="surface270">
<path style=" stroke:none;fill-rule:nonzero;fill:rgb(29.411765%,29.411765%,29.411765%);fill-opacity:1;" d="M 100.453125 14.953125 C 98.621094 14.953125 96.972656 16.0625 96.285156 17.761719 C 95.59375 19.460938 96.003906 21.40625 97.316406 22.683594 L 113.636719 39 L 19.5 39 C 17.878906 38.976562 16.367188 39.828125 15.550781 41.230469 C 14.730469 42.632812 14.730469 44.367188 15.550781 45.769531 C 16.367188 47.171875 17.878906 48.023438 19.5 48 L 113.636719 48 L 97.316406 64.316406 C 96.144531 65.445312 95.667969 67.125 96.082031 68.699219 C 96.492188 70.277344 97.722656 71.507812 99.300781 71.917969 C 100.875 72.332031 102.554688 71.855469 103.683594 70.683594 L 127.683594 46.683594 C 129.4375 44.925781 129.4375 42.074219 127.683594 40.316406 L 103.683594 16.316406 C 102.835938 15.445312 101.667969 14.953125 100.453125 14.953125 Z M 43.410156 71.957031 C 42.242188 71.992188 41.132812 72.480469 40.316406 73.316406 L 16.316406 97.316406 C 14.5625 99.074219 14.5625 101.925781 16.316406 103.683594 L 40.316406 127.683594 C 41.445312 128.855469 43.125 129.332031 44.699219 128.917969 C 46.277344 128.507812 47.507812 127.277344 47.917969 125.699219 C 48.332031 124.125 47.855469 122.445312 46.683594 121.316406 L 30.363281 105 L 124.5 105 C 126.121094 105.023438 127.632812 104.171875 128.449219 102.769531 C 129.269531 101.367188 129.269531 99.632812 128.449219 98.230469 C 127.632812 96.828125 126.121094 95.976562 124.5 96 L 30.363281 96 L 46.683594 79.683594 C 48.011719 78.386719 48.410156 76.410156 47.6875 74.703125 C 46.964844 72.996094 45.265625 71.90625 43.410156 71.957031 Z M 43.410156 71.957031 "/>
</g>
</svg>
