<svg xmlns="http://www.w3.org/2000/svg" width="481.844" height="513" viewBox="0 0 481.844 513"><defs><style>.a{fill:#e12e20;stroke:rgba(0,0,0,0);}</style></defs><path class="a" d="M84.465,432.821C59.2,379.657,65.611,326.883,102.5,280.057c35.628-45.225,83.645-60.252,138.177-45.205,54.02,14.9,86.148,53.895,96.119,108.36,14.083,76.941-28.871,146.645-99.63,165.089-10.224,2.666-21.178,2.533-31.8,3.694-.455,0-.912.006-1.365.006C146.506,512,107.69,481.673,84.465,432.821Zm48.689-62.831c-.163,42.876,31.558,76.673,72.08,76.79,39.43.114,71.544-33.6,71.8-75.366.262-43.566-30.484-76.175-71.917-76.269h-.169C164.923,295.144,133.318,328.075,133.155,369.989Zm249.791-5.135v-55.3H550.105v55.3ZM311.923,196.2C363.707,142.331,415.229,88.739,467.593,34.271c13.4,14.089,25.824,27.151,39.482,41.508L352.75,236.857C339.066,223.225,325.937,210.155,311.923,196.2Zm-125.3-24.982V0h52.754V171.22Z" transform="translate(-68.762 0.5)"/></svg>