<svg xmlns="http://www.w3.org/2000/svg" width="513.018" height="192.693" viewBox="0 0 513.018 192.693"><path d="M337.664,162.048c-9.461-19.9-7.059-39.663,6.752-57.195,13.339-16.932,31.317-22.558,51.734-16.925,20.225,5.58,32.254,20.178,35.987,40.57,5.273,28.807-10.81,54.9-37.3,61.809-3.828,1-7.929.948-11.9,1.383l-.511,0C360.892,191.693,346.36,180.338,337.664,162.048Zm18.229-23.524c-.061,16.053,11.815,28.706,26.987,28.75,14.762.042,26.786-12.579,26.881-28.217.1-16.311-11.413-28.52-26.926-28.555h-.063C367.788,110.5,355.955,122.831,355.894,138.524ZM196.342,190.739c-17.253-3.112-25.681-17.231-22.088-35.82,2.24-11.577,8.787-19.459,20.045-22.539,9.651-2.641,19.6-4.246,29.467-6.031,4.971-.9,8.3-3.128,8.578-8.412.279-5.246-2.154-8.692-7.289-10.409-11.447-3.827-19.512-.554-25.168,10.28-.545,1.044-1.916,2.315-2.939,2.345-6.79.21-13.591.109-20.316.109-1.083-15.223,8.047-28.47,22.406-32.426a66.027,66.027,0,0,1,39.187,1.187c12.249,4.087,18.5,12.812,18.688,25.25.388,25.311.116,50.634.116,76.491H233.4c-.161-2.762-.323-5.5-.447-7.641-7.766,2.523-15.483,5.482-23.448,7.431a28.71,28.71,0,0,1-6.771.764A36.256,36.256,0,0,1,196.342,190.739Zm13.5-44.208A22.807,22.807,0,0,0,202.7,149.5c-4.942,3.524-6.021,8.651-5.074,14.429.8,4.86,3.381,8.112,8.195,9.279,12.3,2.984,24.53-5.274,25.895-17.728.52-4.738.085-9.578.085-14.621C224.094,142.831,216.939,144.572,209.845,146.531ZM58.763,190.77c-31.433-2.1-53.616-27.714-57.658-52.975-4.269-26.684,3.782-49.01,24.944-65.841,33.678-26.786,83.526-8.667,95.717,35.5-7.844,0-15.051.292-22.2-.207-1.765-.123-3.737-2.56-4.955-4.375-9.1-13.547-21.454-20.686-37.922-18.1C39.929,87.41,29.112,97.821,24.848,113.913c-4.328,16.328-.69,31.151,12.375,42.732,11.442,10.141,24.583,12.122,38.825,7,8.523-3.066,14.263-9.382,19.281-16.675a9.669,9.669,0,0,1,6.415-3.655c6.4-.489,12.851-.171,20.157-.171-.74,2.493-1.236,4.526-1.941,6.484-8.9,24.689-33.2,41.258-57.641,41.26C61.133,190.888,59.949,190.849,58.763,190.77Zm215.671.053V90.968h22.027c.217,3.867.4,7.163.7,12.4,8.487-11.395,18.858-16.464,32.025-17.044v24.626c-16.153-.7-26.954,5.776-30.3,18.778a63.55,63.55,0,0,0-1.614,14.889c-.2,15.24-.071,30.483-.071,46.2ZM135.694,190.8V60.19H158.71V190.8Zm313.722-54.2V115.9H512v20.7ZM422.824,73.458c19.388-20.169,38.678-40.234,58.283-60.627l14.782,15.541L438.11,88.679C432.987,83.575,428.071,78.682,422.824,73.458ZM375.91,64.1V0h19.751V64.1Z" transform="translate(0.518 0.5)" fill="#e12e20" stroke="rgba(0,0,0,0)" stroke-width="1"/></svg>